{"glyphs":{"0":{"ha":815,"x_min":102,"x_max":741,"o":"m 699 403 l 731 585 q 740 675 738 628 q 735 770 741 723 q 713 858 728 816 q 670 932 697 900 q 602 983 643 964 q 506 1002 562 1002 q 405 984 450 1002 q 321 935 359 966 q 254 863 283 905 q 203 776 225 822 q 166 681 181 730 q 143 585 151 631 l 112 403 q 103 312 105 359 q 109 218 102 264 q 131 130 115 172 q 174 56 146 87 q 242 5 201 24 q 338 -14 282 -14 q 439 4 393 -14 q 522 53 485 22 q 589 124 559 83 q 640 212 618 165 q 676 307 662 258 q 699 403 691 356 m 506 965 q 587 948 553 965 q 646 903 622 932 q 684 837 670 875 q 701 756 697 799 l 137 260 q 140 333 137 297 q 149 404 142 368 l 180 585 q 201 671 188 627 q 235 758 215 715 q 280 838 254 800 q 340 904 307 876 q 415 948 374 932 q 506 965 456 965 m 338 23 q 259 39 293 23 q 201 81 224 54 q 163 145 177 109 q 143 222 149 181 l 707 718 q 703 651 705 684 q 694 585 700 618 l 663 404 q 642 318 655 362 q 609 231 629 273 q 563 151 589 189 q 504 85 537 113 q 429 40 470 56 q 338 23 387 23 z "},"1":{"ha":815,"x_min":221,"x_max":568,"o":"m 398 0 l 568 987 l 553 987 l 227 846 l 221 806 l 524 938 l 361 0 l 398 0 z "},"2":{"ha":815,"x_min":35,"x_max":680,"o":"m 608 0 l 612 37 l 89 37 l 418 370 q 497 449 456 408 q 574 535 538 490 q 636 630 610 580 q 671 736 663 680 q 667 842 680 793 q 622 926 653 890 q 544 981 591 962 q 439 1001 497 1001 q 324 977 377 1000 q 230 913 271 953 q 160 820 189 872 q 121 709 132 767 l 157 709 q 194 806 169 760 q 256 887 219 852 q 338 943 292 922 q 439 964 385 964 q 529 947 490 964 q 595 900 569 930 q 632 827 621 869 q 634 736 642 785 q 602 642 626 686 q 547 557 578 597 q 479 480 515 517 q 409 410 443 444 l 39 37 l 35 0 l 608 0 z "},"3":{"ha":815,"x_min":36,"x_max":707,"o":"m 292 522 l 286 484 l 362 484 q 461 470 414 483 q 543 429 509 456 q 593 360 577 402 q 599 259 610 318 q 562 162 589 205 q 496 88 534 119 q 408 40 456 57 q 305 23 359 23 q 206 42 250 23 q 131 95 161 61 q 86 174 100 128 q 79 275 73 220 l 42 275 q 53 159 36 212 q 105 68 70 106 q 192 8 140 30 q 306 -14 243 -14 q 422 7 366 -14 q 522 64 477 27 q 596 151 566 100 q 636 262 627 201 q 635 347 644 308 q 604 416 626 386 q 547 469 581 447 q 470 504 513 492 q 549 537 511 517 q 617 587 587 558 q 669 652 648 615 q 697 733 690 688 q 694 839 707 790 q 650 924 681 888 q 572 980 618 960 q 469 1001 526 1001 q 354 980 408 1001 q 258 923 300 960 q 184 837 214 886 q 142 729 155 787 l 178 729 q 218 822 191 779 q 283 897 245 865 q 369 946 321 928 q 469 964 416 964 q 558 947 519 964 q 624 899 598 930 q 660 827 650 869 q 661 736 670 785 q 621 645 650 684 q 551 579 591 606 q 460 538 509 552 q 363 522 412 524 l 292 522 z "},"4":{"ha":815,"x_min":38,"x_max":709,"o":"m 545 306 l 661 987 l 617 987 l 41 290 l 38 270 l 501 269 l 455 0 l 492 0 l 538 269 l 705 269 l 709 306 l 545 306 m 101 306 l 548 848 l 618 938 l 507 306 l 101 306 z "},"5":{"ha":815,"x_min":125,"x_max":798,"o":"m 204 517 l 231 507 q 338 564 282 543 q 458 585 395 585 q 557 561 515 584 q 623 500 598 538 q 655 414 647 463 q 654 313 663 365 q 621 205 644 258 q 562 113 598 153 q 477 48 526 73 q 367 23 429 23 q 275 41 314 23 q 210 92 235 60 q 173 166 184 123 q 163 260 161 210 l 127 260 q 140 153 125 203 q 185 66 155 103 q 261 8 216 29 q 368 -14 307 -14 q 492 14 437 -14 q 589 88 548 42 q 655 193 629 134 q 691 315 681 252 q 689 430 701 374 q 648 528 678 485 q 570 595 618 570 q 458 621 522 621 q 347 604 401 621 q 247 555 294 587 l 357 951 l 792 951 l 798 987 l 330 987 l 204 517 z "},"6":{"ha":815,"x_min":83,"x_max":683,"o":"m 665 1001 l 651 1001 q 507 978 574 1000 q 383 919 439 956 q 281 829 327 881 q 202 716 236 777 q 144 586 168 654 q 110 448 121 518 l 92 334 q 96 206 83 269 q 142 95 109 144 q 228 16 175 45 q 353 -14 281 -14 q 470 15 417 -14 q 565 88 522 43 q 636 199 607 136 q 674 326 665 262 q 673 443 683 385 q 635 547 663 500 q 558 621 606 592 q 444 649 511 649 q 359 638 401 649 q 281 607 318 627 q 210 558 243 587 q 152 496 178 530 q 192 614 168 556 q 249 724 216 673 q 322 819 281 776 q 413 895 363 863 q 522 945 463 926 q 649 964 581 963 l 661 964 l 665 1001 m 440 612 q 541 587 500 612 q 607 521 583 562 q 639 429 631 480 q 637 326 646 378 q 605 219 629 273 q 545 122 582 165 q 460 51 509 79 q 353 22 412 23 q 241 49 288 22 q 168 121 195 76 q 142 174 152 145 q 128 232 133 202 q 125 283 125 257 q 129 334 125 309 l 142 416 q 187 496 155 460 q 261 558 219 532 q 350 598 302 584 q 440 612 397 612 z "},"7":{"ha":815,"x_min":176,"x_max":793,"o":"m 790 964 l 793 987 l 180 987 l 176 951 l 745 951 l 181 0 l 219 0 l 790 964 z "},"8":{"ha":815,"x_min":80,"x_max":766,"o":"m 757 736 q 751 843 766 794 q 704 926 736 891 q 623 981 671 962 q 519 1001 575 1001 q 407 982 460 1001 q 311 927 353 962 q 238 843 267 892 q 200 736 209 795 q 201 661 194 696 q 227 595 208 625 q 274 543 245 566 q 340 506 303 520 q 253 470 294 492 q 178 417 211 448 q 121 346 144 386 q 90 257 98 306 q 97 144 80 194 q 152 59 115 94 q 241 5 189 24 q 353 -14 294 -14 q 472 5 414 -14 q 578 59 530 24 q 658 144 625 94 q 701 257 691 194 q 698 341 708 302 q 666 412 688 380 q 609 467 643 444 q 534 505 576 491 q 612 539 575 518 q 679 590 649 561 q 729 655 708 618 q 757 736 749 692 m 663 254 q 623 156 653 199 q 550 84 593 113 q 456 39 507 54 q 352 23 405 23 q 256 39 302 23 q 178 84 211 54 q 131 156 146 113 q 126 254 116 199 q 167 350 136 307 q 240 424 197 393 q 334 471 283 454 q 438 487 386 487 q 533 471 488 487 q 610 424 578 454 q 658 350 642 393 q 663 254 673 307 m 720 740 q 684 651 711 691 q 618 583 656 611 q 532 539 579 554 q 437 524 486 524 q 351 539 391 524 q 282 583 310 555 q 241 651 254 612 q 237 740 228 691 q 273 831 246 789 q 338 902 300 872 q 423 948 376 931 q 519 964 470 964 q 607 947 566 964 q 675 901 647 930 q 716 829 704 870 q 720 740 729 788 z "},"9":{"ha":815,"x_min":136,"x_max":731,"o":"m 195 23 l 175 23 l 170 -14 l 193 -14 q 393 30 305 -12 q 545 143 481 73 q 650 306 610 214 q 708 502 691 399 l 725 612 q 731 704 731 657 q 721 794 730 751 q 693 876 711 838 q 645 942 675 913 q 574 986 615 970 q 478 1001 532 1002 q 391 986 432 1000 q 315 946 351 971 q 251 887 280 921 q 201 814 222 853 q 164 733 179 776 q 144 650 150 691 q 145 533 136 592 q 184 427 155 474 q 259 348 212 378 q 372 317 307 318 q 464 331 420 317 q 546 368 507 344 q 616 426 584 393 q 673 498 648 459 q 635 364 656 420 q 585 258 614 309 q 515 164 554 207 q 428 91 476 121 q 321 42 379 60 q 195 23 263 24 m 372 354 q 273 382 313 355 q 210 453 233 410 q 179 548 186 496 q 180 650 172 600 q 215 760 189 705 q 279 861 240 816 q 369 935 317 906 q 481 964 420 964 q 566 950 530 965 q 627 909 602 935 q 667 847 652 882 q 688 772 682 812 q 694 692 695 733 q 688 612 694 650 l 682 572 q 635 486 667 526 q 559 417 602 446 q 467 371 516 387 q 372 354 418 354 z "}," ":{"ha":815,"x_min":0,"x_max":0,"o":""},"A":{"ha":815,"x_min":9,"x_max":679,"o":"m 599 295 l 642 0 l 679 0 l 534 987 l 493 987 l 9 0 l 48 0 l 193 295 l 599 295 m 210 332 l 508 935 l 594 332 l 210 332 z "},"B":{"ha":815,"x_min":72,"x_max":746,"o":"m 72 0 l 372 0 q 485 22 431 1 q 584 78 540 42 q 658 163 628 114 q 696 272 688 212 q 694 353 703 315 q 663 424 685 392 q 609 477 642 455 q 528 513 576 500 q 609 550 576 531 q 668 596 642 569 q 712 657 694 623 q 736 734 729 692 q 728 843 746 796 q 673 922 709 890 q 585 970 636 954 q 478 987 534 986 l 243 987 l 72 0 m 193 488 l 463 488 q 548 470 508 486 q 615 426 587 454 q 656 358 643 397 q 660 271 669 319 q 623 177 650 219 q 557 104 596 134 q 471 56 519 73 q 372 37 422 38 l 114 37 l 193 488 m 199 524 l 273 951 l 479 951 q 570 936 526 949 q 647 897 614 923 q 694 831 679 871 q 699 737 709 791 q 662 646 689 685 q 595 580 634 606 q 508 539 556 553 q 411 524 460 525 l 199 524 z "},"C":{"ha":815,"x_min":88,"x_max":763,"o":"m 694 302 l 658 302 q 609 198 638 248 q 540 109 580 147 q 449 46 500 69 q 336 23 398 22 q 248 43 285 24 q 187 93 212 62 q 148 164 162 124 q 129 249 134 205 q 124 337 123 293 q 132 420 126 381 l 159 569 q 182 658 167 612 q 218 748 197 704 q 269 830 240 791 q 333 899 297 869 q 412 946 369 929 q 505 964 455 964 q 608 941 566 965 q 676 879 650 918 q 714 789 702 840 q 726 686 726 739 l 761 686 q 749 804 763 747 q 703 905 734 861 q 622 975 671 949 q 505 1001 572 1002 q 402 981 450 1000 q 315 930 354 962 q 243 856 275 898 q 187 765 211 813 q 146 666 163 717 q 121 568 130 616 l 96 420 q 89 327 90 376 q 96 229 88 277 q 121 137 104 181 q 168 60 138 94 q 238 7 196 27 q 336 -14 279 -13 q 463 12 405 -14 q 566 82 521 38 q 644 183 612 126 q 694 302 677 240 z "},"D":{"ha":815,"x_min":60,"x_max":764,"o":"m 60 0 l 305 0 q 414 20 363 1 q 511 68 466 38 q 592 140 555 99 q 659 229 629 181 q 707 329 687 277 q 736 433 726 381 l 756 554 q 762 655 764 604 q 747 753 760 706 q 710 843 734 801 q 652 917 687 885 q 572 967 618 948 q 470 987 527 986 l 232 987 l 60 0 m 261 951 l 470 951 q 562 932 522 949 q 633 885 603 914 q 683 818 663 856 q 714 736 703 779 q 726 646 724 692 q 720 556 727 600 l 699 433 q 671 338 689 386 q 627 248 653 291 q 566 166 600 203 q 492 100 532 128 q 404 55 451 72 q 305 37 357 38 l 102 37 l 261 951 z "},"E":{"ha":815,"x_min":74,"x_max":788,"o":"m 641 490 l 646 526 l 201 526 l 275 951 l 783 951 l 788 987 l 245 987 l 74 0 l 618 0 l 623 37 l 116 37 l 195 490 l 641 490 z "},"F":{"ha":815,"x_min":81,"x_max":796,"o":"m 649 486 l 654 524 l 206 524 l 281 951 l 791 951 l 796 987 l 252 987 l 81 0 l 116 0 l 200 486 l 649 486 z "},"G":{"ha":815,"x_min":83,"x_max":764,"o":"m 659 106 l 718 448 l 422 448 l 416 410 l 675 410 l 625 123 q 497 45 568 69 q 348 23 425 22 q 258 43 296 24 q 193 92 220 61 q 150 162 166 122 q 127 245 134 201 q 120 334 119 289 q 127 420 121 379 l 156 583 q 180 671 164 626 q 218 758 195 716 q 270 838 241 800 q 336 903 300 876 q 415 947 372 931 q 508 964 458 964 q 602 945 562 964 q 669 892 642 926 q 711 814 696 859 q 728 720 726 770 l 764 720 q 747 829 764 778 q 697 919 730 880 q 616 979 664 957 q 507 1001 568 1001 q 405 983 452 1001 q 317 935 357 965 q 244 863 277 904 q 186 776 212 822 q 144 679 161 729 q 119 582 127 629 l 91 420 q 84 324 83 374 q 94 227 85 274 q 123 135 104 178 q 174 60 143 92 q 249 7 205 26 q 349 -14 292 -13 q 516 15 435 -15 q 659 106 597 44 z "},"H":{"ha":815,"x_min":47,"x_max":793,"o":"m 623 0 l 793 987 l 758 987 l 679 526 l 172 526 l 252 987 l 217 987 l 47 0 l 81 0 l 166 490 l 673 490 l 588 0 l 623 0 z "},"I":{"ha":815,"x_min":69,"x_max":770,"o":"m 239 987 l 234 949 l 475 949 l 316 37 l 75 37 l 69 0 l 600 0 l 606 37 l 355 37 l 514 949 l 765 949 l 770 987 l 239 987 z "},"J":{"ha":815,"x_min":54,"x_max":760,"o":"m 723 987 l 604 300 q 566 196 593 245 q 500 108 539 146 q 409 47 460 70 q 301 23 359 24 q 204 42 245 22 q 137 95 163 61 q 100 174 111 128 q 95 272 90 220 l 58 272 q 67 159 54 212 q 112 68 81 107 q 190 8 142 30 q 302 -14 238 -14 q 425 13 368 -13 q 526 82 481 39 q 600 181 570 125 q 642 300 630 238 l 760 987 l 723 987 z "},"K":{"ha":815,"x_min":81,"x_max":844,"o":"m 347 517 l 661 0 l 704 0 l 374 541 l 844 986 l 792 987 l 355 576 l 188 422 l 286 987 l 250 987 l 81 0 l 115 0 l 180 373 l 347 517 z "},"L":{"ha":815,"x_min":88,"x_max":637,"o":"m 132 37 l 296 987 l 259 987 l 88 0 l 633 0 l 637 37 l 132 37 z "},"M":{"ha":815,"x_min":52,"x_max":804,"o":"m 275 987 l 222 987 l 52 0 l 89 0 l 171 477 l 250 931 l 373 319 l 407 319 l 759 931 l 680 484 l 596 0 l 633 0 l 804 987 l 746 987 l 396 369 l 275 987 z "},"N":{"ha":815,"x_min":48,"x_max":792,"o":"m 623 0 l 792 987 l 757 987 l 598 64 l 251 987 l 218 987 l 48 0 l 83 0 l 241 926 l 589 0 l 623 0 z "},"O":{"ha":815,"x_min":87,"x_max":751,"o":"m 718 420 l 743 568 q 750 661 749 612 q 744 758 751 710 q 719 850 736 806 q 673 928 701 894 q 602 981 644 961 q 504 1001 560 1001 q 400 982 448 1001 q 313 931 353 964 q 241 856 273 899 q 186 765 210 813 q 146 666 162 717 q 121 568 130 615 l 96 420 q 88 327 89 376 q 96 229 87 277 q 121 137 104 181 q 168 60 138 94 q 238 6 197 26 q 336 -14 279 -14 q 439 5 391 -14 q 526 57 487 24 q 597 132 566 89 q 653 222 629 174 q 693 321 677 271 q 718 420 709 372 m 707 569 l 681 420 q 658 330 673 376 q 623 240 644 284 q 572 157 601 196 q 509 87 544 117 q 430 40 473 58 q 336 23 387 23 q 248 42 284 23 q 186 92 211 60 q 148 163 161 123 q 128 248 134 204 q 124 337 123 292 q 132 420 126 381 l 159 569 q 181 658 167 612 q 218 748 196 704 q 268 831 239 791 q 332 900 296 870 q 411 947 368 930 q 504 964 454 964 q 592 946 555 964 q 654 897 629 927 q 692 825 678 865 q 711 741 706 784 q 715 652 717 696 q 707 569 713 608 z "},"P":{"ha":815,"x_min":89,"x_max":801,"o":"m 197 417 l 456 417 q 574 439 518 418 q 675 498 631 460 q 750 586 720 535 q 791 699 781 637 q 787 812 801 760 q 741 903 773 864 q 659 963 708 941 q 549 987 610 986 l 260 987 l 89 0 l 125 0 l 197 417 m 203 454 l 290 951 l 549 951 q 645 929 602 949 q 715 876 687 909 q 753 796 742 842 q 754 698 764 751 q 716 600 744 644 q 648 524 688 555 q 559 473 608 492 q 456 454 510 455 l 203 454 z "},"Q":{"ha":815,"x_min":73,"x_max":773,"o":"m 741 420 l 766 568 q 772 664 773 614 q 762 762 772 714 q 733 854 753 810 q 682 930 713 897 q 607 982 650 962 q 507 1001 564 1001 q 400 983 450 1001 q 310 933 351 964 q 234 859 268 901 q 176 768 201 817 q 132 669 150 720 q 106 568 115 617 l 80 420 q 73 323 73 374 q 83 225 74 273 q 113 134 93 177 q 164 58 133 91 q 239 6 195 25 q 339 -14 282 -14 q 395 -8 368 -14 q 450 6 423 -3 l 589 -178 l 616 -156 l 485 23 q 581 97 538 53 q 656 193 624 140 q 709 302 688 244 q 741 420 730 361 m 730 569 l 703 420 q 679 328 694 375 q 640 237 663 281 q 586 154 616 193 q 519 86 556 115 q 436 40 481 57 q 339 23 391 23 q 248 41 287 23 q 183 90 210 59 q 140 160 156 120 q 116 244 123 200 q 109 333 109 288 q 117 420 110 378 l 143 569 q 168 661 151 614 q 207 751 184 707 q 260 834 230 795 q 329 902 291 873 q 411 947 366 930 q 507 964 456 964 q 598 946 559 964 q 664 899 637 928 q 707 828 690 868 q 730 745 723 788 q 737 655 738 701 q 730 569 736 610 z "},"R":{"ha":815,"x_min":79,"x_max":760,"o":"m 469 422 l 628 0 l 665 0 l 665 9 l 504 433 q 590 476 549 451 q 664 536 631 502 q 719 610 696 569 q 749 703 741 652 q 745 813 760 762 q 697 903 730 865 q 615 964 664 941 q 507 987 566 986 l 250 987 l 79 0 l 114 0 l 187 422 l 469 422 m 193 459 l 279 951 l 507 951 q 601 930 558 949 q 671 878 643 910 q 711 800 699 844 q 713 703 722 755 q 679 611 703 654 q 619 535 654 568 q 538 481 583 502 q 444 459 494 461 l 193 459 z "},"S":{"ha":815,"x_min":75,"x_max":768,"o":"m 660 237 q 622 144 650 184 q 552 77 593 104 q 462 37 511 50 q 363 23 413 23 q 261 39 307 23 q 182 87 214 56 q 131 163 149 118 q 115 265 113 208 l 80 265 q 95 149 75 200 q 154 61 115 97 q 247 5 193 24 q 363 -14 300 -14 q 477 3 421 -14 q 579 52 533 20 q 656 130 625 83 q 697 238 688 177 q 690 334 705 294 q 642 414 676 373 q 556 475 614 446 q 444 522 498 505 q 350 559 399 536 q 269 613 302 582 q 226 677 240 642 q 222 761 212 713 q 260 849 231 810 q 330 913 289 887 q 417 951 370 939 q 512 964 465 964 q 606 945 565 964 q 675 894 647 926 q 716 818 703 861 q 728 723 730 774 l 764 723 q 752 833 768 783 q 703 922 736 884 q 621 980 669 958 q 511 1001 572 1001 q 402 985 457 1001 q 303 938 348 969 q 226 862 258 907 q 185 760 194 817 q 196 656 176 700 q 254 580 216 612 q 338 526 290 548 q 435 487 387 503 q 531 447 483 470 q 614 390 580 425 q 654 324 641 363 q 660 237 668 286 z "},"T":{"ha":815,"x_min":168,"x_max":840,"o":"m 834 951 l 840 987 l 174 987 l 168 951 l 484 951 l 318 0 l 355 0 l 519 951 l 834 951 z "},"U":{"ha":815,"x_min":91,"x_max":794,"o":"m 794 987 l 759 987 l 642 318 q 605 210 631 263 q 539 115 578 157 q 448 48 499 74 q 336 23 396 23 q 233 50 275 23 q 167 118 191 76 q 135 213 142 160 q 136 318 127 266 l 251 987 l 216 987 l 100 318 q 101 198 91 258 q 141 92 111 139 q 219 16 170 45 q 336 -14 267 -14 q 463 15 405 -14 q 565 89 521 43 q 638 195 609 135 q 680 318 668 255 l 794 987 z "},"V":{"ha":815,"x_min":159,"x_max":825,"o":"m 319 0 l 360 0 l 825 987 l 785 987 l 367 99 l 344 45 l 338 96 l 197 987 l 159 988 l 319 0 z "},"W":{"ha":815,"x_min":154,"x_max":863,"o":"m 154 0 l 188 0 l 471 821 l 495 892 l 496 827 l 524 2 l 557 0 l 863 987 l 830 987 l 591 224 l 553 102 l 554 220 l 525 987 l 492 987 l 226 227 l 186 103 l 189 220 l 187 987 l 154 987 l 154 0 z "},"X":{"ha":815,"x_min":20,"x_max":829,"o":"m 435 533 l 227 988 l 185 988 l 410 507 l 20 0 l 64 0 l 429 475 l 646 0 l 687 0 l 454 501 l 829 987 l 784 987 l 435 533 z "},"Y":{"ha":815,"x_min":159,"x_max":829,"o":"m 391 410 l 203 988 l 159 988 l 370 378 l 306 0 l 341 0 l 405 372 l 829 987 l 785 987 l 391 410 z "},"Z":{"ha":815,"x_min":32,"x_max":758,"o":"m 83 37 l 755 962 l 758 987 l 207 987 l 202 951 l 704 951 l 35 30 l 32 0 l 623 0 l 627 37 l 83 37 z "},"a":{"ha":815,"x_min":75,"x_max":699,"o":"m 581 0 l 623 0 l 623 6 q 623 77 623 42 q 628 148 623 112 l 692 515 q 685 613 699 570 q 639 686 670 656 q 563 732 608 716 q 467 747 519 747 q 368 733 416 747 q 277 691 319 718 q 206 624 236 664 q 163 534 176 585 l 199 532 q 239 609 212 576 q 303 665 267 642 q 381 699 339 688 q 468 711 424 711 q 550 698 512 711 q 613 661 587 685 q 651 600 639 635 q 656 517 663 564 l 637 410 l 458 410 q 380 405 420 409 q 300 390 339 400 q 224 363 260 380 q 159 322 188 347 q 109 263 129 297 q 82 186 89 230 q 89 103 75 140 q 130 41 102 66 q 196 1 157 15 q 277 -14 235 -13 q 368 -4 323 -14 q 452 26 412 7 q 528 74 492 45 q 593 137 564 102 q 583 69 586 102 q 581 0 579 35 m 277 22 q 211 34 243 23 q 157 66 180 45 q 123 116 134 87 q 118 183 111 146 q 144 251 125 222 q 191 300 163 279 q 251 335 218 321 q 320 357 284 349 q 392 369 356 365 q 460 372 428 372 l 631 372 l 600 199 q 536 126 572 159 q 460 70 501 93 q 373 34 419 46 q 277 22 326 21 z "},"b":{"ha":815,"x_min":77,"x_max":695,"o":"m 686 360 l 688 374 q 694 459 694 416 q 688 545 695 503 q 664 623 680 586 q 621 688 648 660 q 556 731 594 715 q 467 747 518 747 q 393 736 429 747 q 326 707 358 726 q 266 663 294 688 q 216 609 238 638 l 293 1042 l 256 1042 l 77 0 l 113 0 l 134 109 q 171 57 149 79 q 221 18 193 34 q 279 -5 248 3 q 343 -14 311 -14 q 436 2 393 -14 q 515 45 479 18 q 578 108 550 72 q 628 186 606 144 q 663 272 649 227 q 686 360 677 317 m 650 374 l 647 360 q 627 281 640 321 q 596 203 614 241 q 552 134 577 166 q 496 77 527 101 q 427 38 465 52 q 343 23 389 23 q 274 34 307 23 q 214 64 241 44 q 169 112 188 83 q 142 177 150 141 l 206 532 q 247 602 219 570 q 312 659 275 635 q 389 697 348 683 q 468 711 429 711 q 547 695 513 711 q 602 655 580 680 q 636 595 624 629 q 654 524 649 562 q 657 448 659 487 q 650 374 656 410 z "},"c":{"ha":815,"x_min":101,"x_max":702,"o":"m 345 23 q 265 37 299 23 q 206 76 231 52 q 167 132 182 100 q 145 201 152 164 q 138 276 138 237 q 144 353 138 315 l 150 381 q 172 461 157 421 q 206 538 186 501 q 253 606 227 574 q 313 661 280 637 q 385 697 346 684 q 469 711 424 711 q 555 694 517 711 q 618 648 593 677 q 654 578 643 618 q 663 492 666 538 l 699 492 q 688 593 702 546 q 644 674 673 640 q 569 728 613 708 q 469 747 525 747 q 333 715 393 747 q 228 631 273 683 q 154 514 183 579 q 113 381 125 448 l 108 353 q 102 266 101 310 q 113 182 103 222 q 141 105 123 141 q 189 43 159 70 q 256 2 217 17 q 345 -14 295 -14 q 449 4 400 -14 q 538 52 498 21 q 608 126 578 83 q 652 222 637 170 l 615 222 q 574 140 600 177 q 513 78 548 104 q 435 37 478 52 q 345 23 393 23 z "},"d":{"ha":815,"x_min":100,"x_max":771,"o":"m 110 374 l 107 360 q 101 276 101 319 q 108 191 100 233 q 132 112 115 149 q 174 47 148 75 q 238 3 201 19 q 327 -14 276 -14 q 398 -4 363 -14 q 465 21 433 5 q 525 60 497 37 q 576 110 553 83 l 555 0 l 592 0 l 771 1042 l 734 1042 l 659 608 q 624 665 645 639 q 577 709 604 690 q 519 737 551 727 q 453 747 488 747 q 359 732 402 747 q 281 690 317 717 q 217 627 245 663 q 168 549 189 591 q 132 463 146 508 q 110 374 117 418 m 145 360 l 148 374 q 182 493 159 433 q 244 602 206 553 q 333 680 281 650 q 453 711 385 711 q 525 697 492 711 q 584 661 558 684 q 626 605 609 637 q 648 536 642 573 l 584 173 q 535 112 564 140 q 474 65 507 85 q 402 34 440 45 q 326 23 365 23 q 247 39 280 24 q 193 80 214 54 q 158 139 170 106 q 141 210 146 173 q 137 286 136 248 q 145 360 139 325 z "},"e":{"ha":815,"x_min":88,"x_max":715,"o":"m 363 -14 q 508 17 441 -14 q 627 103 574 48 l 602 123 q 492 49 552 76 q 363 22 433 22 q 249 53 298 23 q 173 129 201 82 q 132 250 138 187 q 143 391 125 313 l 700 391 l 707 434 q 704 549 715 493 q 665 650 694 606 q 587 721 635 694 q 475 747 540 747 q 381 733 425 747 q 298 692 337 718 q 228 631 260 667 q 170 555 195 596 q 128 470 145 515 q 103 381 111 426 l 98 351 q 100 225 88 288 q 140 114 111 163 q 230 22 174 58 q 363 -14 287 -14 m 475 711 q 571 686 530 711 q 637 623 612 662 q 670 535 662 585 q 669 437 679 486 l 667 428 l 150 428 q 199 532 169 481 q 271 623 229 583 q 363 686 311 662 q 475 711 414 711 z "},"f":{"ha":815,"x_min":189,"x_max":842,"o":"m 258 0 l 301 0 l 419 696 l 712 696 l 717 734 l 425 734 l 437 798 q 473 895 448 854 q 534 964 498 937 q 618 1005 571 991 q 720 1019 665 1019 q 777 1017 749 1019 q 832 1010 804 1015 l 842 1044 q 781 1053 812 1050 q 719 1056 750 1056 q 602 1039 655 1056 q 508 991 549 1023 q 439 910 467 958 q 399 798 411 862 l 387 734 l 194 734 l 189 696 l 380 696 l 258 0 z "},"g":{"ha":815,"x_min":60,"x_max":720,"o":"m 111 374 l 109 360 q 102 276 102 319 q 109 191 102 233 q 133 112 117 149 q 176 47 149 75 q 240 3 202 19 q 328 -14 277 -14 q 399 -5 364 -14 q 466 20 434 4 q 526 59 498 37 q 577 109 554 81 l 557 10 q 523 -92 547 -43 q 463 -178 498 -140 q 379 -237 427 -215 q 273 -260 332 -260 q 166 -229 212 -260 q 87 -148 120 -198 l 60 -171 q 151 -262 97 -229 q 275 -296 205 -296 q 394 -270 340 -296 q 489 -203 448 -245 q 556 -105 530 -161 q 595 10 583 -50 l 720 734 l 682 734 l 659 608 q 625 665 646 640 q 578 709 604 691 q 520 738 551 728 q 454 747 489 747 q 361 732 404 747 q 283 690 318 717 q 219 627 247 663 q 170 549 191 591 q 133 463 148 508 q 111 374 119 418 m 146 360 l 149 374 q 183 493 159 433 q 245 602 207 553 q 334 680 282 650 q 454 711 387 711 q 528 697 494 711 q 586 659 561 683 q 627 602 610 635 q 648 531 643 569 l 585 178 q 538 115 566 144 q 477 66 510 87 q 405 34 443 45 q 327 23 367 23 q 249 39 281 24 q 194 80 216 54 q 159 139 172 106 q 142 210 146 173 q 138 286 137 248 q 146 360 140 325 z "},"h":{"ha":815,"x_min":70,"x_max":700,"o":"m 200 557 l 286 1042 l 250 1042 l 70 0 l 107 0 l 189 476 q 235 565 203 522 q 309 640 267 607 q 400 691 351 672 q 496 711 448 711 q 584 692 550 712 q 637 640 618 672 q 659 563 655 606 q 655 475 663 520 l 573 0 l 610 0 l 692 475 q 693 578 700 528 q 664 665 687 627 q 599 725 640 703 q 498 747 558 747 q 406 732 450 747 q 326 691 363 717 q 256 631 288 665 q 200 557 224 596 z "},"i":{"ha":815,"x_min":87,"x_max":642,"o":"m 213 734 l 208 697 l 469 697 l 353 37 l 92 37 l 87 0 l 637 0 l 642 37 l 391 37 l 511 734 l 213 734 m 481 943 q 488 909 477 922 q 520 895 498 896 q 556 908 542 894 q 574 942 571 922 q 567 978 578 963 q 534 993 557 993 q 498 979 512 993 q 481 943 484 965 z "},"j":{"ha":815,"x_min":-2,"x_max":631,"o":"m 255 734 l 250 697 l 526 697 l 406 4 q 373 -98 395 -50 q 316 -181 351 -145 q 235 -238 281 -217 q 131 -260 189 -260 q 68 -259 99 -261 q 5 -253 37 -257 l -2 -285 q 65 -294 32 -290 q 134 -296 99 -297 q 251 -271 199 -296 q 342 -205 303 -246 q 406 -110 381 -164 q 442 4 431 -56 l 569 734 l 255 734 m 533 944 q 541 909 530 922 q 574 895 552 895 q 610 909 595 896 q 628 943 625 922 q 621 979 631 964 q 587 994 610 994 q 551 980 566 994 q 533 944 536 966 z "},"k":{"ha":815,"x_min":99,"x_max":753,"o":"m 319 397 l 599 0 l 645 0 l 348 420 l 753 734 l 694 734 l 297 426 l 195 346 l 315 1042 l 278 1042 l 99 0 l 136 0 l 188 301 l 319 397 z "},"l":{"ha":815,"x_min":87,"x_max":642,"o":"m 267 1042 l 261 1005 l 524 1005 l 356 37 l 92 37 l 87 0 l 637 0 l 642 37 l 393 37 l 568 1042 l 267 1042 z "},"m":{"ha":815,"x_min":-14,"x_max":783,"o":"m 146 734 l 113 734 l -14 0 l 19 0 l 113 534 q 142 601 123 569 q 186 657 160 633 q 243 696 211 682 q 313 711 275 711 q 371 699 349 711 q 404 664 393 686 q 415 613 414 642 q 412 556 416 585 l 317 0 l 350 0 l 450 565 q 478 617 458 588 q 527 669 498 646 q 580 699 551 688 q 646 711 610 711 q 705 696 684 711 q 737 657 727 682 q 747 603 747 633 q 742 543 747 572 l 649 0 l 682 0 l 777 543 q 781 617 783 581 q 764 684 779 654 q 721 730 749 712 q 646 747 692 747 q 533 715 584 747 q 448 634 483 684 q 436 680 446 660 q 412 714 427 700 q 370 740 395 731 q 315 747 345 748 q 207 717 253 747 q 127 637 160 687 l 146 734 z "},"n":{"ha":815,"x_min":69,"x_max":697,"o":"m 69 0 l 106 0 l 189 476 q 234 565 203 522 q 308 640 266 607 q 398 691 350 672 q 495 711 447 711 q 582 692 548 712 q 635 640 616 672 q 657 563 653 606 q 653 475 661 520 l 571 0 l 608 0 l 689 475 q 691 577 697 528 q 662 665 685 627 q 598 725 639 703 q 496 747 557 747 q 405 732 448 747 q 325 691 362 717 q 255 631 287 665 q 199 557 224 597 l 233 734 l 195 734 l 69 0 z "},"o":{"ha":815,"x_min":76,"x_max":719,"o":"m 87 381 l 83 353 q 78 265 76 309 q 92 180 81 221 q 124 104 104 140 q 176 43 145 68 q 245 1 205 16 q 336 -14 286 -14 q 474 18 411 -14 q 585 101 536 50 q 664 218 632 153 q 707 353 695 284 l 712 381 q 716 469 719 425 q 703 553 714 513 q 671 630 692 594 q 621 692 650 665 q 550 732 590 718 q 460 747 510 747 q 322 716 385 747 q 212 633 259 684 q 132 515 163 581 q 87 381 100 450 m 119 353 l 125 381 q 166 500 137 441 q 238 606 195 559 q 337 682 281 653 q 460 711 393 711 q 555 689 515 711 q 624 632 596 667 q 674 516 662 585 q 675 381 686 448 l 670 353 q 629 233 658 292 q 558 127 601 174 q 459 52 515 81 q 336 23 403 23 q 223 53 269 23 q 152 131 178 83 q 118 237 125 178 q 119 353 110 296 z "},"p":{"ha":815,"x_min":26,"x_max":692,"o":"m 683 360 l 685 374 q 692 459 691 416 q 685 545 692 503 q 661 623 677 586 q 618 688 645 660 q 554 731 592 715 q 465 747 515 747 q 391 737 427 747 q 324 708 356 726 q 264 665 292 690 q 214 612 236 640 l 237 734 l 201 734 l 26 -282 l 62 -282 l 130 107 q 168 56 145 78 q 218 18 191 33 q 277 -5 245 3 q 340 -14 308 -14 q 433 2 391 -14 q 512 45 476 18 q 575 108 547 72 q 625 186 604 144 q 661 272 646 227 q 683 360 675 317 m 648 374 l 646 360 q 625 281 638 321 q 593 203 612 241 q 550 134 574 166 q 494 77 525 101 q 424 38 463 52 q 341 23 386 23 q 272 33 305 23 q 213 63 239 43 q 167 110 186 82 q 140 174 148 138 l 204 536 q 251 604 224 572 q 312 659 278 635 q 384 697 345 683 q 465 711 422 711 q 544 695 511 711 q 600 655 577 680 q 634 595 621 629 q 652 524 646 562 q 655 448 656 487 q 648 374 654 410 z "},"q":{"ha":815,"x_min":101,"x_max":719,"o":"m 111 374 l 108 360 q 101 276 102 319 q 109 191 101 233 q 132 113 116 150 q 175 47 149 75 q 239 3 201 20 q 328 -14 277 -14 q 398 -5 363 -14 q 465 20 433 4 q 525 58 496 36 q 576 106 553 80 l 507 -282 l 544 -282 l 719 734 l 682 734 l 660 612 q 625 667 646 642 q 577 711 604 692 q 519 738 551 728 q 454 747 488 747 q 360 732 403 747 q 282 690 317 717 q 218 627 246 663 q 169 549 190 591 q 133 463 147 508 q 111 374 119 418 m 146 360 l 149 374 q 169 453 156 413 q 201 530 182 493 q 244 601 220 568 q 301 658 269 633 q 370 696 332 682 q 454 711 408 711 q 525 697 492 711 q 584 661 558 684 q 626 605 609 637 q 649 536 642 573 l 585 173 q 536 112 564 140 q 475 65 508 85 q 403 34 441 45 q 326 23 366 23 q 248 39 281 24 q 193 80 215 54 q 159 139 171 106 q 142 210 146 173 q 138 286 136 248 q 146 360 140 325 z "},"r":{"ha":815,"x_min":186,"x_max":765,"o":"m 671 747 q 566 735 617 747 q 471 699 515 723 q 388 640 426 675 q 319 559 349 605 l 330 606 l 349 734 l 313 734 l 186 0 l 228 0 l 307 469 q 362 572 324 527 q 449 648 399 617 q 556 695 498 680 q 671 711 614 711 q 714 709 692 711 q 757 703 735 706 l 765 736 q 719 744 742 741 q 671 747 695 747 z "},"s":{"ha":815,"x_min":98,"x_max":718,"o":"m 624 180 q 588 107 615 137 q 522 59 560 77 q 441 32 484 40 q 361 23 399 23 q 280 31 320 23 q 208 58 240 39 q 156 108 176 77 q 136 186 136 140 l 99 186 q 121 94 98 132 q 182 32 144 56 q 266 -3 219 7 q 361 -14 313 -14 q 457 -3 407 -14 q 549 31 507 7 q 622 91 592 54 q 661 179 652 127 q 647 271 669 231 q 578 338 624 312 q 502 372 541 360 q 427 393 464 384 q 380 404 406 398 q 330 420 355 410 q 282 441 304 429 q 244 471 260 453 q 222 510 229 488 q 220 564 215 533 q 255 632 229 604 q 317 678 281 661 q 392 703 352 695 q 469 711 433 711 q 548 701 509 711 q 618 670 587 691 q 665 616 648 649 q 679 538 682 583 l 716 538 q 698 632 718 593 q 644 697 678 671 q 563 735 609 723 q 468 747 517 747 q 377 737 424 747 q 290 704 330 726 q 220 646 249 682 q 184 562 191 611 q 186 501 178 528 q 212 454 195 474 q 253 418 229 433 q 305 393 277 404 q 361 375 332 382 q 417 361 391 367 q 488 340 449 353 q 559 309 527 328 q 615 254 597 285 q 624 180 633 224 z "},"t":{"ha":815,"x_min":180,"x_max":690,"o":"m 468 932 l 429 932 l 395 734 l 185 734 l 180 696 l 389 696 l 298 176 q 303 91 292 127 q 341 33 315 56 q 405 -2 367 9 q 488 -14 442 -13 q 542 -13 515 -14 q 595 -6 568 -11 l 593 29 q 539 24 566 26 q 484 23 512 22 q 418 33 448 24 q 368 61 388 42 q 339 108 348 79 q 336 176 330 136 l 427 696 l 684 696 l 690 734 l 433 734 l 468 932 z "},"u":{"ha":815,"x_min":110,"x_max":728,"o":"m 313 -14 q 470 24 399 -14 q 589 131 541 62 l 564 0 l 602 0 l 728 734 l 690 734 l 603 226 q 559 141 589 179 q 490 77 530 104 q 404 37 450 51 q 311 23 358 23 q 224 45 258 24 q 172 100 191 66 q 150 178 154 134 q 154 267 146 222 l 235 734 l 198 734 l 118 268 q 116 163 110 214 q 146 73 122 113 q 210 10 169 34 q 313 -14 252 -14 z "},"v":{"ha":815,"x_min":127,"x_max":781,"o":"m 322 0 l 359 0 l 781 733 l 739 733 l 366 89 l 347 55 l 338 90 l 167 734 l 127 734 l 322 0 z "},"w":{"ha":815,"x_min":106,"x_max":826,"o":"m 144 0 l 178 0 l 410 549 l 456 665 l 458 555 l 503 0 l 536 0 l 826 733 l 787 733 l 582 216 l 528 71 l 520 209 l 482 734 l 448 734 l 233 215 l 172 71 l 170 209 l 144 734 l 106 734 l 144 0 z "},"x":{"ha":815,"x_min":35,"x_max":764,"o":"m 412 409 l 210 734 l 163 734 l 386 378 l 35 0 l 84 0 l 405 344 l 619 0 l 665 0 l 431 374 l 764 732 l 714 733 l 412 409 z "},"y":{"ha":815,"x_min":-22,"x_max":808,"o":"m 346 50 l 153 734 l 111 734 l 319 5 l 248 -115 q 208 -171 230 -144 q 159 -217 185 -197 q 101 -249 132 -237 q 33 -260 69 -260 q 7 -258 20 -260 q -19 -254 -6 -256 l -22 -289 q 8 -294 -7 -292 q 38 -296 22 -296 q 118 -282 81 -296 q 184 -243 154 -267 q 240 -188 215 -220 q 287 -122 266 -157 l 808 733 l 763 733 l 358 71 l 346 50 z "},"z":{"ha":815,"x_min":27,"x_max":737,"o":"m 87 37 l 732 701 l 737 733 l 164 734 l 159 696 l 677 696 l 32 30 l 27 0 l 669 0 l 673 37 l 87 37 z "},"¹":{"ha":815,"x_min":363,"x_max":578,"o":"m 487 451 l 578 987 l 571 987 l 368 922 l 363 886 l 535 939 l 451 451 l 487 451 z "},"²":{"ha":815,"x_min":250,"x_max":652,"o":"m 608 452 l 613 486 l 302 486 l 497 654 q 543 694 519 673 q 589 740 567 715 q 625 791 610 764 q 646 848 641 818 q 642 909 652 882 q 612 956 633 937 q 564 985 592 975 q 504 995 536 995 q 434 983 467 995 q 374 950 401 971 q 329 899 348 928 q 301 834 311 869 l 338 834 q 399 926 357 891 q 505 962 442 962 q 551 954 530 962 q 588 931 573 945 q 609 895 602 916 q 610 848 615 874 q 590 799 604 821 q 558 755 576 776 q 518 717 539 735 q 478 682 497 699 l 255 482 l 250 452 l 608 452 z "},"³":{"ha":815,"x_min":262,"x_max":668,"o":"m 610 679 q 576 706 596 694 q 534 724 557 718 q 577 742 556 732 q 616 768 599 753 q 646 802 633 783 q 662 846 658 821 q 658 908 668 881 q 627 955 648 936 q 576 984 606 974 q 515 994 547 994 q 448 984 479 994 q 391 954 416 973 q 347 908 366 935 q 318 847 328 881 l 355 847 q 416 930 374 900 q 516 961 458 961 q 563 953 541 961 q 602 931 585 945 q 624 896 617 917 q 626 848 631 876 q 603 800 620 820 q 562 767 585 780 q 511 748 538 754 q 458 741 484 741 l 413 741 l 408 707 l 457 707 q 510 701 483 707 q 558 682 537 695 q 589 648 578 669 q 594 594 600 627 q 572 543 589 565 q 534 507 556 521 q 483 484 511 492 q 429 477 456 477 q 376 485 400 477 q 334 509 351 493 q 307 546 317 524 q 299 599 298 569 l 263 599 q 275 533 262 562 q 310 484 288 504 q 363 454 332 465 q 430 444 394 444 q 497 454 464 444 q 559 484 531 465 q 606 531 587 503 q 631 595 625 559 q 629 642 635 621 q 610 679 623 663 z "},"ª":{"ha":815,"x_min":241,"x_max":657,"o":"m 574 477 l 613 478 q 610 540 610 509 q 616 601 611 571 q 634 707 628 672 q 652 814 640 743 q 651 885 657 851 q 626 945 644 919 q 578 986 608 970 q 508 1001 549 1001 q 434 991 469 1001 q 369 961 398 981 q 318 911 339 941 q 286 844 296 882 l 323 844 q 351 898 333 875 q 394 936 370 920 q 448 958 418 951 q 509 964 477 965 q 564 951 541 964 q 600 918 587 939 q 616 871 612 898 q 615 814 620 844 l 606 768 l 488 768 q 410 759 450 767 q 336 732 370 750 q 277 683 301 713 q 246 610 253 654 q 251 549 241 576 q 283 505 262 523 q 334 478 304 487 q 395 469 363 469 q 495 496 449 470 q 576 562 541 522 q 572 519 572 540 q 574 477 572 499 m 395 506 q 348 512 370 506 q 309 532 325 519 q 285 565 292 545 q 283 613 277 585 q 311 671 290 648 q 362 707 333 694 q 425 725 391 720 q 489 731 458 730 l 602 731 l 580 614 q 546 570 566 590 q 502 536 526 551 q 450 514 477 522 q 395 506 422 507 z "},"º":{"ha":815,"x_min":248,"x_max":675,"o":"m 267 774 l 254 694 q 255 611 248 652 q 283 538 262 570 q 338 487 304 507 q 419 468 372 468 q 507 487 467 468 q 577 538 547 506 q 627 610 607 569 q 656 694 648 650 l 669 774 q 668 857 675 817 q 640 930 661 898 q 585 981 619 962 q 504 1001 551 1001 q 416 982 456 1001 q 346 931 376 962 q 295 858 315 899 q 267 774 275 817 m 290 694 l 304 774 q 329 845 311 810 q 372 906 346 879 q 430 948 397 932 q 504 964 464 964 q 571 947 544 964 q 614 904 599 930 q 634 843 630 877 q 633 774 639 808 l 618 694 q 594 624 611 658 q 551 563 576 589 q 492 520 526 536 q 419 505 459 505 q 351 521 378 505 q 308 564 323 537 q 288 625 292 591 q 290 694 284 659 z "},"½":{"ha":815,"x_min":117,"x_max":736,"o":"m 250 507 l 332 989 l 325 989 l 142 930 l 138 899 l 292 946 l 217 507 l 250 507 m 697 0 l 702 30 l 422 30 l 597 181 q 638 218 616 199 q 680 258 660 237 q 712 304 699 280 q 732 357 726 329 q 728 412 736 387 q 701 453 720 436 q 657 479 683 470 q 604 488 632 488 q 540 478 570 488 q 487 448 511 467 q 446 402 463 429 q 421 344 429 376 l 454 344 q 475 389 463 368 q 505 424 488 409 q 550 449 525 440 q 604 458 574 458 q 646 451 627 458 q 679 431 665 444 q 697 399 692 418 q 699 356 703 380 q 681 312 694 332 q 652 273 669 291 q 616 238 635 254 q 580 207 597 222 l 379 27 l 375 0 l 697 0 m 149 95 l 633 865 l 601 886 l 117 117 l 149 95 z "},"¼":{"ha":815,"x_min":134,"x_max":715,"o":"m 245 509 l 327 992 l 320 992 l 138 933 l 134 901 l 288 949 l 212 509 l 245 509 m 629 155 l 684 481 l 647 481 l 344 144 l 341 125 l 591 125 l 570 0 l 602 0 l 623 125 l 711 125 l 715 155 l 629 155 m 390 155 l 614 399 l 646 439 l 596 155 l 390 155 m 165 95 l 650 865 l 617 886 l 134 117 l 165 95 z "},"¾":{"ha":815,"x_min":85,"x_max":731,"o":"m 644 155 l 700 482 l 663 481 l 359 144 l 357 126 l 607 125 l 585 1 l 618 1 l 639 125 l 726 125 l 731 155 l 644 155 m 406 155 l 630 400 l 662 439 l 612 155 l 406 155 m 221 764 l 217 734 l 261 734 q 309 729 284 734 q 351 712 333 724 q 380 681 370 701 q 384 633 390 662 q 365 587 379 606 q 330 553 350 567 q 284 534 309 541 q 235 527 260 527 q 188 534 210 527 q 150 555 165 542 q 126 590 134 569 q 119 637 117 610 l 86 637 q 97 577 85 604 q 128 534 109 551 q 176 507 149 516 q 237 498 204 498 q 297 507 267 498 q 353 533 328 516 q 395 576 378 551 q 417 633 412 601 q 415 675 420 656 q 398 709 410 694 q 368 733 386 723 q 330 750 351 744 q 369 766 350 757 q 404 789 389 776 q 431 820 420 802 q 445 860 441 838 q 442 916 451 891 q 414 958 433 941 q 368 984 395 975 q 313 993 341 993 q 253 983 281 993 q 201 957 224 974 q 161 916 178 940 q 136 861 144 891 l 169 861 q 224 936 186 908 q 314 963 262 963 q 356 956 336 963 q 391 936 376 949 q 411 905 405 923 q 413 862 418 886 q 392 818 408 836 q 355 789 376 800 q 310 771 334 777 q 262 764 286 765 l 221 764 m 216 90 l 700 859 l 667 881 l 184 111 l 216 90 z "},"Æ":{"ha":815,"x_min":-20,"x_max":831,"o":"m 686 0 l 691 37 l 409 37 l 477 496 l 714 496 l 719 533 l 482 533 l 545 951 l 826 951 l 831 987 l 509 987 l -20 0 l 18 0 l 172 288 l 414 288 l 371 0 l 686 0 m 191 324 l 507 915 l 419 324 l 191 324 z "},"æ":{"ha":815,"x_min":-9,"x_max":795,"o":"m 518 -14 q 576 -5 549 -14 q 628 17 604 3 q 669 46 649 29 q 706 81 688 62 l 690 111 q 653 78 673 94 q 612 50 633 62 q 567 31 591 38 q 518 24 544 24 q 437 47 467 24 q 393 108 407 71 q 378 188 379 144 q 384 271 377 231 l 405 391 l 770 391 l 789 488 q 793 577 795 532 q 774 661 790 623 q 723 723 757 699 q 636 747 690 747 q 520 708 572 747 q 434 608 468 669 q 395 711 434 675 q 288 747 356 747 q 210 734 246 747 q 146 696 174 720 q 99 638 118 672 q 73 564 80 605 l 109 564 q 131 624 115 597 q 171 671 147 651 q 224 700 195 690 q 288 710 254 711 q 349 698 325 710 q 385 665 372 686 q 399 616 397 644 q 396 556 401 588 l 374 427 l 240 427 q 149 407 191 426 q 77 355 108 387 q 24 281 45 323 q -3 193 4 239 q -4 119 -9 155 q 18 53 1 82 q 64 5 35 23 q 136 -14 93 -14 q 201 -2 170 -14 q 260 28 233 9 q 310 72 287 47 q 351 125 332 97 q 370 72 357 96 q 401 30 382 47 q 452 -2 422 9 q 518 -14 481 -14 m 636 711 q 707 689 682 711 q 745 635 733 668 q 758 564 757 603 q 753 491 758 526 l 743 429 l 409 429 l 411 437 q 438 528 421 480 q 481 616 454 576 q 545 684 507 657 q 636 711 583 711 m 135 22 q 77 37 100 22 q 43 77 55 52 q 30 131 32 101 q 33 190 27 161 q 58 265 40 229 q 103 328 76 300 q 164 372 130 355 q 241 390 199 389 l 367 390 l 326 153 q 292 104 312 127 q 248 62 272 80 q 195 33 223 44 q 135 22 166 22 z "},"Œ":{"ha":815,"x_min":35,"x_max":886,"o":"m 715 0 l 721 37 l 403 37 l 481 490 l 757 490 l 762 526 l 488 526 l 562 951 l 880 951 l 886 987 l 561 987 q 487 992 524 989 q 414 994 451 996 q 320 975 363 992 q 244 928 278 957 q 182 859 210 898 q 136 777 155 820 q 102 687 115 733 q 80 597 88 641 l 45 391 q 36 306 38 351 q 40 218 35 261 q 59 134 45 174 q 98 63 73 94 q 160 13 123 32 q 249 -7 197 -6 q 323 -5 286 -9 q 396 0 359 -2 l 715 0 m 249 29 q 170 49 202 31 q 117 96 138 67 q 86 161 97 124 q 73 237 76 197 q 73 316 70 276 q 81 391 75 356 l 117 598 q 150 720 128 658 q 208 835 172 783 q 295 920 243 886 q 415 958 346 954 q 473 958 444 959 q 531 955 503 958 l 368 32 q 308 28 338 29 q 249 29 279 28 z "},"œ":{"ha":815,"x_min":-19,"x_max":823,"o":"m 278 747 q 202 733 237 747 q 140 694 168 718 q 90 636 112 669 q 52 568 68 604 q 25 494 36 532 q 7 422 14 456 l -12 312 q -18 244 -16 280 q -15 172 -19 208 q 0 102 -11 135 q 32 43 12 68 q 82 2 52 17 q 155 -14 113 -14 q 233 3 197 -14 q 296 45 268 19 q 346 105 324 72 q 385 175 368 139 q 398 106 387 140 q 429 46 409 73 q 476 3 448 20 q 545 -14 505 -13 q 597 -7 572 -14 q 646 11 623 -1 q 692 37 670 22 q 734 68 714 52 l 720 98 q 680 70 700 84 q 638 46 660 56 q 593 29 616 35 q 545 24 570 23 q 488 38 511 24 q 450 75 465 52 q 427 125 435 97 q 417 184 419 154 q 416 244 414 215 q 422 298 418 274 l 437 378 l 798 378 l 817 475 q 822 534 821 503 q 819 596 823 566 q 805 654 815 627 q 777 702 795 681 q 732 735 759 723 q 669 747 705 747 q 592 730 627 747 q 531 686 558 713 q 483 625 504 659 q 446 557 462 591 q 432 628 443 594 q 401 689 421 663 q 350 731 380 715 q 278 747 319 747 m 25 312 l 44 422 q 59 484 50 451 q 83 549 69 517 q 116 610 97 581 q 159 662 135 640 q 213 697 184 684 q 279 711 243 711 q 340 696 315 711 q 380 659 365 682 q 404 605 396 635 q 414 543 411 574 q 413 479 416 511 q 407 422 411 448 l 387 312 q 372 250 382 282 q 349 185 363 217 q 316 123 335 153 q 274 72 298 94 q 220 36 250 50 q 154 23 190 23 q 92 37 117 23 q 52 75 67 52 q 28 129 36 98 q 18 191 20 159 q 19 255 16 223 q 25 312 21 286 m 441 414 l 443 424 q 458 484 449 452 q 481 548 468 516 q 513 609 495 580 q 553 661 530 639 q 605 697 576 684 q 669 711 634 711 q 721 699 700 711 q 757 668 743 687 q 778 623 770 648 q 787 572 785 598 q 787 518 789 545 q 781 469 785 492 l 771 414 l 441 414 z "},"ð":{"ha":815,"x_min":39,"x_max":726,"o":"m 668 660 q 634 774 657 719 q 574 882 611 830 l 726 957 l 710 991 l 547 910 q 435 1002 496 964 q 306 1069 374 1040 l 288 1036 q 409 976 351 1010 q 513 892 466 941 l 354 813 l 370 779 l 540 863 q 621 705 597 790 q 640 526 645 619 q 598 579 623 557 q 544 617 573 602 q 480 639 514 632 q 412 646 447 646 q 279 620 340 646 q 170 549 218 594 q 91 444 123 505 q 49 315 60 384 q 50 197 39 256 q 91 92 61 138 q 170 16 121 45 q 285 -14 218 -14 q 381 2 336 -14 q 465 43 427 17 q 536 105 504 70 q 592 183 568 141 q 633 271 616 225 q 658 363 650 317 l 667 417 q 678 540 677 479 q 668 660 679 601 m 449 77 q 374 39 414 53 q 288 26 334 26 q 187 52 229 26 q 120 119 145 77 q 86 212 94 161 q 87 315 77 264 q 126 429 98 376 q 197 522 155 482 q 294 584 239 562 q 412 607 349 607 q 484 598 448 607 q 550 571 519 589 q 604 526 581 553 q 637 463 627 498 l 631 418 l 621 363 q 597 281 612 321 q 561 203 583 240 q 511 133 539 165 q 449 77 483 100 z "},"Þ":{"ha":815,"x_min":71,"x_max":744,"o":"m 277 987 l 241 987 l 71 0 l 107 0 l 146 227 l 393 227 q 511 247 454 228 q 614 302 568 267 q 692 387 660 337 q 734 500 724 437 q 728 613 744 562 q 677 699 711 663 q 591 754 642 734 q 481 775 540 774 l 241 775 l 277 987 m 235 739 l 481 739 q 576 720 532 737 q 650 671 621 703 q 693 596 680 640 q 696 499 707 553 q 657 402 686 445 q 587 328 628 359 q 495 281 546 298 q 392 263 445 264 l 152 263 l 235 739 z "},"þ":{"ha":815,"x_min":26,"x_max":693,"o":"m 475 17 q 521 48 499 30 q 562 87 543 66 q 598 136 581 110 q 628 189 614 161 q 662 274 648 230 q 683 360 675 318 l 685 374 q 692 457 691 414 q 687 541 693 500 q 666 620 681 583 q 627 686 652 657 q 564 731 601 714 q 477 747 528 747 q 401 737 438 747 q 330 708 363 726 q 267 664 296 690 q 213 609 237 639 l 290 1042 l 254 1042 l 26 -282 l 62 -282 l 131 109 q 171 56 147 79 q 225 18 195 33 q 287 -6 254 2 q 354 -14 320 -14 q 418 -5 388 -14 q 475 17 449 3 m 354 23 q 282 33 317 23 q 219 62 248 43 q 169 110 190 81 q 140 175 149 138 l 203 534 q 253 604 224 572 q 318 660 282 636 q 394 697 353 684 q 479 711 435 711 q 555 694 524 710 q 607 653 586 679 q 638 592 627 627 q 654 521 650 558 q 655 446 657 484 q 648 374 653 408 l 645 360 q 626 283 638 323 q 596 207 614 244 q 555 136 578 170 q 502 78 532 103 q 435 38 471 53 q 354 23 398 24 z "},"ĸ":{"ha":815,"x_min":88,"x_max":747,"o":"m 317 361 l 615 0 l 663 0 l 345 386 l 747 732 l 698 733 l 314 409 l 175 291 l 252 734 l 214 734 l 88 0 l 125 0 l 166 238 l 317 361 z "},"ß":{"ha":815,"x_min":73,"x_max":671,"o":"m 109 0 l 243 775 q 270 861 252 819 q 318 935 289 903 q 386 986 347 967 q 474 1004 425 1005 q 531 992 505 1004 q 575 960 557 980 q 602 912 593 939 q 606 854 610 885 q 582 779 600 814 q 545 709 564 744 q 508 639 525 675 q 486 564 491 604 q 491 495 480 526 q 519 436 501 464 q 560 382 538 408 q 600 328 582 356 q 627 269 618 300 q 629 201 636 238 q 601 129 622 161 q 549 73 579 96 q 481 36 518 49 q 404 22 444 22 q 316 36 359 21 q 236 79 273 52 l 216 47 q 307 0 256 14 q 410 -14 357 -15 q 497 2 454 -14 q 574 45 540 18 q 633 111 609 73 q 665 195 657 149 q 661 267 671 234 q 634 328 652 299 q 594 384 616 357 q 553 439 572 411 q 525 496 535 466 q 521 562 515 527 q 546 637 528 602 q 584 707 564 672 q 621 777 604 741 q 645 852 639 812 q 638 928 651 893 q 601 987 626 962 q 541 1027 576 1013 q 467 1041 506 1041 q 366 1019 410 1041 q 290 959 322 996 q 236 874 257 922 q 206 775 216 826 l 73 0 l 109 0 z "},"ə":{"ha":815,"x_min":94,"x_max":725,"o":"m 462 747 q 383 741 422 748 q 309 721 345 734 q 249 691 278 709 q 193 651 220 673 l 210 621 q 328 690 264 667 q 462 711 391 712 q 570 681 525 709 q 643 608 615 652 q 679 506 670 562 q 679 394 688 450 q 673 368 675 376 q 667 341 671 359 l 113 342 l 103 286 q 106 172 94 227 q 149 77 118 118 q 227 11 179 35 q 338 -14 275 -14 q 432 1 387 -14 q 514 41 476 16 q 585 101 553 66 q 642 177 616 136 q 683 262 666 218 q 708 351 700 306 l 715 394 q 713 520 725 457 q 668 633 701 583 q 584 714 635 683 q 462 747 532 746 m 338 22 q 243 44 283 22 q 176 102 202 66 q 140 185 150 138 q 140 283 131 233 l 144 305 l 662 305 q 613 201 643 252 q 543 111 583 151 q 451 47 502 71 q 338 22 399 22 z "},"$":{"ha":815,"x_min":95,"x_max":755,"o":"m 640 233 q 543 81 623 138 q 369 22 463 23 q 192 93 253 20 q 143 277 131 165 l 106 277 q 161 72 95 151 q 354 -14 227 -7 l 333 -141 l 371 -141 l 392 -13 q 578 61 496 -2 q 677 235 661 123 q 669 336 686 292 q 620 413 652 380 q 542 469 587 446 q 450 511 498 493 q 343 562 395 533 q 266 639 292 591 q 248 690 252 662 q 250 754 243 719 q 345 907 267 849 q 518 966 423 966 q 674 887 628 966 q 709 710 720 809 l 746 710 q 707 906 755 821 q 539 1001 659 990 l 560 1128 l 522 1128 l 501 1001 q 312 927 395 993 q 213 753 229 862 q 220 650 204 694 q 270 574 237 607 q 347 518 302 542 q 439 476 392 495 q 520 439 480 460 q 590 390 560 418 q 635 323 620 361 q 640 233 650 285 z "},"¢":{"ha":815,"x_min":104,"x_max":705,"o":"m 348 23 q 268 37 302 23 q 210 76 234 52 q 170 132 185 100 q 149 201 155 164 q 141 276 141 237 q 148 353 142 315 l 153 381 q 175 461 161 421 q 210 538 189 501 q 257 606 230 574 q 317 661 283 637 q 388 697 349 684 q 473 711 427 711 q 558 694 521 711 q 621 648 596 677 q 658 578 646 618 q 667 492 669 538 l 703 492 q 693 586 705 542 q 655 663 681 629 q 591 719 629 697 q 504 745 553 740 l 529 894 l 491 894 l 466 747 q 333 713 392 746 q 229 629 273 681 q 157 512 185 577 q 116 381 128 448 l 111 353 q 105 269 104 311 q 115 186 106 226 q 141 111 124 146 q 186 50 159 76 q 250 6 213 22 q 334 -13 286 -11 l 308 -166 l 346 -166 l 372 -13 q 468 10 422 -9 q 551 59 513 28 q 614 131 587 90 q 655 222 641 172 l 618 222 q 577 140 604 177 q 517 78 551 104 q 439 37 481 52 q 348 23 396 23 z "},"£":{"ha":815,"x_min":35,"x_max":783,"o":"m 284 452 l 527 452 l 532 489 l 289 489 l 321 705 q 350 799 329 753 q 403 882 370 846 q 478 941 435 919 q 574 964 521 964 q 658 946 624 964 q 713 897 692 928 q 740 824 733 865 q 741 739 747 783 l 777 739 q 773 838 783 791 q 739 922 764 886 q 672 980 713 958 q 573 1001 631 1001 q 463 975 512 1001 q 377 908 414 949 q 316 813 340 866 q 283 705 292 760 l 253 489 l 115 489 l 111 452 l 248 452 l 215 228 q 205 173 211 201 q 188 120 199 145 q 159 73 176 94 q 117 37 142 51 l 39 37 l 35 0 l 667 0 l 671 37 l 172 36 q 227 125 210 77 q 252 228 244 174 l 284 452 z "},"¥":{"ha":815,"x_min":60,"x_max":862,"o":"m 817 987 l 436 500 l 414 466 l 411 466 l 402 500 l 190 988 l 148 988 l 378 458 l 100 458 l 94 421 l 389 421 l 359 258 l 64 258 l 60 221 l 353 221 l 316 0 l 353 0 l 391 221 l 688 221 l 692 258 l 397 258 l 425 418 l 425 421 l 722 421 l 727 458 l 452 458 l 862 986 l 817 987 z "},"ƒ":{"ha":815,"x_min":-3,"x_max":823,"o":"m 709 696 l 714 734 l 472 734 l 488 838 q 517 913 496 880 q 570 970 538 947 q 638 1006 600 994 q 718 1019 676 1019 q 765 1017 741 1020 q 812 1010 789 1015 l 823 1044 q 770 1053 797 1050 q 717 1056 744 1056 q 622 1040 667 1055 q 543 997 577 1025 q 483 929 507 969 q 450 838 459 888 l 433 734 l 273 734 l 268 696 l 426 696 l 309 -60 q 282 -139 300 -102 q 235 -201 263 -175 q 170 -244 207 -229 q 89 -260 133 -259 q 49 -257 68 -260 q 10 -248 30 -254 l -3 -282 q 42 -292 20 -288 q 88 -296 65 -296 q 184 -278 140 -296 q 262 -228 228 -260 q 317 -153 295 -196 q 347 -60 338 -110 l 467 696 l 709 696 z "},"₣":{"ha":815,"x_min":-87,"x_max":796,"o":"m 649 486 l 654 524 l 206 524 l 281 951 l 791 951 l 796 987 l 252 987 l 81 0 l 116 0 l 200 486 l 649 486 m 300 212 l 306 249 l -81 249 l -87 212 l 300 212 z "},"₤":{"ha":815,"x_min":26,"x_max":777,"o":"m 496 328 l 501 366 l 264 366 l 284 502 l 526 502 l 532 540 l 290 540 l 314 705 q 342 799 322 753 q 395 882 363 846 q 470 941 427 919 q 566 964 513 964 q 650 946 616 964 q 705 897 685 928 q 732 824 726 865 q 734 739 739 783 l 770 739 q 767 839 777 791 q 731 922 757 886 q 664 980 705 958 q 566 1001 623 1001 q 455 975 505 1001 q 370 908 406 949 q 309 813 332 866 q 277 705 286 760 l 253 540 l 121 540 l 115 502 l 248 502 l 228 366 l 90 366 l 85 328 l 222 328 l 208 228 q 197 173 204 201 q 180 120 191 145 q 151 73 168 94 q 109 37 134 51 l 32 37 l 26 0 l 660 0 l 664 37 l 165 36 q 219 125 202 77 q 245 228 237 174 l 259 328 l 496 328 z "},"₧":{"ha":815,"x_min":39,"x_max":825,"o":"m 821 696 l 825 734 l 700 734 l 733 932 l 699 932 l 664 734 l 574 734 q 567 830 578 785 q 530 909 556 875 q 464 965 505 944 q 370 987 424 986 l 210 987 l 39 0 l 73 0 l 144 410 l 277 410 q 388 436 338 412 q 474 500 437 460 q 535 590 511 538 q 572 696 560 641 l 658 696 l 567 176 q 562 114 563 147 q 568 54 560 81 q 596 6 576 25 q 655 -14 616 -13 q 686 -12 671 -14 q 715 -5 701 -9 l 715 29 q 685 25 701 27 q 655 24 670 22 q 614 42 627 25 q 597 82 601 58 q 597 131 594 105 q 604 176 600 156 l 693 696 l 821 696 m 150 447 l 237 951 l 371 951 q 458 926 423 949 q 513 869 494 904 q 533 815 526 844 q 539 755 539 786 q 538 727 539 741 q 534 698 536 712 q 503 605 524 649 q 448 526 481 560 q 372 470 415 491 q 277 447 329 449 l 150 447 z "},"¤":{"ha":815,"x_min":-5,"x_max":846,"o":"m 597 102 l 675 -18 l 703 7 l 621 134 q 705 264 671 194 q 751 412 738 335 q 754 558 763 485 q 714 697 746 631 l 846 829 l 823 858 l 692 729 q 604 809 656 781 q 488 837 552 837 q 358 806 418 837 q 248 730 297 775 l 166 857 l 138 832 l 222 701 q 134 566 170 639 q 85 412 98 492 q 81 270 73 341 q 119 133 90 199 l -5 10 l 18 -18 l 138 102 q 228 17 175 47 q 348 -14 281 -14 q 483 19 421 -14 q 597 102 545 52 m 122 412 q 146 502 130 456 q 187 591 163 547 q 243 672 212 633 q 313 739 275 710 q 395 784 351 768 q 489 801 439 801 q 576 783 538 801 q 642 735 614 765 q 686 666 669 705 q 712 583 703 627 q 721 496 721 540 q 714 412 721 452 q 690 323 706 369 q 649 234 673 277 q 593 152 625 191 q 523 85 561 114 q 440 39 485 56 q 347 22 396 22 q 260 40 298 22 q 195 89 222 58 q 150 158 168 119 q 124 241 133 197 q 115 329 115 284 q 122 412 115 373 z "},"!":{"ha":815,"x_min":291,"x_max":508,"o":"m 385 272 l 508 987 l 471 987 l 348 272 l 385 272 m 292 35 q 294 19 291 26 q 301 6 296 12 q 312 -1 306 2 q 325 -4 318 -4 q 339 -1 332 -4 q 353 7 347 2 q 363 19 359 12 q 368 32 367 25 q 367 48 370 40 q 358 61 363 56 q 347 68 353 66 q 334 71 341 71 q 320 68 328 71 q 308 60 313 64 q 297 48 302 54 q 292 35 293 41 z "},"¡":{"ha":815,"x_min":278,"x_max":496,"o":"m 401 472 l 278 -243 l 315 -243 l 438 472 l 401 472 m 494 709 q 486 736 496 724 q 461 748 475 747 q 434 737 447 748 q 418 712 420 726 q 426 685 416 697 q 451 673 437 673 q 478 684 464 673 q 494 709 492 695 z "},"?":{"ha":815,"x_min":224,"x_max":725,"o":"m 351 272 l 388 271 q 434 385 401 335 q 517 473 466 434 q 585 530 552 500 q 645 595 618 560 q 691 668 672 629 q 717 753 709 707 q 714 848 725 803 q 678 927 704 893 q 611 981 652 961 q 517 1001 570 1001 q 415 982 463 1001 q 329 931 367 964 q 264 853 291 898 q 224 758 237 809 l 262 758 q 298 840 274 802 q 355 906 321 878 q 429 949 387 934 q 518 965 470 965 q 597 948 564 965 q 652 903 631 931 q 680 835 673 873 q 680 754 688 797 q 655 678 673 713 q 613 612 637 643 q 559 554 589 582 q 498 502 530 527 q 404 400 441 455 q 351 272 368 345 m 293 35 q 301 8 290 20 q 326 -4 311 -3 q 353 7 339 -4 q 370 32 367 18 q 361 59 372 47 q 336 71 351 71 q 308 59 321 71 q 293 35 294 47 z "},"¿":{"ha":815,"x_min":91,"x_max":565,"o":"m 450 471 l 414 471 q 400 419 408 444 q 380 374 391 395 q 353 336 368 354 q 317 302 338 319 q 244 237 279 271 q 179 165 208 203 q 128 83 149 127 q 99 -10 107 40 q 100 -104 91 -60 q 135 -183 110 -149 q 200 -238 160 -218 q 292 -258 239 -258 q 392 -239 347 -258 q 471 -186 437 -220 q 530 -109 506 -153 q 565 -15 553 -65 l 528 -15 q 496 -95 517 -57 q 445 -161 475 -132 q 377 -206 415 -189 q 292 -222 338 -222 q 213 -205 246 -222 q 161 -159 180 -188 q 134 -92 140 -130 q 136 -12 128 -54 q 163 74 144 35 q 210 148 183 113 q 270 213 237 182 q 336 273 302 244 q 379 316 361 294 q 412 362 397 338 q 435 413 425 386 q 450 471 444 439 m 433 711 q 441 684 431 696 q 466 671 452 672 q 492 683 479 671 q 508 708 505 694 q 500 734 510 722 q 476 747 490 746 q 448 735 462 747 q 433 711 435 724 z "},",":{"ha":815,"x_min":176,"x_max":316,"o":"m 301 18 l 316 108 l 279 108 l 264 17 q 232 -72 254 -32 q 176 -150 209 -113 l 199 -173 q 234 -133 218 -154 q 262 -90 250 -113 q 286 -38 276 -65 q 301 18 296 -11 z "},".":{"ha":815,"x_min":320,"x_max":404,"o":"m 323 37 q 330 9 320 22 q 356 -4 340 -3 q 385 8 371 -4 q 401 34 399 20 q 394 62 404 49 q 367 76 383 76 q 338 63 351 76 q 323 37 324 50 z "},":":{"ha":815,"x_min":358,"x_max":545,"o":"m 361 37 q 368 9 358 22 q 394 -4 378 -3 q 423 8 409 -4 q 439 34 437 20 q 432 62 442 49 q 405 76 421 76 q 376 63 389 76 q 361 37 362 50 m 464 631 q 471 603 461 616 q 497 590 481 591 q 526 602 512 590 q 543 628 540 614 q 535 656 545 643 q 508 670 524 670 q 479 657 492 670 q 464 631 465 644 z "},";":{"ha":815,"x_min":277,"x_max":546,"o":"m 465 631 q 472 603 462 616 q 498 590 482 591 q 527 602 513 590 q 543 628 541 614 q 535 656 546 643 q 509 670 525 670 q 479 657 493 670 q 465 631 466 644 m 402 18 l 417 108 l 380 108 l 365 17 q 333 -72 355 -32 q 277 -150 310 -113 l 300 -173 q 335 -133 319 -154 q 363 -90 351 -113 q 387 -38 377 -65 q 402 18 397 -11 z "},"…":{"ha":815,"x_min":100,"x_max":618,"o":"m 103 37 q 111 9 100 22 q 136 -4 121 -3 q 165 8 151 -4 q 182 34 179 20 q 174 62 184 49 q 147 76 163 76 q 118 63 132 76 q 103 37 104 50 m 323 37 q 330 9 320 22 q 356 -4 340 -3 q 385 8 371 -4 q 401 34 399 20 q 394 62 404 49 q 367 76 383 76 q 338 63 351 76 q 323 37 324 50 m 537 37 q 545 9 534 22 q 570 -4 555 -3 q 599 8 585 -4 q 616 34 613 20 q 608 62 618 49 q 581 76 597 76 q 552 63 566 76 q 537 37 538 50 z "},"·":{"ha":815,"x_min":382,"x_max":460,"o":"m 384 480 q 392 454 382 466 q 416 441 401 442 q 442 453 429 441 q 458 477 456 464 q 450 504 460 492 q 425 517 440 516 q 398 505 411 517 q 384 480 385 493 z "},"•":{"ha":815,"x_min":304,"x_max":532,"o":"m 309 497 l 306 477 q 310 435 304 454 q 328 401 315 415 q 359 378 340 386 q 401 370 377 370 q 445 378 425 370 q 483 401 466 387 q 511 435 499 415 q 527 477 522 454 l 530 497 q 527 539 532 519 q 508 574 521 559 q 476 597 495 589 q 435 606 458 606 q 390 597 411 606 q 353 574 370 589 q 326 539 337 559 q 309 497 314 519 z "},"_":{"ha":815,"x_min":50,"x_max":612,"o":"m 607 -37 l 612 0 l 54 0 l 50 -37 l 607 -37 z "},"-":{"ha":815,"x_min":163,"x_max":641,"o":"m 636 433 l 641 470 l 168 470 l 163 433 l 636 433 z "},"–":{"ha":815,"x_min":72,"x_max":793,"o":"m 787 489 l 793 526 l 79 526 l 72 489 l 787 489 z "},"—":{"ha":815,"x_min":78,"x_max":800,"o":"m 793 489 l 800 526 l 85 526 l 78 489 l 793 489 z "},"'":{"ha":815,"x_min":409,"x_max":496,"o":"m 478 924 l 496 1042 l 458 1042 l 441 929 l 409 761 l 443 761 l 478 924 z "},"\"":{"ha":815,"x_min":351,"x_max":603,"o":"m 422 941 l 439 1042 l 398 1042 l 385 946 l 351 761 l 387 761 l 422 941 m 586 941 l 603 1042 l 563 1042 l 549 946 l 515 761 l 551 761 l 586 941 z "},"‘":{"ha":815,"x_min":437,"x_max":572,"o":"m 448 863 l 437 792 l 473 792 l 486 864 q 517 953 495 912 q 572 1031 540 994 l 549 1054 q 513 1012 529 1034 q 484 966 496 990 q 463 917 471 943 q 448 863 454 890 z "},"’":{"ha":815,"x_min":414,"x_max":549,"o":"m 538 972 l 549 1042 l 513 1042 l 500 970 q 469 881 491 922 q 414 804 446 840 l 437 781 q 475 825 458 802 q 505 873 492 848 q 525 921 517 897 q 538 972 533 945 z "},"‚":{"ha":815,"x_min":245,"x_max":385,"o":"m 370 68 l 385 155 l 349 155 l 333 66 q 301 -23 323 18 q 245 -100 278 -63 l 269 -123 q 334 -36 309 -83 q 370 68 360 12 z "},"“":{"ha":815,"x_min":330,"x_max":661,"o":"m 342 863 l 330 792 l 367 792 l 379 864 q 411 953 389 912 q 465 1031 433 994 l 442 1054 q 406 1012 422 1034 q 378 966 390 990 q 356 917 365 943 q 342 863 347 890 m 537 863 l 526 792 l 562 792 l 574 864 q 606 953 584 912 q 661 1031 629 994 l 637 1054 q 602 1012 618 1034 q 573 966 585 990 q 551 917 560 943 q 537 863 543 890 z "},"”":{"ha":815,"x_min":351,"x_max":677,"o":"m 476 972 l 487 1042 l 451 1042 l 438 970 q 406 881 429 922 q 351 804 384 840 l 374 781 q 413 825 395 802 q 443 873 430 848 q 463 921 454 897 q 476 972 471 945 m 666 972 l 677 1042 l 641 1042 l 628 970 q 596 881 618 922 q 541 804 574 840 l 564 781 q 603 825 585 802 q 633 873 620 848 q 652 921 644 897 q 666 972 661 945 z "},"„":{"ha":815,"x_min":165,"x_max":440,"o":"m 289 68 l 303 155 l 267 155 l 252 66 q 219 -22 242 18 q 165 -100 197 -63 l 188 -123 q 253 -35 228 -83 q 289 68 279 12 m 426 68 l 440 155 l 404 155 l 388 66 q 356 -22 378 18 q 302 -100 334 -63 l 324 -123 q 364 -77 347 -102 q 395 -26 382 -53 q 414 19 406 -5 q 426 68 421 43 z "},"′":{"ha":815,"x_min":409,"x_max":496,"o":"m 478 924 l 496 1042 l 458 1042 l 441 929 l 409 761 l 443 761 l 478 924 z "},"″":{"ha":815,"x_min":351,"x_max":603,"o":"m 422 941 l 439 1042 l 398 1042 l 385 946 l 351 761 l 387 761 l 422 941 m 586 941 l 603 1042 l 563 1042 l 549 946 l 515 761 l 551 761 l 586 941 z "},"(":{"ha":815,"x_min":244,"x_max":656,"o":"m 265 397 l 263 384 q 249 263 254 326 q 246 135 244 199 q 257 6 248 70 q 288 -117 267 -58 q 343 -227 309 -176 q 428 -318 378 -279 l 444 -290 q 367 -203 398 -252 q 317 -96 336 -153 q 290 22 298 -39 q 281 146 282 84 q 286 269 281 208 q 300 382 292 329 l 302 400 q 345 588 317 492 q 414 773 372 684 q 516 939 456 862 q 656 1070 576 1016 l 647 1101 q 541 1017 589 1065 q 454 912 493 968 q 385 792 415 855 q 331 663 354 728 q 292 529 308 596 q 265 397 275 462 z "},")":{"ha":815,"x_min":131,"x_max":543,"o":"m 522 384 l 524 397 q 537 518 532 454 q 541 646 543 581 q 529 775 539 711 q 498 899 519 840 q 443 1009 477 958 q 359 1100 409 1061 l 343 1072 q 420 985 389 1034 q 471 878 452 935 q 497 760 489 821 q 506 636 505 698 q 501 514 507 574 q 488 400 496 454 l 485 382 q 443 195 470 291 q 374 9 416 99 q 271 -157 331 -80 q 131 -288 211 -234 l 140 -319 q 293 -184 229 -264 q 404 -10 358 -104 q 478 185 450 83 q 522 384 507 287 z "},"[":{"ha":815,"x_min":217,"x_max":622,"o":"m 617 1092 l 622 1128 l 427 1128 l 217 -212 l 414 -212 l 418 -175 l 260 -175 l 458 1092 l 617 1092 z "},"]":{"ha":815,"x_min":203,"x_max":607,"o":"m 411 1128 l 406 1092 l 563 1092 l 366 -175 l 208 -175 l 203 -212 l 397 -212 l 607 1128 l 411 1128 z "},"{":{"ha":815,"x_min":217,"x_max":749,"o":"m 530 -298 l 547 -269 q 466 -222 500 -250 q 410 -159 431 -195 q 381 -81 389 -124 q 381 14 374 -37 l 407 180 q 406 252 412 218 q 385 313 401 286 q 341 360 368 340 q 277 390 314 380 q 409 463 358 410 q 473 600 459 517 l 499 768 q 530 864 509 820 q 583 944 552 909 q 658 1007 616 980 q 749 1052 700 1034 l 743 1083 q 639 1035 686 1064 q 556 966 592 1006 q 496 877 519 926 q 462 768 472 827 l 436 600 q 364 468 420 515 q 222 413 308 420 l 217 368 q 291 351 260 364 q 342 313 323 337 q 369 256 362 290 q 371 180 376 222 l 345 14 q 345 -91 337 -42 q 377 -178 353 -139 q 439 -249 401 -218 q 530 -298 477 -279 z "},"}":{"ha":815,"x_min":117,"x_max":650,"o":"m 117 -267 l 125 -299 q 229 -252 182 -281 q 313 -184 276 -223 q 372 -95 349 -144 q 406 14 396 -46 l 432 180 q 504 314 448 266 q 646 368 560 361 l 650 413 q 525 468 566 420 q 497 600 485 515 l 524 768 q 522 879 532 827 q 486 971 513 930 q 426 1035 463 1007 q 340 1082 389 1063 l 326 1053 q 404 1009 370 1036 q 457 949 437 983 q 487 866 479 911 q 487 768 494 820 l 460 600 q 461 529 456 562 q 484 468 467 495 q 527 421 500 441 q 592 391 554 401 q 459 317 510 371 q 395 180 409 264 l 369 14 q 337 -82 359 -39 q 282 -161 315 -126 q 207 -223 249 -196 q 117 -267 165 -250 z "},"‹":{"ha":815,"x_min":278,"x_max":565,"o":"m 326 377 l 565 636 l 516 637 l 280 387 l 278 374 l 431 122 l 476 122 l 326 377 z "},"›":{"ha":815,"x_min":234,"x_max":520,"o":"m 369 638 l 324 638 l 472 376 l 234 117 l 283 117 l 519 367 l 520 380 l 369 638 z "},"+":{"ha":815,"x_min":84,"x_max":747,"o":"m 431 476 l 490 818 l 452 818 l 393 476 l 90 476 l 84 440 l 388 440 l 329 99 l 366 99 l 425 440 l 742 440 l 747 476 l 431 476 z "},"−":{"ha":815,"x_min":125,"x_max":681,"o":"m 676 489 l 681 526 l 131 526 l 125 489 l 676 489 z "},"±":{"ha":815,"x_min":77,"x_max":727,"o":"m 452 546 l 500 859 l 464 859 l 415 546 l 123 546 l 119 509 l 410 509 l 361 196 l 397 196 l 446 509 l 722 509 l 727 546 l 452 546 m 628 -1 l 633 36 l 83 36 l 77 -1 l 628 -1 z "},"×":{"ha":815,"x_min":100,"x_max":728,"o":"m 100 188 l 124 161 l 422 426 l 629 161 l 658 185 l 450 451 l 728 699 l 705 726 l 427 480 l 235 726 l 207 701 l 399 456 l 100 188 z "},"÷":{"ha":815,"x_min":86,"x_max":749,"o":"m 744 465 l 749 500 l 91 500 l 86 465 l 744 465 m 431 733 q 439 707 429 719 q 463 694 449 695 q 490 705 476 694 q 506 730 503 716 q 498 757 508 745 q 473 770 488 769 q 446 758 459 770 q 431 733 433 746 m 340 205 q 348 179 338 191 q 372 167 357 168 q 398 178 385 167 q 414 203 412 189 q 406 229 416 217 q 382 242 396 241 q 355 230 368 242 q 340 205 342 218 z "},"=":{"ha":815,"x_min":96,"x_max":736,"o":"m 731 572 l 736 608 l 149 608 l 144 572 l 731 572 m 684 296 l 688 332 l 101 332 l 96 296 l 684 296 z "},"≠":{"ha":815,"x_min":102,"x_max":742,"o":"m 690 296 l 694 332 l 335 332 l 517 572 l 737 572 l 742 608 l 545 608 l 678 783 l 646 800 l 500 608 l 155 608 l 150 572 l 472 572 l 290 332 l 107 332 l 102 296 l 262 296 l 129 121 l 161 104 l 307 296 l 690 296 z "},"≈":{"ha":815,"x_min":71,"x_max":758,"o":"m 125 568 l 123 524 q 161 559 141 542 q 202 591 180 577 q 248 614 224 606 q 298 625 272 623 q 338 621 319 625 q 376 609 357 616 q 412 592 394 602 q 447 572 429 583 q 513 539 479 554 q 585 526 546 525 q 634 535 611 526 q 680 557 658 543 q 720 588 701 570 q 755 624 739 606 l 758 669 q 721 633 740 651 q 680 601 701 615 q 634 577 658 587 q 583 568 610 568 q 546 572 564 568 q 511 583 528 576 q 477 599 494 590 q 444 617 460 608 q 374 652 410 637 q 297 667 338 667 q 247 657 271 666 q 202 635 223 649 q 161 604 180 622 q 125 568 142 587 m 73 304 l 71 260 q 108 296 88 279 q 149 328 127 314 q 195 351 171 342 q 245 361 219 360 q 286 358 267 362 q 323 346 305 353 q 359 329 342 338 q 394 309 376 319 q 460 276 427 291 q 532 262 493 262 q 582 272 558 263 q 627 294 605 280 q 667 325 648 307 q 703 361 686 342 l 705 404 q 668 368 688 386 q 627 336 648 351 q 581 313 605 322 q 530 303 557 304 q 493 307 511 303 q 458 319 475 311 q 425 334 441 326 q 392 353 408 343 q 357 372 374 363 q 321 388 340 381 q 284 399 303 395 q 245 402 265 403 q 195 393 218 401 q 150 371 171 385 q 109 340 128 357 q 73 304 90 322 z "},"<":{"ha":815,"x_min":112,"x_max":731,"o":"m 112 435 l 638 178 l 644 218 l 188 439 l 163 450 l 193 463 l 726 686 l 731 724 l 117 469 l 112 435 z "},">":{"ha":815,"x_min":85,"x_max":704,"o":"m 85 180 l 699 437 l 704 471 l 178 727 l 173 687 l 620 468 l 648 454 l 609 438 l 92 220 l 85 180 z "},"≤":{"ha":815,"x_min":94,"x_max":797,"o":"m 229 533 l 265 546 l 791 745 l 797 779 l 182 549 l 178 519 l 704 288 l 710 323 l 262 519 l 229 533 m 644 54 l 649 90 l 99 90 l 94 54 l 644 54 z "},"≥":{"ha":815,"x_min":101,"x_max":772,"o":"m 717 549 l 675 533 l 160 338 l 153 302 l 768 534 l 772 564 l 246 795 l 241 759 l 682 565 l 717 549 m 652 52 l 656 89 l 106 89 l 101 52 l 652 52 z "},"¬":{"ha":815,"x_min":149,"x_max":675,"o":"m 635 269 l 675 511 l 153 511 l 149 475 l 634 475 l 599 269 l 635 269 z "},"/":{"ha":815,"x_min":116,"x_max":741,"o":"m 157 -84 l 741 987 l 701 987 l 116 -84 l 157 -84 z "},"∕":{"ha":815,"x_min":116,"x_max":741,"o":"m 157 -84 l 741 987 l 701 987 l 116 -84 l 157 -84 z "},"\\":{"ha":815,"x_min":286,"x_max":539,"o":"m 286 988 l 501 -85 l 539 -85 l 323 988 l 286 988 z "},"⁄":{"ha":815,"x_min":157,"x_max":673,"o":"m 189 90 l 673 859 l 640 881 l 157 111 l 189 90 z "},"%":{"ha":815,"x_min":83,"x_max":754,"o":"m 96 798 l 87 745 q 87 676 83 712 q 106 611 91 640 q 148 562 121 581 q 215 543 174 543 q 287 561 254 543 q 342 610 319 580 q 382 675 366 639 q 404 745 397 711 l 412 798 q 413 866 417 830 q 395 932 409 903 q 354 982 380 962 q 287 1002 328 1002 q 214 983 247 1002 q 158 935 182 964 q 118 869 134 905 q 96 798 102 833 m 124 745 l 134 798 q 152 855 140 825 q 184 909 164 884 q 229 949 203 933 q 287 964 254 964 q 339 947 319 964 q 368 906 359 930 q 379 852 378 881 q 376 798 380 823 l 366 745 q 349 688 361 718 q 317 635 336 659 q 273 595 298 611 q 215 580 248 580 q 162 596 182 580 q 133 637 142 612 q 121 691 123 662 q 124 745 120 720 m 433 242 l 424 189 q 424 120 419 156 q 443 54 428 84 q 484 5 457 24 q 551 -14 511 -14 q 623 5 591 -14 q 680 53 655 24 q 719 118 703 82 q 741 189 734 155 l 749 242 q 750 311 754 275 q 731 377 746 347 q 690 426 716 407 q 623 446 663 446 q 550 427 583 446 q 494 378 518 408 q 455 313 471 349 q 433 242 439 277 m 460 189 l 471 242 q 489 300 477 271 q 519 354 500 330 q 564 393 538 378 q 623 408 590 408 q 675 392 656 408 q 705 351 695 375 q 716 297 715 326 q 713 242 717 268 l 703 189 q 685 132 697 161 q 654 79 673 102 q 609 39 635 54 q 551 23 583 23 q 498 40 518 23 q 469 81 479 56 q 458 135 459 106 q 460 189 456 163 m 155 90 l 696 859 l 669 881 l 127 111 l 155 90 z "},"‰":{"ha":815,"x_min":85,"x_max":754,"o":"m 309 256 l 296 176 q 292 117 292 150 q 300 55 292 84 q 329 6 309 26 q 385 -14 349 -14 q 423 -6 406 -14 q 454 14 440 1 q 479 43 468 27 q 500 76 490 59 q 510 41 503 58 q 528 13 517 25 q 553 -7 538 0 q 589 -14 568 -14 q 649 5 624 -14 q 692 52 675 24 q 721 114 710 81 q 736 176 731 147 l 750 256 q 754 314 754 281 q 746 376 754 347 q 717 426 737 406 q 661 446 697 446 q 623 438 640 446 q 591 417 605 430 q 564 388 576 404 q 543 355 552 372 q 533 390 539 373 q 517 419 527 406 q 492 438 507 431 q 457 446 477 446 q 397 426 422 446 q 353 378 371 407 q 325 317 336 350 q 309 256 314 284 m 547 256 q 558 303 551 277 q 578 353 566 330 q 611 392 591 376 q 657 408 630 408 q 698 391 685 408 q 715 350 711 374 q 715 299 718 326 q 710 256 713 273 l 695 176 q 684 128 691 155 q 663 79 676 102 q 631 39 650 55 q 585 24 612 24 q 545 41 557 24 q 528 82 532 58 q 527 132 524 106 q 532 176 529 158 l 547 256 m 347 256 q 358 303 351 277 q 378 353 366 330 q 410 392 391 376 q 457 408 429 408 q 498 391 485 408 q 515 350 511 374 q 515 300 518 326 q 510 256 513 274 l 495 176 q 484 128 491 155 q 463 79 476 102 q 431 39 450 55 q 385 24 412 24 q 345 41 357 24 q 328 83 332 58 q 327 132 324 106 q 332 176 329 158 l 347 256 m 146 811 q 158 859 150 832 q 179 909 165 885 q 211 948 192 932 q 257 964 230 964 q 297 946 284 964 q 314 905 310 929 q 315 855 317 881 q 309 811 312 829 l 295 732 q 283 685 291 711 q 262 635 275 659 q 231 596 250 612 q 185 581 212 581 q 145 597 158 581 q 128 639 132 614 q 126 688 124 663 q 132 732 129 714 l 146 811 m 109 811 l 96 732 q 92 673 92 706 q 100 611 92 640 q 129 562 109 582 q 184 543 149 543 q 245 562 220 543 q 288 609 271 581 q 316 670 306 637 q 332 732 327 703 l 346 811 q 350 870 350 837 q 342 932 350 903 q 313 982 333 962 q 257 1002 293 1002 q 197 982 222 1002 q 153 935 171 963 q 125 873 136 906 q 109 811 114 840 m 115 90 l 545 859 l 515 874 l 85 104 l 115 90 z "},"|":{"ha":815,"x_min":295,"x_max":513,"o":"m 332 -183 l 513 987 l 477 987 l 295 -183 l 332 -183 z "},"¦":{"ha":815,"x_min":277,"x_max":515,"o":"m 277 -183 l 313 -183 l 401 327 l 364 327 l 277 -183 m 427 473 l 515 987 l 479 987 l 391 473 l 427 473 z "},"†":{"ha":815,"x_min":123,"x_max":781,"o":"m 776 694 l 781 734 l 478 734 l 517 987 l 481 987 l 441 734 l 128 734 l 123 694 l 435 694 l 328 0 l 363 0 l 472 694 l 776 694 z "},"‡":{"ha":815,"x_min":22,"x_max":787,"o":"m 674 0 l 678 37 l 363 37 l 466 696 l 783 696 l 787 734 l 471 734 l 511 987 l 473 987 l 434 734 l 136 734 l 131 696 l 429 696 l 325 37 l 26 37 l 22 0 l 319 0 l 276 -282 l 313 -282 l 357 0 l 674 0 z "},"©":{"ha":815,"x_min":42,"x_max":767,"o":"m 541 309 l 509 309 q 489 261 500 283 q 460 222 477 239 q 420 197 443 206 q 369 189 398 188 q 314 206 334 189 q 283 248 293 222 q 270 302 272 272 q 273 359 269 332 l 278 392 q 296 451 283 421 q 328 504 308 480 q 373 543 347 528 q 433 557 399 557 q 479 549 460 557 q 510 525 498 540 q 526 488 522 509 q 531 441 531 467 l 563 441 q 560 502 567 474 q 536 551 553 530 q 493 582 519 571 q 432 593 467 593 q 358 575 391 593 q 302 529 326 557 q 262 464 277 500 q 241 391 247 428 l 236 359 q 236 287 232 323 q 256 220 241 250 q 299 170 272 190 q 369 151 327 151 q 433 162 404 151 q 485 196 463 174 q 522 246 507 217 q 541 309 536 275 m 87 374 q 132 503 98 441 q 214 612 165 565 q 327 685 264 658 q 460 713 389 713 q 584 684 530 713 q 672 609 638 656 q 719 500 706 562 q 722 374 732 439 q 677 241 710 304 q 596 130 645 178 q 483 52 547 81 q 347 23 420 23 q 221 53 275 23 q 134 133 168 83 q 88 245 100 182 q 87 374 76 308 m 50 374 q 46 276 42 324 q 66 185 51 228 q 107 105 81 142 q 169 43 133 69 q 249 1 204 16 q 347 -14 294 -14 q 498 18 428 -14 q 623 103 568 50 q 712 226 677 156 q 760 374 748 296 q 762 471 767 423 q 741 559 758 518 q 695 641 722 607 q 630 701 667 675 q 553 737 595 724 q 460 750 510 750 q 358 736 407 750 q 265 697 309 722 q 192 644 224 673 q 127 568 160 614 q 77 477 96 527 q 50 374 58 427 z "},"®":{"ha":815,"x_min":38,"x_max":767,"o":"m 46 366 q 44 260 38 311 q 69 165 50 209 q 106 101 84 130 q 156 49 128 71 q 240 2 193 19 q 345 -14 288 -14 q 455 2 403 -14 q 553 46 507 18 q 620 100 588 69 q 677 165 651 130 q 728 260 707 210 q 756 366 748 311 q 751 508 767 440 q 697 629 736 576 q 597 712 658 681 q 458 743 536 743 q 349 728 401 743 q 252 684 296 712 q 182 630 214 661 q 124 563 149 599 q 74 469 94 519 q 46 366 54 419 m 83 366 q 127 496 94 435 q 210 605 161 558 q 322 679 259 651 q 458 706 386 706 q 583 677 529 706 q 670 602 636 649 q 717 493 704 555 q 719 366 730 431 q 674 235 707 297 q 593 126 642 173 q 480 51 543 79 q 345 23 417 23 q 220 52 274 23 q 132 128 166 81 q 85 237 98 176 q 83 366 73 299 m 307 338 l 418 338 l 489 159 l 527 159 l 452 349 q 489 363 471 354 q 522 385 507 372 q 546 414 536 397 q 559 453 556 431 q 556 505 564 482 q 530 542 547 527 q 488 565 513 557 q 437 574 464 572 l 307 574 l 243 160 l 279 160 l 307 338 m 312 373 l 338 536 l 437 536 q 473 530 456 535 q 503 515 490 526 q 521 490 515 505 q 523 454 527 475 q 508 419 519 433 q 483 395 498 404 q 450 379 468 385 q 413 373 432 374 l 312 373 z "},"™":{"ha":815,"x_min":163,"x_max":809,"o":"m 760 913 l 710 623 l 747 623 l 809 987 l 762 987 l 593 678 l 531 987 l 486 987 l 424 623 l 461 623 l 514 929 l 569 623 l 604 623 l 760 913 m 425 949 l 430 987 l 169 987 l 163 949 l 274 949 l 218 623 l 256 623 l 312 949 l 425 949 z "},"°":{"ha":815,"x_min":319,"x_max":638,"o":"m 324 838 q 327 778 319 807 q 353 727 335 749 q 397 691 370 705 q 456 677 423 677 q 518 691 488 677 q 572 727 549 705 q 612 778 596 749 q 633 838 629 806 q 631 898 638 869 q 606 950 623 927 q 563 987 589 972 q 505 1001 537 1001 q 441 987 472 1001 q 387 951 411 974 q 346 899 362 928 q 324 838 329 870 m 361 838 q 379 885 366 863 q 412 926 393 908 q 455 953 431 943 q 505 963 479 963 q 549 952 530 963 q 581 924 568 941 q 596 884 592 906 q 595 838 600 861 q 578 791 591 814 q 547 753 565 769 q 504 726 528 736 q 456 715 481 715 q 411 726 431 715 q 379 753 391 736 q 361 792 366 770 q 361 838 357 814 z "},"*":{"ha":815,"x_min":194,"x_max":770,"o":"m 441 691 l 233 471 l 263 449 l 467 668 l 614 450 l 648 471 l 496 686 l 770 780 l 759 817 l 494 721 l 541 987 l 500 987 l 457 720 l 211 810 l 194 774 l 441 691 z "},"#":{"ha":815,"x_min":18,"x_max":826,"o":"m 471 278 l 375 0 l 413 0 l 511 278 l 704 278 l 709 313 l 523 313 l 648 669 l 821 669 l 826 705 l 661 705 l 758 987 l 720 987 l 621 705 l 383 705 l 481 987 l 443 987 l 345 705 l 141 705 l 136 669 l 332 669 l 208 313 l 23 313 l 18 278 l 195 278 l 99 0 l 138 0 l 235 278 l 471 278 m 247 313 l 371 669 l 608 669 l 483 313 l 247 313 z "},"&":{"ha":815,"x_min":65,"x_max":742,"o":"m 81 239 q 135 56 65 126 q 313 -14 205 -14 q 464 26 394 -14 q 593 118 534 66 l 669 0 l 711 0 l 616 146 q 698 278 667 208 q 742 429 729 349 l 705 429 q 663 297 690 360 q 593 178 635 235 l 363 538 l 472 623 q 565 709 519 661 q 620 823 610 758 q 589 947 631 893 q 473 1002 548 1002 q 326 938 385 1002 q 255 791 267 874 q 253 726 250 758 q 266 663 256 694 q 289 603 275 632 q 318 545 302 573 l 281 517 q 215 460 248 491 q 155 395 182 430 q 107 321 127 361 q 81 239 87 282 m 313 23 q 161 83 220 23 q 118 239 102 144 q 142 313 124 278 q 186 380 161 349 q 242 439 212 412 q 302 490 272 467 l 336 517 l 571 149 q 453 59 517 94 q 313 23 389 23 m 292 793 q 353 912 304 859 q 474 965 401 965 q 562 920 532 964 q 582 823 591 877 q 533 725 571 768 q 454 651 496 683 l 345 567 q 318 620 330 593 q 299 675 307 647 q 289 733 291 704 q 292 793 287 763 z "},"@":{"ha":815,"x_min":28,"x_max":813,"o":"m 791 517 q 808 734 813 619 q 747 918 804 848 q 671 976 718 954 q 555 997 624 997 q 420 975 482 997 q 305 914 357 953 q 210 824 252 876 q 135 712 167 772 q 80 587 102 652 q 45 459 57 523 q 30 341 33 399 q 37 231 28 283 q 69 135 47 179 q 128 58 91 90 q 218 8 165 26 q 342 -9 271 -10 q 449 7 395 -9 q 547 50 502 22 l 536 82 q 443 44 492 60 q 345 28 395 28 q 232 44 279 27 q 151 92 184 61 q 99 163 118 121 q 72 252 79 204 q 67 353 64 300 q 81 459 70 406 q 115 574 94 515 q 168 689 136 633 q 237 793 198 745 q 326 879 277 842 q 431 937 374 916 q 553 958 488 958 q 656 938 614 958 q 722 883 698 918 q 771 715 767 817 q 753 517 775 612 q 742 465 749 495 q 725 403 735 435 q 700 339 714 370 q 668 282 686 307 q 625 242 649 257 q 572 227 602 227 q 524 256 536 227 q 517 326 512 286 q 522 359 519 343 q 528 388 525 376 l 620 729 q 576 770 604 751 q 513 791 548 790 q 438 778 472 792 q 376 739 404 764 q 325 682 348 715 q 286 613 302 649 q 255 541 268 577 q 235 471 243 504 q 224 423 230 452 q 217 363 219 394 q 217 300 215 332 q 231 245 220 269 q 261 204 241 220 q 313 189 281 189 q 368 203 342 189 q 415 238 393 217 q 454 284 436 259 q 486 331 471 309 q 500 229 477 269 q 570 189 524 189 q 635 205 606 189 q 687 250 664 222 q 726 312 709 277 q 756 383 743 347 q 777 455 768 420 q 791 517 785 490 m 271 471 q 290 531 279 499 q 315 595 300 563 q 350 656 330 627 q 393 707 369 685 q 446 742 417 730 q 511 754 475 755 q 552 742 535 753 q 584 714 568 732 l 502 429 q 484 390 494 412 q 460 346 473 368 q 394 262 432 300 q 312 226 355 224 q 273 241 287 227 q 254 279 259 256 q 249 329 248 301 q 254 384 250 357 q 262 434 257 410 q 271 471 268 457 z "},"§":{"ha":815,"x_min":-5,"x_max":771,"o":"m 706 292 q 705 367 713 334 q 675 424 696 399 q 626 468 655 449 q 564 500 597 486 q 497 525 532 515 q 431 545 463 536 q 384 561 408 552 q 336 579 359 569 q 303 596 319 587 q 271 616 286 605 q 221 679 238 642 q 214 768 203 715 q 254 856 224 819 q 326 918 284 893 q 415 954 367 942 q 512 964 464 965 q 611 944 568 964 q 682 890 654 924 q 722 809 710 856 q 728 709 734 763 l 764 709 q 757 826 771 772 q 711 918 743 880 q 628 979 678 958 q 511 1001 577 1001 q 447 996 479 1001 q 385 982 415 991 q 300 944 340 968 q 233 887 261 921 q 197 831 212 862 q 177 766 182 801 q 177 699 171 729 q 200 643 184 668 q 241 597 216 617 q 297 561 266 576 q 222 539 258 553 q 156 502 186 524 q 106 448 127 479 q 79 374 86 416 q 81 298 72 332 q 110 239 90 265 q 159 194 130 213 q 221 159 188 174 q 290 133 254 144 q 357 113 325 121 q 411 96 383 105 q 465 75 439 87 q 514 45 492 62 q 551 8 536 29 q 572 -41 566 -14 q 571 -102 578 -68 q 531 -190 561 -153 q 460 -252 501 -227 q 370 -288 418 -276 q 275 -299 321 -299 q 169 -281 216 -299 q 92 -229 123 -263 q 46 -149 60 -196 q 39 -42 33 -101 l 3 -43 q 12 -164 -5 -111 q 65 -256 29 -218 q 155 -315 102 -294 q 275 -336 208 -336 q 385 -321 330 -336 q 487 -278 441 -307 q 567 -205 534 -249 q 609 -101 600 -161 q 607 -30 615 -62 q 580 28 599 2 q 533 74 561 54 q 473 110 506 94 q 551 129 512 116 q 621 163 589 142 q 676 217 653 185 q 706 292 699 248 m 416 519 q 475 502 444 511 q 538 479 507 492 q 596 449 568 466 q 642 410 623 432 q 669 357 661 387 q 669 290 677 328 q 632 217 659 246 q 568 170 604 188 q 489 143 531 152 q 408 133 447 135 q 388 139 395 137 q 368 146 381 142 q 308 164 340 154 q 246 186 277 174 q 188 216 215 199 q 142 255 161 233 q 116 307 123 277 q 116 375 108 336 q 148 447 125 417 q 204 496 172 477 q 275 526 237 515 q 352 540 313 536 q 384 529 368 534 q 416 519 400 524 z "},"¶":{"ha":815,"x_min":201,"x_max":710,"o":"m 503 0 l 539 0 l 710 987 l 588 987 q 455 962 518 986 q 342 897 392 939 q 258 798 292 855 q 213 670 224 740 q 217 544 201 602 q 270 444 233 486 q 362 378 307 402 q 485 353 417 354 l 564 353 l 503 0 z "},"^":{"ha":815,"x_min":178,"x_max":646,"o":"m 178 448 l 218 448 l 448 850 l 498 936 l 517 849 l 606 446 l 646 446 l 521 987 l 486 987 l 178 448 z "},"~":{"ha":815,"x_min":32,"x_max":778,"o":"m 778 509 l 740 510 q 719 447 732 477 q 685 391 705 416 q 636 352 664 367 q 570 336 608 337 q 526 344 547 336 q 487 363 505 351 q 452 391 469 376 q 421 423 436 407 q 382 461 403 443 q 340 494 362 480 q 292 517 317 509 q 239 525 267 525 q 159 506 194 524 q 99 459 124 488 q 57 391 73 429 q 32 314 40 353 l 69 314 q 90 378 77 347 q 124 433 104 409 q 173 473 144 458 q 239 488 201 488 q 284 481 263 488 q 323 462 304 474 q 357 434 341 450 q 389 402 374 418 q 428 364 408 382 q 470 332 448 346 q 517 309 492 317 q 570 300 542 300 q 650 319 615 301 q 711 366 685 337 q 753 433 736 395 q 778 509 770 470 z "},"Á":{"ha":815,"x_min":9,"x_max":699,"o":"m 599 295 l 642 0 l 679 0 l 534 987 l 493 987 l 9 0 l 48 0 l 193 295 l 599 295 m 210 332 l 508 935 l 594 332 l 210 332 m 652 1244 l 505 1065 l 546 1065 l 699 1243 l 652 1244 z "},"Ă":{"ha":815,"x_min":9,"x_max":736,"o":"m 599 295 l 642 0 l 679 0 l 534 987 l 493 987 l 9 0 l 48 0 l 193 295 l 599 295 m 210 332 l 508 935 l 594 332 l 210 332 m 736 1227 l 700 1227 q 678 1177 692 1200 q 646 1138 664 1154 q 594 1108 623 1119 q 530 1097 565 1098 q 477 1105 500 1097 q 438 1127 454 1112 q 412 1169 420 1143 q 405 1227 403 1194 l 369 1227 q 378 1159 368 1190 q 410 1106 389 1128 q 461 1072 431 1084 q 530 1059 492 1059 q 604 1072 570 1059 q 664 1106 637 1084 q 709 1159 690 1128 q 736 1227 728 1190 z "},"Â":{"ha":815,"x_min":9,"x_max":701,"o":"m 599 295 l 642 0 l 679 0 l 534 987 l 493 987 l 9 0 l 48 0 l 193 295 l 599 295 m 210 332 l 508 935 l 594 332 l 210 332 m 701 1080 l 572 1245 l 545 1245 l 368 1084 l 367 1074 l 411 1074 l 556 1206 l 655 1073 l 699 1074 l 701 1080 z "},"Ä":{"ha":815,"x_min":9,"x_max":726,"o":"m 599 295 l 642 0 l 679 0 l 534 987 l 493 987 l 9 0 l 48 0 l 193 295 l 599 295 m 210 332 l 508 935 l 594 332 l 210 332 m 357 1181 q 366 1155 356 1167 q 390 1143 376 1143 q 417 1154 404 1143 q 432 1179 430 1166 q 424 1205 433 1192 q 399 1218 414 1218 q 372 1206 385 1218 q 357 1181 359 1194 m 650 1181 q 659 1155 648 1167 q 683 1143 669 1143 q 710 1154 696 1143 q 725 1179 723 1166 q 716 1205 726 1193 q 692 1218 706 1218 q 665 1206 678 1218 q 650 1181 652 1194 z "},"À":{"ha":815,"x_min":9,"x_max":679,"o":"m 599 295 l 642 0 l 679 0 l 534 987 l 493 987 l 9 0 l 48 0 l 193 295 l 599 295 m 210 332 l 508 935 l 594 332 l 210 332 m 557 1063 l 464 1245 l 422 1245 l 519 1063 l 557 1063 z "},"Ā":{"ha":815,"x_min":9,"x_max":749,"o":"m 599 295 l 642 0 l 679 0 l 534 987 l 493 987 l 9 0 l 48 0 l 193 295 l 599 295 m 210 332 l 508 935 l 594 332 l 210 332 m 745 1175 l 749 1211 l 336 1211 l 332 1175 l 745 1175 z "},"Ą":{"ha":815,"x_min":9,"x_max":679,"o":"m 521 -167 q 542 -114 525 -138 q 583 -70 559 -90 q 631 -33 606 -50 q 677 0 656 -15 l 678 0 l 679 0 l 534 987 l 493 987 l 9 0 l 48 0 l 193 295 l 599 295 l 641 7 q 592 -26 618 -8 q 544 -65 566 -44 q 505 -112 522 -87 q 485 -167 489 -137 q 487 -207 481 -189 q 505 -239 492 -226 q 534 -260 516 -252 q 574 -268 551 -268 q 620 -259 598 -268 q 663 -239 642 -251 l 656 -205 q 617 -224 637 -216 q 574 -231 597 -232 q 531 -212 546 -229 q 521 -167 517 -195 m 210 332 l 508 935 l 594 332 l 210 332 z "},"Å":{"ha":815,"x_min":9,"x_max":679,"o":"m 599 295 l 642 0 l 679 0 l 534 987 l 493 987 l 9 0 l 48 0 l 193 295 l 599 295 m 210 332 l 508 935 l 594 332 l 210 332 m 435 1154 q 436 1111 431 1132 q 454 1074 441 1090 q 484 1048 466 1058 q 526 1038 503 1038 q 570 1048 549 1038 q 608 1074 591 1058 q 637 1110 625 1089 q 652 1154 648 1131 q 650 1196 655 1175 q 633 1234 645 1217 q 602 1261 621 1251 q 560 1272 583 1272 q 515 1261 536 1272 q 477 1235 494 1251 q 449 1197 460 1219 q 435 1154 438 1176 m 471 1154 q 482 1183 474 1168 q 503 1210 490 1198 q 529 1227 514 1221 q 559 1234 543 1234 q 588 1227 576 1234 q 607 1208 600 1220 q 616 1182 614 1197 q 615 1154 618 1168 q 604 1124 612 1139 q 584 1099 595 1110 q 557 1082 572 1088 q 526 1076 543 1076 q 499 1082 511 1076 q 481 1101 488 1089 q 471 1125 473 1112 q 471 1154 469 1139 z "},"Ǻ":{"ha":815,"x_min":9,"x_max":738,"o":"m 599 295 l 642 0 l 679 0 l 534 987 l 493 987 l 9 0 l 48 0 l 193 295 l 599 295 m 210 332 l 508 935 l 594 332 l 210 332 m 678 1379 l 545 1251 l 591 1251 l 738 1379 l 678 1379 m 446 1122 q 445 1085 442 1102 q 456 1057 448 1069 q 484 1033 467 1041 q 522 1023 501 1024 q 561 1029 542 1023 q 594 1048 579 1036 q 619 1080 609 1061 q 632 1124 629 1099 q 628 1162 634 1145 q 611 1190 623 1179 q 587 1206 601 1200 q 555 1213 572 1213 q 520 1208 537 1214 q 490 1194 503 1203 q 461 1163 473 1181 q 446 1122 449 1145 m 526 1058 q 504 1063 514 1059 q 488 1078 494 1068 q 481 1095 484 1084 q 482 1119 479 1105 q 491 1144 485 1133 q 507 1164 498 1156 q 527 1176 516 1171 q 550 1180 538 1180 q 570 1177 561 1180 q 587 1166 580 1173 q 596 1148 593 1159 q 597 1123 599 1137 q 590 1098 595 1109 q 577 1078 585 1086 q 554 1062 568 1067 q 526 1058 541 1057 z "},"Ã":{"ha":815,"x_min":9,"x_max":756,"o":"m 599 295 l 642 0 l 679 0 l 534 987 l 493 987 l 9 0 l 48 0 l 193 295 l 599 295 m 210 332 l 508 935 l 594 332 l 210 332 m 756 1224 l 719 1224 q 706 1192 714 1208 q 686 1162 697 1176 q 662 1142 675 1150 q 635 1134 649 1134 q 589 1149 609 1134 q 548 1181 569 1164 q 507 1208 528 1196 q 456 1220 486 1220 q 408 1210 429 1220 q 370 1183 387 1200 q 343 1145 354 1166 q 326 1099 332 1123 l 363 1099 q 377 1131 370 1116 q 397 1157 385 1145 q 422 1176 408 1168 q 456 1183 437 1183 q 500 1169 479 1183 q 541 1140 522 1156 q 579 1111 559 1124 q 626 1099 600 1099 q 674 1109 653 1099 q 712 1138 696 1120 q 739 1178 728 1156 q 756 1224 750 1200 z "},"Ǽ":{"ha":815,"x_min":-20,"x_max":831,"o":"m 686 0 l 691 37 l 409 37 l 477 496 l 714 496 l 719 533 l 482 533 l 545 951 l 826 951 l 831 987 l 509 987 l -20 0 l 18 0 l 172 288 l 414 288 l 371 0 l 686 0 m 191 324 l 507 915 l 419 324 l 191 324 m 670 1244 l 522 1065 l 564 1065 l 716 1243 l 670 1244 z "},"Ć":{"ha":815,"x_min":88,"x_max":763,"o":"m 694 302 l 658 302 q 609 198 638 248 q 540 109 580 147 q 449 46 500 69 q 336 23 398 22 q 248 43 285 24 q 187 93 212 62 q 148 164 162 124 q 129 249 134 205 q 124 337 123 293 q 132 420 126 381 l 159 569 q 182 658 167 612 q 218 748 197 704 q 269 830 240 791 q 333 899 297 869 q 412 946 369 929 q 505 964 455 964 q 608 941 566 965 q 676 879 650 918 q 714 789 702 840 q 726 686 726 739 l 761 686 q 749 804 763 747 q 703 905 734 861 q 622 975 671 949 q 505 1001 572 1002 q 402 981 450 1000 q 315 930 354 962 q 243 856 275 898 q 187 765 211 813 q 146 666 163 717 q 121 568 130 616 l 96 420 q 89 327 90 376 q 96 229 88 277 q 121 137 104 181 q 168 60 138 94 q 238 7 196 27 q 336 -14 279 -13 q 463 12 405 -14 q 566 82 521 38 q 644 183 612 126 q 694 302 677 240 m 646 1258 l 498 1080 l 540 1079 l 692 1257 l 646 1258 z "},"Č":{"ha":815,"x_min":88,"x_max":763,"o":"m 694 302 l 658 302 q 609 198 638 248 q 540 109 580 147 q 449 46 500 69 q 336 23 398 22 q 248 43 285 24 q 187 93 212 62 q 148 164 162 124 q 129 249 134 205 q 124 337 123 293 q 132 420 126 381 l 159 569 q 182 658 167 612 q 218 748 197 704 q 269 830 240 791 q 333 899 297 869 q 412 946 369 929 q 505 964 455 964 q 608 941 566 965 q 676 879 650 918 q 714 789 702 840 q 726 686 726 739 l 761 686 q 749 804 763 747 q 703 905 734 861 q 622 975 671 949 q 505 1001 572 1002 q 402 981 450 1000 q 315 930 354 962 q 243 856 275 898 q 187 765 211 813 q 146 666 163 717 q 121 568 130 616 l 96 420 q 89 327 90 376 q 96 229 88 277 q 121 137 104 181 q 168 60 138 94 q 238 7 196 27 q 336 -14 279 -13 q 463 12 405 -14 q 566 82 521 38 q 644 183 612 126 q 694 302 677 240 m 526 1116 l 425 1263 l 387 1262 l 387 1255 l 505 1084 l 545 1084 l 715 1253 l 715 1261 l 679 1261 l 526 1116 z "},"Ç":{"ha":815,"x_min":88,"x_max":763,"o":"m 694 302 l 658 302 q 609 198 638 248 q 540 109 580 147 q 449 46 500 69 q 336 23 398 22 q 248 43 285 24 q 187 93 212 62 q 148 164 162 124 q 129 249 134 205 q 124 337 123 293 q 132 420 126 381 l 159 569 q 182 658 167 612 q 218 748 197 704 q 269 830 240 791 q 333 899 297 869 q 412 946 369 929 q 505 964 455 964 q 608 941 566 965 q 676 879 650 918 q 714 789 702 840 q 726 686 726 739 l 761 686 q 749 804 763 747 q 703 905 734 861 q 622 975 671 949 q 505 1001 572 1002 q 402 981 450 1000 q 315 930 354 962 q 243 856 275 898 q 187 765 211 813 q 146 666 163 717 q 121 568 130 616 l 96 420 q 89 327 90 376 q 96 229 88 277 q 121 137 104 181 q 168 60 138 94 q 238 7 196 27 q 336 -14 279 -13 q 463 12 405 -14 q 566 82 521 38 q 644 183 612 126 q 694 302 677 240 m 347 -6 l 311 -6 l 281 -87 q 321 -94 300 -90 q 360 -107 342 -98 q 387 -132 377 -116 q 391 -172 397 -147 q 366 -218 385 -200 q 323 -246 347 -236 q 270 -262 298 -257 q 218 -268 242 -267 l 218 -301 q 262 -296 239 -300 q 309 -287 286 -293 q 350 -271 330 -281 q 388 -247 371 -261 q 414 -215 404 -233 q 428 -173 425 -197 q 426 -127 432 -147 q 406 -94 419 -108 q 372 -71 392 -80 q 330 -58 353 -62 l 347 -6 z "},"Ĉ":{"ha":815,"x_min":88,"x_max":763,"o":"m 694 302 l 658 302 q 609 198 638 248 q 540 109 580 147 q 449 46 500 69 q 336 23 398 22 q 248 43 285 24 q 187 93 212 62 q 148 164 162 124 q 129 249 134 205 q 124 337 123 293 q 132 420 126 381 l 159 569 q 182 658 167 612 q 218 748 197 704 q 269 830 240 791 q 333 899 297 869 q 412 946 369 929 q 505 964 455 964 q 608 941 566 965 q 676 879 650 918 q 714 789 702 840 q 726 686 726 739 l 761 686 q 749 804 763 747 q 703 905 734 861 q 622 975 671 949 q 505 1001 572 1002 q 402 981 450 1000 q 315 930 354 962 q 243 856 275 898 q 187 765 211 813 q 146 666 163 717 q 121 568 130 616 l 96 420 q 89 327 90 376 q 96 229 88 277 q 121 137 104 181 q 168 60 138 94 q 238 7 196 27 q 336 -14 279 -13 q 463 12 405 -14 q 566 82 521 38 q 644 183 612 126 q 694 302 677 240 m 694 1095 l 566 1259 l 538 1259 l 361 1098 l 361 1088 l 405 1088 l 550 1220 l 649 1087 l 693 1088 l 694 1095 z "},"Ď":{"ha":815,"x_min":60,"x_max":764,"o":"m 60 0 l 305 0 q 414 20 363 1 q 511 68 466 38 q 592 140 555 99 q 659 229 629 181 q 707 329 687 277 q 736 433 726 381 l 756 554 q 762 655 764 604 q 747 753 760 706 q 710 843 734 801 q 652 917 687 885 q 572 967 618 948 q 470 987 527 986 l 232 987 l 60 0 m 261 951 l 470 951 q 562 932 522 949 q 633 885 603 914 q 683 818 663 856 q 714 736 703 779 q 726 646 724 692 q 720 556 727 600 l 699 433 q 671 338 689 386 q 627 248 653 291 q 566 166 600 203 q 492 100 532 128 q 404 55 451 72 q 305 37 357 38 l 102 37 l 261 951 m 483 1101 l 382 1249 l 345 1248 l 344 1240 l 463 1069 l 502 1069 l 672 1238 l 673 1247 l 636 1247 l 483 1101 z "},"Đ":{"ha":815,"x_min":-26,"x_max":774,"o":"m 71 0 l 315 0 q 469 38 398 2 q 593 130 540 74 q 691 271 652 191 q 746 433 731 351 l 766 554 q 772 655 774 604 q 757 753 770 706 q 721 843 744 801 q 663 917 697 885 q 583 967 628 948 q 480 987 537 986 l 242 987 l 161 520 l -20 520 l -26 484 l 155 484 l 71 0 m 361 484 l 367 520 l 197 520 l 271 951 l 480 951 q 572 932 532 949 q 644 885 613 914 q 693 818 673 856 q 724 736 713 779 q 736 646 734 692 q 730 556 737 600 l 709 433 q 659 288 694 360 q 571 160 623 216 q 457 73 522 106 q 315 37 392 39 l 113 37 l 190 484 l 361 484 z "},"É":{"ha":815,"x_min":74,"x_max":788,"o":"m 641 490 l 646 526 l 201 526 l 275 951 l 783 951 l 788 987 l 245 987 l 74 0 l 618 0 l 623 37 l 116 37 l 195 490 l 641 490 m 585 1244 l 437 1065 l 478 1065 l 631 1243 l 585 1244 z "},"Ĕ":{"ha":815,"x_min":74,"x_max":788,"o":"m 641 490 l 646 526 l 201 526 l 275 951 l 783 951 l 788 987 l 245 987 l 74 0 l 618 0 l 623 37 l 116 37 l 195 490 l 641 490 m 744 1227 l 707 1227 q 685 1177 699 1200 q 653 1138 671 1154 q 602 1108 631 1119 q 538 1097 572 1098 q 485 1105 508 1097 q 446 1127 462 1112 q 419 1169 428 1143 q 412 1227 410 1194 l 376 1227 q 386 1159 375 1190 q 417 1106 396 1128 q 469 1072 438 1084 q 538 1059 499 1059 q 611 1072 577 1059 q 671 1106 645 1084 q 716 1159 698 1128 q 744 1227 735 1190 z "},"Ě":{"ha":815,"x_min":74,"x_max":788,"o":"m 641 490 l 646 526 l 201 526 l 275 951 l 783 951 l 788 987 l 245 987 l 74 0 l 618 0 l 623 37 l 116 37 l 195 490 l 641 490 m 512 1101 l 411 1249 l 374 1248 l 373 1240 l 492 1069 l 531 1069 l 701 1238 l 702 1247 l 665 1247 l 512 1101 z "},"Ê":{"ha":815,"x_min":74,"x_max":788,"o":"m 641 490 l 646 526 l 201 526 l 275 951 l 783 951 l 788 987 l 245 987 l 74 0 l 618 0 l 623 37 l 116 37 l 195 490 l 641 490 m 675 1080 l 546 1245 l 519 1245 l 342 1084 l 341 1074 l 385 1074 l 530 1206 l 629 1073 l 673 1074 l 675 1080 z "},"Ë":{"ha":815,"x_min":74,"x_max":788,"o":"m 641 490 l 646 526 l 201 526 l 275 951 l 783 951 l 788 987 l 245 987 l 74 0 l 618 0 l 623 37 l 116 37 l 195 490 l 641 490 m 344 1181 q 352 1155 342 1167 q 376 1143 362 1143 q 403 1154 390 1143 q 418 1179 416 1166 q 410 1205 420 1192 q 385 1218 401 1218 q 359 1206 372 1218 q 344 1181 346 1194 m 637 1181 q 645 1155 635 1167 q 669 1143 655 1143 q 696 1154 683 1143 q 711 1179 709 1166 q 703 1205 713 1193 q 678 1218 692 1218 q 652 1206 665 1218 q 637 1181 639 1194 z "},"Ė":{"ha":815,"x_min":74,"x_max":788,"o":"m 641 490 l 646 526 l 201 526 l 275 951 l 783 951 l 788 987 l 245 987 l 74 0 l 618 0 l 623 37 l 116 37 l 195 490 l 641 490 m 517 1165 q 525 1138 515 1149 q 551 1126 535 1127 q 578 1137 565 1126 q 594 1162 592 1148 q 586 1190 597 1178 q 560 1202 576 1202 q 533 1190 546 1202 q 517 1165 519 1179 z "},"È":{"ha":815,"x_min":74,"x_max":788,"o":"m 641 490 l 646 526 l 201 526 l 275 951 l 783 951 l 788 987 l 245 987 l 74 0 l 618 0 l 623 37 l 116 37 l 195 490 l 641 490 m 604 1063 l 511 1245 l 469 1245 l 567 1063 l 604 1063 z "},"Ē":{"ha":815,"x_min":74,"x_max":788,"o":"m 641 490 l 646 526 l 201 526 l 275 951 l 783 951 l 788 987 l 245 987 l 74 0 l 618 0 l 623 37 l 116 37 l 195 490 l 641 490 m 745 1175 l 749 1211 l 336 1211 l 332 1175 l 745 1175 z "},"Ŋ":{"ha":815,"x_min":57,"x_max":781,"o":"m 781 987 l 747 987 l 589 75 l 259 987 l 227 987 l 57 0 l 91 0 l 250 914 l 577 8 l 565 -60 q 548 -125 559 -90 q 519 -189 537 -159 q 475 -240 501 -220 q 412 -260 448 -260 q 386 -256 398 -260 q 361 -248 373 -252 l 348 -282 q 379 -292 363 -288 q 410 -296 394 -296 q 489 -274 456 -296 q 545 -216 522 -251 q 581 -139 568 -180 q 602 -60 595 -98 l 781 987 z "},"Ę":{"ha":815,"x_min":74,"x_max":788,"o":"m 641 490 l 646 526 l 201 526 l 275 951 l 783 951 l 788 987 l 245 987 l 74 0 l 482 0 q 436 -33 460 -15 q 391 -71 412 -50 q 356 -115 371 -91 q 338 -167 342 -139 q 340 -207 334 -189 q 357 -239 345 -226 q 387 -260 369 -252 q 427 -268 404 -268 q 473 -259 451 -268 q 516 -239 495 -251 l 509 -205 q 470 -224 490 -216 q 427 -231 450 -232 q 384 -212 399 -229 q 374 -167 370 -195 q 395 -114 378 -138 q 435 -70 412 -90 q 484 -33 458 -50 q 532 -1 510 -16 l 534 0 l 618 0 l 623 37 l 116 37 l 195 490 l 641 490 z "},"Ð":{"ha":815,"x_min":-26,"x_max":774,"o":"m 71 0 l 315 0 q 469 38 398 2 q 593 130 540 74 q 691 271 652 191 q 746 433 731 351 l 766 554 q 772 655 774 604 q 757 753 770 706 q 721 843 744 801 q 663 917 697 885 q 583 967 628 948 q 480 987 537 986 l 242 987 l 161 520 l -20 520 l -26 484 l 155 484 l 71 0 m 361 484 l 367 520 l 197 520 l 271 951 l 480 951 q 572 932 532 949 q 644 885 613 914 q 693 818 673 856 q 724 736 713 779 q 736 646 734 692 q 730 556 737 600 l 709 433 q 659 288 694 360 q 571 160 623 216 q 457 73 522 106 q 315 37 392 39 l 113 37 l 190 484 l 361 484 z "},"Ğ":{"ha":815,"x_min":83,"x_max":764,"o":"m 659 106 l 718 448 l 422 448 l 416 410 l 675 410 l 625 123 q 497 45 568 69 q 348 23 425 22 q 258 43 296 24 q 193 92 220 61 q 150 162 166 122 q 127 245 134 201 q 120 334 119 289 q 127 420 121 379 l 156 583 q 180 671 164 626 q 218 758 195 716 q 270 838 241 800 q 336 903 300 876 q 415 947 372 931 q 508 964 458 964 q 602 945 562 964 q 669 892 642 926 q 711 814 696 859 q 728 720 726 770 l 764 720 q 747 829 764 778 q 697 919 730 880 q 616 979 664 957 q 507 1001 568 1001 q 405 983 452 1001 q 317 935 357 965 q 244 863 277 904 q 186 776 212 822 q 144 679 161 729 q 119 582 127 629 l 91 420 q 84 324 83 374 q 94 227 85 274 q 123 135 104 178 q 174 60 143 92 q 249 7 205 26 q 349 -14 292 -13 q 516 15 435 -15 q 659 106 597 44 m 737 1241 l 701 1241 q 679 1191 692 1214 q 646 1152 665 1168 q 595 1123 624 1133 q 531 1112 566 1112 q 478 1119 501 1112 q 439 1141 455 1126 q 412 1183 421 1158 q 406 1242 404 1208 l 370 1242 q 379 1173 368 1204 q 410 1120 389 1142 q 462 1086 431 1098 q 531 1074 492 1074 q 604 1086 570 1074 q 665 1120 638 1098 q 710 1173 691 1142 q 737 1241 728 1204 z "},"Ĝ":{"ha":815,"x_min":83,"x_max":764,"o":"m 659 106 l 718 448 l 422 448 l 416 410 l 675 410 l 625 123 q 497 45 568 69 q 348 23 425 22 q 258 43 296 24 q 193 92 220 61 q 150 162 166 122 q 127 245 134 201 q 120 334 119 289 q 127 420 121 379 l 156 583 q 180 671 164 626 q 218 758 195 716 q 270 838 241 800 q 336 903 300 876 q 415 947 372 931 q 508 964 458 964 q 602 945 562 964 q 669 892 642 926 q 711 814 696 859 q 728 720 726 770 l 764 720 q 747 829 764 778 q 697 919 730 880 q 616 979 664 957 q 507 1001 568 1001 q 405 983 452 1001 q 317 935 357 965 q 244 863 277 904 q 186 776 212 822 q 144 679 161 729 q 119 582 127 629 l 91 420 q 84 324 83 374 q 94 227 85 274 q 123 135 104 178 q 174 60 143 92 q 249 7 205 26 q 349 -14 292 -13 q 516 15 435 -15 q 659 106 597 44 m 701 1095 l 572 1259 l 545 1259 l 368 1098 l 368 1088 l 412 1088 l 557 1220 l 656 1087 l 700 1088 l 701 1095 z "},"Ģ":{"ha":815,"x_min":83,"x_max":764,"o":"m 659 106 l 718 448 l 422 448 l 416 410 l 675 410 l 625 123 q 497 45 568 69 q 348 23 425 22 q 258 43 296 24 q 193 92 220 61 q 150 162 166 122 q 127 245 134 201 q 120 334 119 289 q 127 420 121 379 l 156 583 q 180 671 164 626 q 218 758 195 716 q 270 838 241 800 q 336 903 300 876 q 415 947 372 931 q 508 964 458 964 q 602 945 562 964 q 669 892 642 926 q 711 814 696 859 q 728 720 726 770 l 764 720 q 747 829 764 778 q 697 919 730 880 q 616 979 664 957 q 507 1001 568 1001 q 405 983 452 1001 q 317 935 357 965 q 244 863 277 904 q 186 776 212 822 q 144 679 161 729 q 119 582 127 629 l 91 420 q 84 324 83 374 q 94 227 85 274 q 123 135 104 178 q 174 60 143 92 q 249 7 205 26 q 349 -14 292 -13 q 516 15 435 -15 q 659 106 597 44 m 344 -119 l 353 -66 l 316 -66 l 307 -120 q 280 -194 298 -160 q 237 -260 262 -228 l 260 -283 q 315 -206 294 -247 q 344 -119 336 -165 z "},"Ħ":{"ha":815,"x_min":42,"x_max":842,"o":"m 744 733 l 788 987 l 753 987 l 709 733 l 203 733 l 247 987 l 212 987 l 168 733 l 87 733 l 82 697 l 162 697 l 42 0 l 77 0 l 161 490 l 668 490 l 583 0 l 618 0 l 738 697 l 838 697 l 842 733 l 744 733 m 674 526 l 168 526 l 197 697 l 703 697 l 674 526 z "},"Ĥ":{"ha":815,"x_min":47,"x_max":793,"o":"m 623 0 l 793 987 l 758 987 l 679 526 l 172 526 l 252 987 l 217 987 l 47 0 l 81 0 l 166 490 l 673 490 l 588 0 l 623 0 m 689 1080 l 560 1245 l 533 1245 l 356 1084 l 355 1074 l 399 1074 l 545 1206 l 644 1073 l 688 1074 l 689 1080 z "},"Í":{"ha":815,"x_min":69,"x_max":770,"o":"m 239 987 l 234 949 l 475 949 l 316 37 l 75 37 l 69 0 l 600 0 l 606 37 l 355 37 l 514 949 l 765 949 l 770 987 l 239 987 m 639 1244 l 491 1065 l 532 1065 l 685 1243 l 639 1244 z "},"Ĭ":{"ha":815,"x_min":69,"x_max":770,"o":"m 239 987 l 234 949 l 475 949 l 316 37 l 75 37 l 69 0 l 600 0 l 606 37 l 355 37 l 514 949 l 765 949 l 770 987 l 239 987 m 724 1227 l 687 1227 q 665 1177 679 1200 q 633 1138 651 1154 q 581 1108 610 1119 q 517 1097 552 1098 q 465 1105 488 1097 q 425 1127 441 1112 q 399 1169 408 1143 q 392 1227 390 1194 l 356 1227 q 365 1159 355 1190 q 397 1106 376 1128 q 448 1072 418 1084 q 517 1059 479 1059 q 591 1072 557 1059 q 651 1106 625 1084 q 696 1159 677 1128 q 724 1227 715 1190 z "},"Î":{"ha":815,"x_min":69,"x_max":770,"o":"m 239 987 l 234 949 l 475 949 l 316 37 l 75 37 l 69 0 l 600 0 l 606 37 l 355 37 l 514 949 l 765 949 l 770 987 l 239 987 m 689 1080 l 560 1245 l 533 1245 l 356 1084 l 355 1074 l 399 1074 l 545 1206 l 644 1073 l 688 1074 l 689 1080 z "},"Ï":{"ha":815,"x_min":69,"x_max":770,"o":"m 239 987 l 234 949 l 475 949 l 316 37 l 75 37 l 69 0 l 600 0 l 606 37 l 355 37 l 514 949 l 765 949 l 770 987 l 239 987 m 359 1181 q 368 1155 358 1167 q 392 1143 378 1143 q 419 1154 406 1143 q 434 1179 432 1166 q 426 1205 435 1192 q 401 1218 416 1218 q 374 1206 387 1218 q 359 1181 361 1194 m 652 1181 q 661 1155 650 1167 q 685 1143 671 1143 q 712 1154 699 1143 q 727 1179 725 1166 q 718 1205 728 1193 q 694 1218 708 1218 q 667 1206 680 1218 q 652 1181 654 1194 z "},"İ":{"ha":815,"x_min":69,"x_max":770,"o":"m 239 987 l 234 949 l 475 949 l 316 37 l 75 37 l 69 0 l 600 0 l 606 37 l 355 37 l 514 949 l 765 949 l 770 987 l 239 987 m 494 1165 q 502 1138 492 1149 q 528 1126 512 1127 q 555 1137 542 1126 q 571 1162 569 1148 q 563 1190 574 1178 q 537 1202 553 1202 q 510 1190 523 1202 q 494 1165 496 1179 z "},"Ì":{"ha":815,"x_min":69,"x_max":770,"o":"m 239 987 l 234 949 l 475 949 l 316 37 l 75 37 l 69 0 l 600 0 l 606 37 l 355 37 l 514 949 l 765 949 l 770 987 l 239 987 m 559 1063 l 466 1245 l 424 1245 l 522 1063 l 559 1063 z "},"Ī":{"ha":815,"x_min":69,"x_max":770,"o":"m 239 987 l 234 949 l 475 949 l 316 37 l 75 37 l 69 0 l 600 0 l 606 37 l 355 37 l 514 949 l 765 949 l 770 987 l 239 987 m 747 1175 l 751 1211 l 338 1211 l 334 1175 l 747 1175 z "},"Į":{"ha":815,"x_min":69,"x_max":770,"o":"m 239 987 l 234 949 l 475 949 l 316 37 l 75 37 l 69 0 l 459 0 q 413 -33 437 -15 q 368 -71 389 -50 q 333 -115 348 -91 q 315 -167 319 -139 q 317 -207 311 -189 q 334 -239 322 -226 q 363 -260 346 -252 q 404 -268 381 -268 q 450 -259 428 -268 q 493 -239 472 -251 l 486 -205 q 447 -224 467 -216 q 404 -231 427 -232 q 361 -212 376 -229 q 351 -167 347 -195 q 372 -114 355 -138 q 412 -70 389 -90 q 461 -33 435 -50 q 509 -1 487 -16 l 506 0 l 600 0 l 606 37 l 355 37 l 514 949 l 765 949 l 770 987 l 239 987 z "},"Ĩ":{"ha":815,"x_min":69,"x_max":770,"o":"m 239 987 l 234 949 l 475 949 l 316 37 l 75 37 l 69 0 l 600 0 l 606 37 l 355 37 l 514 949 l 765 949 l 770 987 l 239 987 m 758 1224 l 721 1224 q 708 1192 716 1208 q 688 1162 699 1176 q 664 1142 677 1150 q 637 1134 651 1134 q 591 1149 611 1134 q 550 1181 571 1164 q 509 1208 530 1196 q 458 1220 488 1220 q 410 1210 431 1220 q 372 1183 389 1200 q 345 1145 356 1166 q 328 1099 334 1123 l 366 1099 q 379 1131 372 1116 q 399 1157 387 1145 q 424 1176 410 1168 q 458 1183 439 1183 q 503 1169 481 1183 q 543 1140 524 1156 q 581 1111 561 1124 q 628 1099 602 1099 q 676 1109 655 1099 q 714 1138 698 1120 q 741 1178 730 1156 q 758 1224 752 1200 z "},"Ĵ":{"ha":815,"x_min":54,"x_max":924,"o":"m 723 987 l 604 300 q 566 196 593 245 q 500 108 539 146 q 409 47 460 70 q 301 23 359 24 q 204 42 245 22 q 137 95 163 61 q 100 174 111 128 q 95 272 90 220 l 58 272 q 67 159 54 212 q 112 68 81 107 q 190 8 142 30 q 302 -14 238 -14 q 425 13 368 -13 q 526 82 481 39 q 600 181 570 125 q 642 300 630 238 l 760 987 l 723 987 m 924 1060 l 795 1225 l 768 1225 l 591 1063 l 590 1054 l 634 1054 l 779 1185 l 878 1053 l 922 1053 l 924 1060 z "},"Ķ":{"ha":815,"x_min":81,"x_max":844,"o":"m 347 517 l 661 0 l 704 0 l 374 541 l 844 986 l 792 987 l 355 576 l 188 422 l 286 987 l 250 987 l 81 0 l 115 0 l 180 373 l 347 517 m 313 -44 l 322 8 l 286 8 l 276 -45 q 250 -119 268 -85 q 206 -185 232 -153 l 229 -208 q 284 -131 263 -172 q 313 -44 305 -90 z "},"Ĺ":{"ha":815,"x_min":88,"x_max":637,"o":"m 132 37 l 296 987 l 259 987 l 88 0 l 633 0 l 637 37 l 132 37 m 408 1201 l 260 1023 l 302 1022 l 454 1200 l 408 1201 z "},"Ľ":{"ha":815,"x_min":88,"x_max":637,"o":"m 132 37 l 296 987 l 259 987 l 88 0 l 633 0 l 637 37 l 132 37 m 593 917 l 604 987 l 568 987 l 555 916 q 523 826 545 867 q 468 749 500 785 l 491 726 q 529 770 512 747 q 559 819 547 793 q 579 866 571 842 q 593 917 587 890 z "},"Ļ":{"ha":815,"x_min":88,"x_max":637,"o":"m 132 37 l 296 987 l 259 987 l 88 0 l 633 0 l 637 37 l 132 37 m 298 -112 l 307 -60 l 270 -60 l 260 -113 q 234 -187 252 -153 q 191 -253 216 -221 l 214 -276 q 269 -199 248 -240 q 298 -112 290 -158 z "},"Ŀ":{"ha":815,"x_min":88,"x_max":637,"o":"m 132 37 l 296 987 l 259 987 l 88 0 l 633 0 l 637 37 l 132 37 m 369 515 q 376 488 366 499 q 402 476 387 477 q 430 487 416 476 q 446 512 444 498 q 438 539 448 528 q 412 551 427 551 q 384 540 397 551 q 369 515 371 528 z "},"Ł":{"ha":815,"x_min":45,"x_max":664,"o":"m 246 543 l 323 987 l 286 987 l 207 532 l 50 485 l 45 447 l 200 493 l 115 0 l 659 0 l 664 37 l 159 37 l 239 505 l 466 573 l 471 611 l 246 543 z "},"Ń":{"ha":815,"x_min":48,"x_max":792,"o":"m 623 0 l 792 987 l 757 987 l 598 64 l 251 987 l 218 987 l 48 0 l 83 0 l 241 926 l 589 0 l 623 0 m 627 1244 l 479 1065 l 520 1065 l 673 1243 l 627 1244 z "},"Ň":{"ha":815,"x_min":48,"x_max":792,"o":"m 623 0 l 792 987 l 757 987 l 598 64 l 251 987 l 218 987 l 48 0 l 83 0 l 241 926 l 589 0 l 623 0 m 533 1101 l 432 1249 l 395 1248 l 394 1240 l 513 1069 l 552 1069 l 722 1238 l 723 1247 l 686 1247 l 533 1101 z "},"Ņ":{"ha":815,"x_min":48,"x_max":792,"o":"m 623 0 l 792 987 l 757 987 l 598 64 l 251 987 l 218 987 l 48 0 l 83 0 l 241 926 l 589 0 l 623 0 m 347 -112 l 356 -60 l 319 -60 l 310 -113 q 284 -187 302 -153 q 240 -253 266 -221 l 263 -276 q 318 -199 297 -240 q 347 -112 339 -158 z "},"Ñ":{"ha":815,"x_min":48,"x_max":792,"o":"m 623 0 l 792 987 l 757 987 l 598 64 l 251 987 l 218 987 l 48 0 l 83 0 l 241 926 l 589 0 l 623 0 m 758 1224 l 720 1224 q 707 1192 715 1208 q 687 1162 699 1176 q 663 1142 676 1150 q 636 1134 650 1134 q 590 1149 610 1134 q 549 1181 570 1164 q 508 1208 530 1196 q 457 1220 487 1220 q 409 1210 431 1220 q 372 1183 388 1200 q 345 1145 355 1166 q 328 1099 334 1123 l 365 1099 q 379 1131 371 1116 q 398 1157 387 1145 q 424 1176 409 1168 q 458 1183 438 1183 q 502 1169 481 1183 q 542 1140 523 1156 q 581 1111 560 1124 q 627 1099 601 1099 q 676 1109 654 1099 q 713 1138 697 1120 q 741 1178 730 1156 q 758 1224 751 1200 z "},"Ó":{"ha":815,"x_min":87,"x_max":751,"o":"m 718 420 l 743 568 q 750 661 749 612 q 744 758 751 710 q 719 850 736 806 q 673 928 701 894 q 602 981 644 961 q 504 1001 560 1001 q 400 982 448 1001 q 313 931 353 964 q 241 856 273 899 q 186 765 210 813 q 146 666 162 717 q 121 568 130 615 l 96 420 q 88 327 89 376 q 96 229 87 277 q 121 137 104 181 q 168 60 138 94 q 238 6 197 26 q 336 -14 279 -14 q 439 5 391 -14 q 526 57 487 24 q 597 132 566 89 q 653 222 629 174 q 693 321 677 271 q 718 420 709 372 m 707 569 l 681 420 q 658 330 673 376 q 623 240 644 284 q 572 157 601 196 q 509 87 544 117 q 430 40 473 58 q 336 23 387 23 q 248 42 284 23 q 186 92 211 60 q 148 163 161 123 q 128 248 134 204 q 124 337 123 292 q 132 420 126 381 l 159 569 q 181 658 167 612 q 218 748 196 704 q 268 831 239 791 q 332 900 296 870 q 411 947 368 930 q 504 964 454 964 q 592 946 555 964 q 654 897 629 927 q 692 825 678 865 q 711 741 706 784 q 715 652 717 696 q 707 569 713 608 m 649 1258 l 501 1080 l 543 1079 l 695 1257 l 649 1258 z "},"Ŏ":{"ha":815,"x_min":87,"x_max":751,"o":"m 718 420 l 743 568 q 750 661 749 612 q 744 758 751 710 q 719 850 736 806 q 673 928 701 894 q 602 981 644 961 q 504 1001 560 1001 q 400 982 448 1001 q 313 931 353 964 q 241 856 273 899 q 186 765 210 813 q 146 666 162 717 q 121 568 130 615 l 96 420 q 88 327 89 376 q 96 229 87 277 q 121 137 104 181 q 168 60 138 94 q 238 6 197 26 q 336 -14 279 -14 q 439 5 391 -14 q 526 57 487 24 q 597 132 566 89 q 653 222 629 174 q 693 321 677 271 q 718 420 709 372 m 707 569 l 681 420 q 658 330 673 376 q 623 240 644 284 q 572 157 601 196 q 509 87 544 117 q 430 40 473 58 q 336 23 387 23 q 248 42 284 23 q 186 92 211 60 q 148 163 161 123 q 128 248 134 204 q 124 337 123 292 q 132 420 126 381 l 159 569 q 181 658 167 612 q 218 748 196 704 q 268 831 239 791 q 332 900 296 870 q 411 947 368 930 q 504 964 454 964 q 592 946 555 964 q 654 897 629 927 q 692 825 678 865 q 711 741 706 784 q 715 652 717 696 q 707 569 713 608 m 733 1241 l 696 1241 q 674 1191 688 1214 q 642 1152 661 1168 q 591 1123 620 1133 q 527 1112 562 1112 q 474 1119 497 1112 q 435 1141 451 1126 q 408 1183 417 1158 q 401 1242 399 1208 l 366 1242 q 375 1173 364 1204 q 406 1120 385 1142 q 458 1086 427 1098 q 527 1074 488 1074 q 600 1086 566 1074 q 661 1120 634 1098 q 706 1173 687 1142 q 733 1241 724 1204 z "},"Ô":{"ha":815,"x_min":87,"x_max":751,"o":"m 718 420 l 743 568 q 750 661 749 612 q 744 758 751 710 q 719 850 736 806 q 673 928 701 894 q 602 981 644 961 q 504 1001 560 1001 q 400 982 448 1001 q 313 931 353 964 q 241 856 273 899 q 186 765 210 813 q 146 666 162 717 q 121 568 130 615 l 96 420 q 88 327 89 376 q 96 229 87 277 q 121 137 104 181 q 168 60 138 94 q 238 6 197 26 q 336 -14 279 -14 q 439 5 391 -14 q 526 57 487 24 q 597 132 566 89 q 653 222 629 174 q 693 321 677 271 q 718 420 709 372 m 707 569 l 681 420 q 658 330 673 376 q 623 240 644 284 q 572 157 601 196 q 509 87 544 117 q 430 40 473 58 q 336 23 387 23 q 248 42 284 23 q 186 92 211 60 q 148 163 161 123 q 128 248 134 204 q 124 337 123 292 q 132 420 126 381 l 159 569 q 181 658 167 612 q 218 748 196 704 q 268 831 239 791 q 332 900 296 870 q 411 947 368 930 q 504 964 454 964 q 592 946 555 964 q 654 897 629 927 q 692 825 678 865 q 711 741 706 784 q 715 652 717 696 q 707 569 713 608 m 697 1095 l 568 1259 l 541 1259 l 364 1098 l 363 1088 l 408 1088 l 553 1220 l 652 1087 l 696 1088 l 697 1095 z "},"Ö":{"ha":815,"x_min":87,"x_max":751,"o":"m 718 420 l 743 568 q 750 661 749 612 q 744 758 751 710 q 719 850 736 806 q 673 928 701 894 q 602 981 644 961 q 504 1001 560 1001 q 400 982 448 1001 q 313 931 353 964 q 241 856 273 899 q 186 765 210 813 q 146 666 162 717 q 121 568 130 615 l 96 420 q 88 327 89 376 q 96 229 87 277 q 121 137 104 181 q 168 60 138 94 q 238 6 197 26 q 336 -14 279 -14 q 439 5 391 -14 q 526 57 487 24 q 597 132 566 89 q 653 222 629 174 q 693 321 677 271 q 718 420 709 372 m 707 569 l 681 420 q 658 330 673 376 q 623 240 644 284 q 572 157 601 196 q 509 87 544 117 q 430 40 473 58 q 336 23 387 23 q 248 42 284 23 q 186 92 211 60 q 148 163 161 123 q 128 248 134 204 q 124 337 123 292 q 132 420 126 381 l 159 569 q 181 658 167 612 q 218 748 196 704 q 268 831 239 791 q 332 900 296 870 q 411 947 368 930 q 504 964 454 964 q 592 946 555 964 q 654 897 629 927 q 692 825 678 865 q 711 741 706 784 q 715 652 717 696 q 707 569 713 608 m 354 1195 q 362 1170 353 1181 q 387 1157 372 1158 q 413 1168 400 1157 q 429 1194 427 1180 q 420 1219 430 1206 q 395 1232 411 1232 q 369 1220 382 1232 q 354 1195 356 1208 m 647 1195 q 655 1170 645 1181 q 680 1157 665 1158 q 706 1168 693 1157 q 722 1194 720 1180 q 713 1220 723 1207 q 688 1232 703 1232 q 662 1220 675 1232 q 647 1195 649 1208 z "},"Ò":{"ha":815,"x_min":87,"x_max":751,"o":"m 718 420 l 743 568 q 750 661 749 612 q 744 758 751 710 q 719 850 736 806 q 673 928 701 894 q 602 981 644 961 q 504 1001 560 1001 q 400 982 448 1001 q 313 931 353 964 q 241 856 273 899 q 186 765 210 813 q 146 666 162 717 q 121 568 130 615 l 96 420 q 88 327 89 376 q 96 229 87 277 q 121 137 104 181 q 168 60 138 94 q 238 6 197 26 q 336 -14 279 -14 q 439 5 391 -14 q 526 57 487 24 q 597 132 566 89 q 653 222 629 174 q 693 321 677 271 q 718 420 709 372 m 707 569 l 681 420 q 658 330 673 376 q 623 240 644 284 q 572 157 601 196 q 509 87 544 117 q 430 40 473 58 q 336 23 387 23 q 248 42 284 23 q 186 92 211 60 q 148 163 161 123 q 128 248 134 204 q 124 337 123 292 q 132 420 126 381 l 159 569 q 181 658 167 612 q 218 748 196 704 q 268 831 239 791 q 332 900 296 870 q 411 947 368 930 q 504 964 454 964 q 592 946 555 964 q 654 897 629 927 q 692 825 678 865 q 711 741 706 784 q 715 652 717 696 q 707 569 713 608 m 554 1078 l 461 1259 l 419 1259 l 517 1078 l 554 1078 z "},"Ơ":{"ha":815,"x_min":87,"x_max":922,"o":"m 718 420 l 743 568 q 750 685 751 623 q 733 806 749 748 q 809 836 777 814 q 864 890 842 858 q 900 961 886 921 q 922 1044 914 1000 l 887 1045 q 866 974 878 1008 q 836 912 854 939 q 790 866 817 884 q 722 841 762 847 q 690 904 709 875 q 644 956 671 934 q 582 989 617 977 q 504 1001 547 1001 q 400 982 448 1001 q 313 931 353 964 q 241 856 273 899 q 186 765 210 813 q 146 666 162 717 q 121 568 130 615 l 96 420 q 88 327 89 376 q 96 229 87 277 q 121 137 104 181 q 168 60 138 94 q 238 6 197 26 q 336 -14 279 -14 q 439 5 391 -14 q 526 57 487 24 q 597 132 566 89 q 653 222 629 174 q 693 321 677 271 q 718 420 709 372 m 707 569 l 681 420 q 658 330 673 376 q 623 240 644 284 q 572 157 601 196 q 509 87 544 117 q 430 40 473 58 q 336 23 387 23 q 248 42 284 23 q 186 92 211 60 q 148 163 161 123 q 128 248 134 204 q 124 337 123 292 q 132 420 126 381 l 159 569 q 181 658 167 612 q 218 748 196 704 q 268 831 239 791 q 332 900 296 870 q 411 947 368 930 q 504 964 454 964 q 592 946 555 964 q 654 897 629 927 q 692 825 678 865 q 711 741 706 784 q 715 652 717 696 q 707 569 713 608 z "},"Ő":{"ha":815,"x_min":87,"x_max":823,"o":"m 718 420 l 743 568 q 750 661 749 612 q 744 758 751 710 q 719 850 736 806 q 673 928 701 894 q 602 981 644 961 q 504 1001 560 1001 q 400 982 448 1001 q 313 931 353 964 q 241 856 273 899 q 186 765 210 813 q 146 666 162 717 q 121 568 130 615 l 96 420 q 88 327 89 376 q 96 229 87 277 q 121 137 104 181 q 168 60 138 94 q 238 6 197 26 q 336 -14 279 -14 q 439 5 391 -14 q 526 57 487 24 q 597 132 566 89 q 653 222 629 174 q 693 321 677 271 q 718 420 709 372 m 707 569 l 681 420 q 658 330 673 376 q 623 240 644 284 q 572 157 601 196 q 509 87 544 117 q 430 40 473 58 q 336 23 387 23 q 248 42 284 23 q 186 92 211 60 q 148 163 161 123 q 128 248 134 204 q 124 337 123 292 q 132 420 126 381 l 159 569 q 181 658 167 612 q 218 748 196 704 q 268 831 239 791 q 332 900 296 870 q 411 947 368 930 q 504 964 454 964 q 592 946 555 964 q 654 897 629 927 q 692 825 678 865 q 711 741 706 784 q 715 652 717 696 q 707 569 713 608 m 762 1272 l 540 1067 l 591 1067 l 823 1272 l 762 1272 m 574 1272 l 381 1067 l 430 1067 l 630 1272 l 574 1272 z "},"Ō":{"ha":815,"x_min":87,"x_max":751,"o":"m 718 420 l 743 568 q 750 661 749 612 q 744 758 751 710 q 719 850 736 806 q 673 928 701 894 q 602 981 644 961 q 504 1001 560 1001 q 400 982 448 1001 q 313 931 353 964 q 241 856 273 899 q 186 765 210 813 q 146 666 162 717 q 121 568 130 615 l 96 420 q 88 327 89 376 q 96 229 87 277 q 121 137 104 181 q 168 60 138 94 q 238 6 197 26 q 336 -14 279 -14 q 439 5 391 -14 q 526 57 487 24 q 597 132 566 89 q 653 222 629 174 q 693 321 677 271 q 718 420 709 372 m 707 569 l 681 420 q 658 330 673 376 q 623 240 644 284 q 572 157 601 196 q 509 87 544 117 q 430 40 473 58 q 336 23 387 23 q 248 42 284 23 q 186 92 211 60 q 148 163 161 123 q 128 248 134 204 q 124 337 123 292 q 132 420 126 381 l 159 569 q 181 658 167 612 q 218 748 196 704 q 268 831 239 791 q 332 900 296 870 q 411 947 368 930 q 504 964 454 964 q 592 946 555 964 q 654 897 629 927 q 692 825 678 865 q 711 741 706 784 q 715 652 717 696 q 707 569 713 608 m 741 1190 l 746 1225 l 332 1225 l 328 1190 l 741 1190 z "},"Ø":{"ha":815,"x_min":18,"x_max":851,"o":"m 709 420 l 734 568 q 741 632 739 598 q 741 699 743 665 q 733 767 739 733 q 717 832 728 801 l 851 1013 l 806 1013 l 701 871 q 668 923 687 899 q 623 964 648 947 q 566 991 597 981 q 496 1001 534 1001 q 392 982 439 1001 q 305 931 345 964 q 233 856 265 899 q 178 765 201 813 q 138 666 154 717 q 113 568 121 615 l 87 420 q 80 340 81 382 q 83 257 79 298 q 99 175 88 215 q 130 101 111 135 l 18 -50 l 63 -50 l 151 69 q 224 9 181 31 q 328 -14 267 -14 q 431 5 383 -14 q 518 57 479 24 q 589 132 557 89 q 645 222 621 174 q 685 321 669 271 q 709 420 701 372 m 124 420 l 151 569 q 173 658 159 612 q 210 748 188 704 q 260 831 231 791 q 324 900 288 870 q 402 947 359 930 q 496 964 446 964 q 560 955 532 964 q 611 929 589 945 q 650 889 633 912 q 677 840 666 867 l 153 132 q 129 199 137 163 q 117 274 120 236 q 117 349 115 312 q 124 420 119 387 m 699 569 l 673 420 q 650 330 665 376 q 614 240 635 284 q 564 157 593 196 q 500 87 536 117 q 421 40 465 58 q 328 23 378 23 q 235 43 273 23 q 173 98 197 64 l 692 798 q 707 681 707 742 q 699 569 708 621 z "},"Ǿ":{"ha":815,"x_min":18,"x_max":851,"o":"m 709 420 l 734 568 q 741 632 739 598 q 741 699 743 665 q 733 767 739 733 q 717 832 728 801 l 851 1013 l 806 1013 l 701 871 q 668 923 687 899 q 623 964 648 947 q 566 991 597 981 q 496 1001 534 1001 q 392 982 439 1001 q 305 931 345 964 q 233 856 265 899 q 178 765 201 813 q 138 666 154 717 q 113 568 121 615 l 87 420 q 80 340 81 382 q 83 257 79 298 q 99 175 88 215 q 130 101 111 135 l 18 -50 l 63 -50 l 151 69 q 224 9 181 31 q 328 -14 267 -14 q 431 5 383 -14 q 518 57 479 24 q 589 132 557 89 q 645 222 621 174 q 685 321 669 271 q 709 420 701 372 m 124 420 l 151 569 q 173 658 159 612 q 210 748 188 704 q 260 831 231 791 q 324 900 288 870 q 402 947 359 930 q 496 964 446 964 q 560 955 532 964 q 611 929 589 945 q 650 889 633 912 q 677 840 666 867 l 153 132 q 129 199 137 163 q 117 274 120 236 q 117 349 115 312 q 124 420 119 387 m 699 569 l 673 420 q 650 330 665 376 q 614 240 635 284 q 564 157 593 196 q 500 87 536 117 q 421 40 465 58 q 328 23 378 23 q 235 43 273 23 q 173 98 197 64 l 692 798 q 707 681 707 742 q 699 569 708 621 m 685 1286 l 537 1107 l 578 1107 l 731 1285 l 685 1286 z "},"Õ":{"ha":815,"x_min":87,"x_max":753,"o":"m 718 420 l 743 568 q 750 661 749 612 q 744 758 751 710 q 719 850 736 806 q 673 928 701 894 q 602 981 644 961 q 504 1001 560 1001 q 400 982 448 1001 q 313 931 353 964 q 241 856 273 899 q 186 765 210 813 q 146 666 162 717 q 121 568 130 615 l 96 420 q 88 327 89 376 q 96 229 87 277 q 121 137 104 181 q 168 60 138 94 q 238 6 197 26 q 336 -14 279 -14 q 439 5 391 -14 q 526 57 487 24 q 597 132 566 89 q 653 222 629 174 q 693 321 677 271 q 718 420 709 372 m 707 569 l 681 420 q 658 330 673 376 q 623 240 644 284 q 572 157 601 196 q 509 87 544 117 q 430 40 473 58 q 336 23 387 23 q 248 42 284 23 q 186 92 211 60 q 148 163 161 123 q 128 248 134 204 q 124 337 123 292 q 132 420 126 381 l 159 569 q 181 658 167 612 q 218 748 196 704 q 268 831 239 791 q 332 900 296 870 q 411 947 368 930 q 504 964 454 964 q 592 946 555 964 q 654 897 629 927 q 692 825 678 865 q 711 741 706 784 q 715 652 717 696 q 707 569 713 608 m 753 1238 l 715 1238 q 702 1206 711 1223 q 682 1177 694 1190 q 659 1156 671 1164 q 631 1148 646 1148 q 586 1163 606 1148 q 545 1195 566 1178 q 504 1222 525 1211 q 452 1234 482 1234 q 405 1224 426 1234 q 367 1198 383 1215 q 340 1159 351 1181 q 323 1114 329 1137 l 360 1114 q 374 1145 366 1130 q 393 1171 382 1160 q 419 1190 404 1183 q 453 1197 433 1197 q 497 1183 476 1197 q 537 1154 518 1170 q 576 1125 555 1138 q 623 1113 596 1113 q 671 1124 650 1113 q 709 1152 692 1135 q 736 1192 725 1170 q 753 1238 747 1215 z "},"Ŕ":{"ha":815,"x_min":79,"x_max":760,"o":"m 469 422 l 628 0 l 665 0 l 665 9 l 504 433 q 590 476 549 451 q 664 536 631 502 q 719 610 696 569 q 749 703 741 652 q 745 813 760 762 q 697 903 730 865 q 615 964 664 941 q 507 987 566 986 l 250 987 l 79 0 l 114 0 l 187 422 l 469 422 m 193 459 l 279 951 l 507 951 q 601 930 558 949 q 671 878 643 910 q 711 800 699 844 q 713 703 722 755 q 679 611 703 654 q 619 535 654 568 q 538 481 583 502 q 444 459 494 461 l 193 459 m 608 1244 l 460 1065 l 502 1065 l 654 1243 l 608 1244 z "},"Ř":{"ha":815,"x_min":79,"x_max":760,"o":"m 469 422 l 628 0 l 665 0 l 665 9 l 504 433 q 590 476 549 451 q 664 536 631 502 q 719 610 696 569 q 749 703 741 652 q 745 813 760 762 q 697 903 730 865 q 615 964 664 941 q 507 987 566 986 l 250 987 l 79 0 l 114 0 l 187 422 l 469 422 m 193 459 l 279 951 l 507 951 q 601 930 558 949 q 671 878 643 910 q 711 800 699 844 q 713 703 722 755 q 679 611 703 654 q 619 535 654 568 q 538 481 583 502 q 444 459 494 461 l 193 459 m 488 1101 l 387 1249 l 349 1248 l 349 1240 l 467 1069 l 507 1069 l 677 1238 l 677 1247 l 641 1247 l 488 1101 z "},"Ŗ":{"ha":815,"x_min":79,"x_max":760,"o":"m 469 422 l 628 0 l 665 0 l 665 9 l 504 433 q 590 476 549 451 q 664 536 631 502 q 719 610 696 569 q 749 703 741 652 q 745 813 760 762 q 697 903 730 865 q 615 964 664 941 q 507 987 566 986 l 250 987 l 79 0 l 114 0 l 187 422 l 469 422 m 193 459 l 279 951 l 507 951 q 601 930 558 949 q 671 878 643 910 q 711 800 699 844 q 713 703 722 755 q 679 611 703 654 q 619 535 654 568 q 538 481 583 502 q 444 459 494 461 l 193 459 m 280 -112 l 289 -60 l 252 -60 l 243 -113 q 217 -187 235 -153 q 173 -253 199 -221 l 196 -276 q 251 -199 230 -240 q 280 -112 272 -158 z "},"Ś":{"ha":815,"x_min":75,"x_max":768,"o":"m 660 237 q 622 144 650 184 q 552 77 593 104 q 462 37 511 50 q 363 23 413 23 q 261 39 307 23 q 182 87 214 56 q 131 163 149 118 q 115 265 113 208 l 80 265 q 95 149 75 200 q 154 61 115 97 q 247 5 193 24 q 363 -14 300 -14 q 477 3 421 -14 q 579 52 533 20 q 656 130 625 83 q 697 238 688 177 q 690 334 705 294 q 642 414 676 373 q 556 475 614 446 q 444 522 498 505 q 350 559 399 536 q 269 613 302 582 q 226 677 240 642 q 222 761 212 713 q 260 849 231 810 q 330 913 289 887 q 417 951 370 939 q 512 964 465 964 q 606 945 565 964 q 675 894 647 926 q 716 818 703 861 q 728 723 730 774 l 764 723 q 752 833 768 783 q 703 922 736 884 q 621 980 669 958 q 511 1001 572 1001 q 402 985 457 1001 q 303 938 348 969 q 226 862 258 907 q 185 760 194 817 q 196 656 176 700 q 254 580 216 612 q 338 526 290 548 q 435 487 387 503 q 531 447 483 470 q 614 390 580 425 q 654 324 641 363 q 660 237 668 286 m 646 1258 l 498 1080 l 540 1079 l 692 1257 l 646 1258 z "},"Š":{"ha":815,"x_min":75,"x_max":768,"o":"m 660 237 q 622 144 650 184 q 552 77 593 104 q 462 37 511 50 q 363 23 413 23 q 261 39 307 23 q 182 87 214 56 q 131 163 149 118 q 115 265 113 208 l 80 265 q 95 149 75 200 q 154 61 115 97 q 247 5 193 24 q 363 -14 300 -14 q 477 3 421 -14 q 579 52 533 20 q 656 130 625 83 q 697 238 688 177 q 690 334 705 294 q 642 414 676 373 q 556 475 614 446 q 444 522 498 505 q 350 559 399 536 q 269 613 302 582 q 226 677 240 642 q 222 761 212 713 q 260 849 231 810 q 330 913 289 887 q 417 951 370 939 q 512 964 465 964 q 606 945 565 964 q 675 894 647 926 q 716 818 703 861 q 728 723 730 774 l 764 723 q 752 833 768 783 q 703 922 736 884 q 621 980 669 958 q 511 1001 572 1001 q 402 985 457 1001 q 303 938 348 969 q 226 862 258 907 q 185 760 194 817 q 196 656 176 700 q 254 580 216 612 q 338 526 290 548 q 435 487 387 503 q 531 447 483 470 q 614 390 580 425 q 654 324 641 363 q 660 237 668 286 m 526 1116 l 425 1263 l 387 1262 l 387 1255 l 505 1084 l 545 1084 l 715 1253 l 715 1261 l 679 1261 l 526 1116 z "},"Ş":{"ha":815,"x_min":75,"x_max":768,"o":"m 660 237 q 622 144 650 184 q 552 77 593 104 q 462 37 511 50 q 363 23 413 23 q 261 39 307 23 q 182 87 214 56 q 131 163 149 118 q 115 265 113 208 l 80 265 q 95 149 75 200 q 154 61 115 97 q 247 5 193 24 q 363 -14 300 -14 q 477 3 421 -14 q 579 52 533 20 q 656 130 625 83 q 697 238 688 177 q 690 334 705 294 q 642 414 676 373 q 556 475 614 446 q 444 522 498 505 q 350 559 399 536 q 269 613 302 582 q 226 677 240 642 q 222 761 212 713 q 260 849 231 810 q 330 913 289 887 q 417 951 370 939 q 512 964 465 964 q 606 945 565 964 q 675 894 647 926 q 716 818 703 861 q 728 723 730 774 l 764 723 q 752 833 768 783 q 703 922 736 884 q 621 980 669 958 q 511 1001 572 1001 q 402 985 457 1001 q 303 938 348 969 q 226 862 258 907 q 185 760 194 817 q 196 656 176 700 q 254 580 216 612 q 338 526 290 548 q 435 487 387 503 q 531 447 483 470 q 614 390 580 425 q 654 324 641 363 q 660 237 668 286 m 375 -6 l 339 -6 l 309 -87 q 349 -94 328 -90 q 388 -107 370 -98 q 415 -132 405 -116 q 419 -172 425 -147 q 394 -218 413 -200 q 351 -246 375 -236 q 298 -262 326 -257 q 246 -268 270 -267 l 245 -301 q 290 -296 267 -300 q 336 -287 313 -293 q 378 -271 357 -281 q 416 -247 399 -261 q 442 -215 431 -233 q 456 -173 452 -197 q 453 -127 460 -147 q 433 -94 447 -108 q 400 -71 420 -80 q 357 -58 380 -62 l 375 -6 z "},"Ŝ":{"ha":815,"x_min":75,"x_max":768,"o":"m 660 237 q 622 144 650 184 q 552 77 593 104 q 462 37 511 50 q 363 23 413 23 q 261 39 307 23 q 182 87 214 56 q 131 163 149 118 q 115 265 113 208 l 80 265 q 95 149 75 200 q 154 61 115 97 q 247 5 193 24 q 363 -14 300 -14 q 477 3 421 -14 q 579 52 533 20 q 656 130 625 83 q 697 238 688 177 q 690 334 705 294 q 642 414 676 373 q 556 475 614 446 q 444 522 498 505 q 350 559 399 536 q 269 613 302 582 q 226 677 240 642 q 222 761 212 713 q 260 849 231 810 q 330 913 289 887 q 417 951 370 939 q 512 964 465 964 q 606 945 565 964 q 675 894 647 926 q 716 818 703 861 q 728 723 730 774 l 764 723 q 752 833 768 783 q 703 922 736 884 q 621 980 669 958 q 511 1001 572 1001 q 402 985 457 1001 q 303 938 348 969 q 226 862 258 907 q 185 760 194 817 q 196 656 176 700 q 254 580 216 612 q 338 526 290 548 q 435 487 387 503 q 531 447 483 470 q 614 390 580 425 q 654 324 641 363 q 660 237 668 286 m 694 1095 l 566 1259 l 538 1259 l 361 1098 l 361 1088 l 405 1088 l 550 1220 l 649 1087 l 693 1088 l 694 1095 z "},"Ŧ":{"ha":815,"x_min":168,"x_max":840,"o":"m 656 574 l 662 611 l 460 611 l 519 951 l 834 951 l 840 987 l 174 987 l 168 951 l 484 951 l 425 611 l 229 611 l 224 574 l 418 574 l 318 0 l 355 0 l 454 574 l 656 574 z "},"Ť":{"ha":815,"x_min":168,"x_max":840,"o":"m 834 951 l 840 987 l 174 987 l 168 951 l 484 951 l 318 0 l 355 0 l 519 951 l 834 951 m 524 1096 l 422 1243 l 385 1242 l 385 1235 l 503 1064 l 543 1064 l 713 1233 l 713 1242 l 677 1242 l 524 1096 z "},"Ú":{"ha":815,"x_min":91,"x_max":794,"o":"m 794 987 l 759 987 l 642 318 q 605 210 631 263 q 539 115 578 157 q 448 48 499 74 q 336 23 396 23 q 233 50 275 23 q 167 118 191 76 q 135 213 142 160 q 136 318 127 266 l 251 987 l 216 987 l 100 318 q 101 198 91 258 q 141 92 111 139 q 219 16 170 45 q 336 -14 267 -14 q 463 15 405 -14 q 565 89 521 43 q 638 195 609 135 q 680 318 668 255 l 794 987 m 642 1244 l 494 1065 l 535 1065 l 688 1243 l 642 1244 z "},"Ŭ":{"ha":815,"x_min":91,"x_max":794,"o":"m 794 987 l 759 987 l 642 318 q 605 210 631 263 q 539 115 578 157 q 448 48 499 74 q 336 23 396 23 q 233 50 275 23 q 167 118 191 76 q 135 213 142 160 q 136 318 127 266 l 251 987 l 216 987 l 100 318 q 101 198 91 258 q 141 92 111 139 q 219 16 170 45 q 336 -14 267 -14 q 463 15 405 -14 q 565 89 521 43 q 638 195 609 135 q 680 318 668 255 l 794 987 m 726 1227 l 689 1227 q 667 1177 681 1200 q 635 1138 653 1154 q 583 1108 612 1119 q 519 1097 554 1098 q 467 1105 490 1097 q 427 1127 444 1112 q 401 1169 410 1143 q 394 1227 392 1194 l 358 1227 q 367 1159 357 1190 q 399 1106 378 1128 q 450 1072 420 1084 q 519 1059 481 1059 q 593 1072 559 1059 q 653 1106 627 1084 q 698 1159 680 1128 q 726 1227 717 1190 z "},"Û":{"ha":815,"x_min":91,"x_max":794,"o":"m 794 987 l 759 987 l 642 318 q 605 210 631 263 q 539 115 578 157 q 448 48 499 74 q 336 23 396 23 q 233 50 275 23 q 167 118 191 76 q 135 213 142 160 q 136 318 127 266 l 251 987 l 216 987 l 100 318 q 101 198 91 258 q 141 92 111 139 q 219 16 170 45 q 336 -14 267 -14 q 463 15 405 -14 q 565 89 521 43 q 638 195 609 135 q 680 318 668 255 l 794 987 m 690 1080 l 561 1245 l 534 1245 l 357 1084 l 356 1074 l 400 1074 l 545 1206 l 644 1073 l 688 1074 l 690 1080 z "},"Ü":{"ha":815,"x_min":91,"x_max":794,"o":"m 794 987 l 759 987 l 642 318 q 605 210 631 263 q 539 115 578 157 q 448 48 499 74 q 336 23 396 23 q 233 50 275 23 q 167 118 191 76 q 135 213 142 160 q 136 318 127 266 l 251 987 l 216 987 l 100 318 q 101 198 91 258 q 141 92 111 139 q 219 16 170 45 q 336 -14 267 -14 q 463 15 405 -14 q 565 89 521 43 q 638 195 609 135 q 680 318 668 255 l 794 987 m 347 1181 q 355 1155 345 1167 q 379 1143 365 1143 q 406 1154 393 1143 q 421 1179 419 1166 q 413 1205 422 1192 q 388 1218 404 1218 q 361 1206 374 1218 q 347 1181 349 1194 m 640 1181 q 648 1155 637 1167 q 672 1143 658 1143 q 699 1154 686 1143 q 714 1179 712 1166 q 705 1205 715 1193 q 681 1218 695 1218 q 654 1206 667 1218 q 640 1181 642 1194 z "},"Ù":{"ha":815,"x_min":91,"x_max":794,"o":"m 794 987 l 759 987 l 642 318 q 605 210 631 263 q 539 115 578 157 q 448 48 499 74 q 336 23 396 23 q 233 50 275 23 q 167 118 191 76 q 135 213 142 160 q 136 318 127 266 l 251 987 l 216 987 l 100 318 q 101 198 91 258 q 141 92 111 139 q 219 16 170 45 q 336 -14 267 -14 q 463 15 405 -14 q 565 89 521 43 q 638 195 609 135 q 680 318 668 255 l 794 987 m 565 1063 l 472 1245 l 430 1245 l 528 1063 l 565 1063 z "},"Ư":{"ha":815,"x_min":91,"x_max":964,"o":"m 794 987 l 759 987 l 642 318 q 605 210 631 263 q 539 115 578 157 q 448 48 499 74 q 336 23 396 23 q 233 50 275 23 q 167 118 191 76 q 135 213 142 160 q 136 318 127 266 l 251 987 l 216 987 l 100 318 q 101 198 91 258 q 141 92 111 139 q 219 16 170 45 q 336 -14 267 -14 q 463 15 405 -14 q 565 89 521 43 q 638 195 609 135 q 680 318 668 255 l 764 812 q 844 841 810 820 q 902 894 878 862 q 941 965 926 925 q 964 1051 956 1005 l 928 1052 q 908 982 920 1015 q 878 922 896 949 q 833 877 859 896 q 770 850 807 859 l 794 987 z "},"Ű":{"ha":815,"x_min":91,"x_max":815,"o":"m 794 987 l 759 987 l 642 318 q 605 210 631 263 q 539 115 578 157 q 448 48 499 74 q 336 23 396 23 q 233 50 275 23 q 167 118 191 76 q 135 213 142 160 q 136 318 127 266 l 251 987 l 216 987 l 100 318 q 101 198 91 258 q 141 92 111 139 q 219 16 170 45 q 336 -14 267 -14 q 463 15 405 -14 q 565 89 521 43 q 638 195 609 135 q 680 318 668 255 l 794 987 m 755 1257 l 532 1053 l 584 1053 l 815 1257 l 755 1257 m 566 1257 l 374 1053 l 422 1053 l 623 1257 l 566 1257 z "},"Ū":{"ha":815,"x_min":91,"x_max":794,"o":"m 794 987 l 759 987 l 642 318 q 605 210 631 263 q 539 115 578 157 q 448 48 499 74 q 336 23 396 23 q 233 50 275 23 q 167 118 191 76 q 135 213 142 160 q 136 318 127 266 l 251 987 l 216 987 l 100 318 q 101 198 91 258 q 141 92 111 139 q 219 16 170 45 q 336 -14 267 -14 q 463 15 405 -14 q 565 89 521 43 q 638 195 609 135 q 680 318 668 255 l 794 987 m 734 1175 l 739 1211 l 325 1211 l 321 1175 l 734 1175 z "},"Ų":{"ha":815,"x_min":91,"x_max":794,"o":"m 794 987 l 759 987 l 642 318 q 605 210 631 263 q 539 115 578 157 q 448 48 499 74 q 336 23 396 23 q 233 50 275 23 q 167 118 191 76 q 135 213 142 160 q 136 318 127 266 l 251 987 l 216 987 l 100 318 q 101 198 91 258 q 141 92 111 139 q 219 16 170 45 q 336 -14 267 -14 q 356 -13 346 -14 q 376 -11 367 -12 q 343 -38 359 -24 q 314 -69 327 -53 q 291 -105 300 -86 q 279 -144 282 -123 q 281 -185 276 -166 q 299 -216 287 -203 q 328 -238 311 -230 q 368 -245 346 -245 q 415 -237 393 -245 q 458 -216 437 -229 l 451 -183 q 411 -201 431 -193 q 369 -208 391 -210 q 326 -190 340 -207 q 315 -144 311 -173 q 336 -94 319 -117 q 374 -51 352 -71 q 421 -15 396 -31 q 467 17 446 2 q 514 45 492 29 q 557 81 537 61 q 634 189 602 126 q 680 318 667 251 l 794 987 z "},"Ů":{"ha":815,"x_min":91,"x_max":794,"o":"m 794 987 l 759 987 l 642 318 q 605 210 631 263 q 539 115 578 157 q 448 48 499 74 q 336 23 396 23 q 233 50 275 23 q 167 118 191 76 q 135 213 142 160 q 136 318 127 266 l 251 987 l 216 987 l 100 318 q 101 198 91 258 q 141 92 111 139 q 219 16 170 45 q 336 -14 267 -14 q 463 15 405 -14 q 565 89 521 43 q 638 195 609 135 q 680 318 668 255 l 794 987 m 424 1154 q 426 1111 420 1132 q 443 1074 431 1090 q 473 1048 455 1058 q 515 1038 492 1038 q 559 1048 538 1038 q 597 1074 581 1058 q 626 1110 614 1089 q 641 1154 637 1131 q 639 1196 644 1175 q 622 1234 634 1217 q 591 1261 610 1251 q 549 1272 572 1272 q 505 1261 526 1272 q 467 1235 484 1251 q 438 1197 450 1219 q 424 1154 427 1176 m 460 1154 q 471 1183 463 1168 q 492 1210 479 1198 q 518 1227 503 1221 q 549 1234 532 1234 q 577 1227 565 1234 q 596 1208 589 1220 q 605 1182 603 1197 q 604 1154 607 1168 q 593 1124 601 1139 q 573 1099 585 1110 q 547 1082 562 1088 q 515 1076 532 1076 q 488 1082 500 1076 q 470 1101 477 1089 q 460 1125 463 1112 q 460 1154 458 1139 z "},"Ũ":{"ha":815,"x_min":91,"x_max":794,"o":"m 794 987 l 759 987 l 642 318 q 605 210 631 263 q 539 115 578 157 q 448 48 499 74 q 336 23 396 23 q 233 50 275 23 q 167 118 191 76 q 135 213 142 160 q 136 318 127 266 l 251 987 l 216 987 l 100 318 q 101 198 91 258 q 141 92 111 139 q 219 16 170 45 q 336 -14 267 -14 q 463 15 405 -14 q 565 89 521 43 q 638 195 609 135 q 680 318 668 255 l 794 987 m 745 1224 l 708 1224 q 695 1192 703 1208 q 675 1162 686 1176 q 651 1142 664 1150 q 624 1134 638 1134 q 578 1149 598 1134 q 537 1181 558 1164 q 496 1208 517 1196 q 445 1220 475 1220 q 397 1210 418 1220 q 359 1183 376 1200 q 332 1145 343 1166 q 315 1099 321 1123 l 353 1099 q 367 1131 359 1116 q 386 1157 374 1145 q 411 1176 397 1168 q 446 1183 426 1183 q 490 1169 469 1183 q 530 1140 511 1156 q 568 1111 548 1124 q 615 1099 589 1099 q 664 1109 642 1099 q 701 1138 685 1120 q 728 1178 718 1156 q 745 1224 739 1200 z "},"Ẃ":{"ha":815,"x_min":154,"x_max":863,"o":"m 154 0 l 188 0 l 471 821 l 495 892 l 496 827 l 524 2 l 557 0 l 863 987 l 830 987 l 591 224 l 553 102 l 554 220 l 525 987 l 492 987 l 226 227 l 186 103 l 189 220 l 187 987 l 154 987 l 154 0 m 642 1244 l 494 1065 l 536 1065 l 688 1243 l 642 1244 z "},"Ŵ":{"ha":815,"x_min":154,"x_max":863,"o":"m 154 0 l 188 0 l 471 821 l 495 892 l 496 827 l 524 2 l 557 0 l 863 987 l 830 987 l 591 224 l 553 102 l 554 220 l 525 987 l 492 987 l 226 227 l 186 103 l 189 220 l 187 987 l 154 987 l 154 0 m 690 1080 l 562 1245 l 534 1245 l 357 1084 l 357 1074 l 401 1074 l 546 1206 l 645 1073 l 689 1074 l 690 1080 z "},"Ẅ":{"ha":815,"x_min":154,"x_max":863,"o":"m 154 0 l 188 0 l 471 821 l 495 892 l 496 827 l 524 2 l 557 0 l 863 987 l 830 987 l 591 224 l 553 102 l 554 220 l 525 987 l 492 987 l 226 227 l 186 103 l 189 220 l 187 987 l 154 987 l 154 0 m 347 1181 q 356 1155 346 1167 q 380 1143 366 1143 q 407 1154 393 1143 q 422 1179 420 1166 q 414 1205 423 1192 q 389 1218 404 1218 q 362 1206 375 1218 q 347 1181 349 1194 m 640 1181 q 648 1155 638 1167 q 673 1143 659 1143 q 700 1154 686 1143 q 715 1179 713 1166 q 706 1205 716 1193 q 682 1218 696 1218 q 655 1206 668 1218 q 640 1181 642 1194 z "},"Ẁ":{"ha":815,"x_min":154,"x_max":863,"o":"m 154 0 l 188 0 l 471 821 l 495 892 l 496 827 l 524 2 l 557 0 l 863 987 l 830 987 l 591 224 l 553 102 l 554 220 l 525 987 l 492 987 l 226 227 l 186 103 l 189 220 l 187 987 l 154 987 l 154 0 m 547 1063 l 454 1245 l 412 1245 l 510 1063 l 547 1063 z "},"Ý":{"ha":815,"x_min":159,"x_max":829,"o":"m 391 410 l 203 988 l 159 988 l 370 378 l 306 0 l 341 0 l 405 372 l 829 987 l 785 987 l 391 410 m 627 1236 l 479 1058 l 521 1057 l 673 1236 l 627 1236 z "},"Ŷ":{"ha":815,"x_min":159,"x_max":829,"o":"m 391 410 l 203 988 l 159 988 l 370 378 l 306 0 l 341 0 l 405 372 l 829 987 l 785 987 l 391 410 m 675 1073 l 547 1238 l 519 1238 l 342 1076 l 342 1067 l 386 1067 l 531 1198 l 630 1065 l 674 1066 l 675 1073 z "},"Ÿ":{"ha":815,"x_min":159,"x_max":829,"o":"m 391 410 l 203 988 l 159 988 l 370 378 l 306 0 l 341 0 l 405 372 l 829 987 l 785 987 l 391 410 m 332 1173 q 341 1148 331 1160 q 365 1135 351 1136 q 392 1147 378 1135 q 407 1172 405 1158 q 399 1198 408 1185 q 374 1211 389 1211 q 347 1199 360 1211 q 332 1173 334 1187 m 625 1173 q 633 1148 623 1160 q 658 1135 644 1136 q 685 1147 671 1135 q 700 1172 698 1158 q 691 1198 701 1185 q 667 1211 681 1211 q 640 1199 653 1211 q 625 1173 627 1187 z "},"Ỳ":{"ha":815,"x_min":159,"x_max":829,"o":"m 391 410 l 203 988 l 159 988 l 370 378 l 306 0 l 341 0 l 405 372 l 829 987 l 785 987 l 391 410 m 532 1056 l 439 1238 l 397 1238 l 495 1056 l 532 1056 z "},"Ź":{"ha":815,"x_min":32,"x_max":758,"o":"m 83 37 l 755 962 l 758 987 l 207 987 l 202 951 l 704 951 l 35 30 l 32 0 l 623 0 l 627 37 l 83 37 m 616 1244 l 469 1065 l 510 1065 l 663 1243 l 616 1244 z "},"Ž":{"ha":815,"x_min":32,"x_max":758,"o":"m 83 37 l 755 962 l 758 987 l 207 987 l 202 951 l 704 951 l 35 30 l 32 0 l 623 0 l 627 37 l 83 37 m 496 1101 l 395 1249 l 357 1248 l 357 1240 l 475 1069 l 515 1069 l 685 1238 l 686 1247 l 649 1247 l 496 1101 z "},"Ż":{"ha":815,"x_min":32,"x_max":758,"o":"m 83 37 l 755 962 l 758 987 l 207 987 l 202 951 l 704 951 l 35 30 l 32 0 l 623 0 l 627 37 l 83 37 m 470 1165 q 477 1138 467 1149 q 503 1126 488 1127 q 531 1137 517 1126 q 547 1162 545 1148 q 539 1190 549 1178 q 513 1202 528 1202 q 485 1190 498 1202 q 470 1165 472 1179 z "},"á":{"ha":815,"x_min":75,"x_max":699,"o":"m 581 0 l 623 0 l 623 6 q 623 77 623 42 q 628 148 623 112 l 692 515 q 685 613 699 570 q 639 686 670 656 q 563 732 608 716 q 467 747 519 747 q 368 733 416 747 q 277 691 319 718 q 206 624 236 664 q 163 534 176 585 l 199 532 q 239 609 212 576 q 303 665 267 642 q 381 699 339 688 q 468 711 424 711 q 550 698 512 711 q 613 661 587 685 q 651 600 639 635 q 656 517 663 564 l 637 410 l 458 410 q 380 405 420 409 q 300 390 339 400 q 224 363 260 380 q 159 322 188 347 q 109 263 129 297 q 82 186 89 230 q 89 103 75 140 q 130 41 102 66 q 196 1 157 15 q 277 -14 235 -13 q 368 -4 323 -14 q 452 26 412 7 q 528 74 492 45 q 593 137 564 102 q 583 69 586 102 q 581 0 579 35 m 277 22 q 211 34 243 23 q 157 66 180 45 q 123 116 134 87 q 118 183 111 146 q 144 251 125 222 q 191 300 163 279 q 251 335 218 321 q 320 357 284 349 q 392 369 356 365 q 460 372 428 372 l 631 372 l 600 199 q 536 126 572 159 q 460 70 501 93 q 373 34 419 46 q 277 22 326 21 m 592 1027 l 444 849 l 486 848 l 638 1027 l 592 1027 z "},"ă":{"ha":815,"x_min":75,"x_max":699,"o":"m 581 0 l 623 0 l 623 6 q 623 77 623 42 q 628 148 623 112 l 692 515 q 685 613 699 570 q 639 686 670 656 q 563 732 608 716 q 467 747 519 747 q 368 733 416 747 q 277 691 319 718 q 206 624 236 664 q 163 534 176 585 l 199 532 q 239 609 212 576 q 303 665 267 642 q 381 699 339 688 q 468 711 424 711 q 550 698 512 711 q 613 661 587 685 q 651 600 639 635 q 656 517 663 564 l 637 410 l 458 410 q 380 405 420 409 q 300 390 339 400 q 224 363 260 380 q 159 322 188 347 q 109 263 129 297 q 82 186 89 230 q 89 103 75 140 q 130 41 102 66 q 196 1 157 15 q 277 -14 235 -13 q 368 -4 323 -14 q 452 26 412 7 q 528 74 492 45 q 593 137 564 102 q 583 69 586 102 q 581 0 579 35 m 277 22 q 211 34 243 23 q 157 66 180 45 q 123 116 134 87 q 118 183 111 146 q 144 251 125 222 q 191 300 163 279 q 251 335 218 321 q 320 357 284 349 q 392 369 356 365 q 460 372 428 372 l 631 372 l 600 199 q 536 126 572 159 q 460 70 501 93 q 373 34 419 46 q 277 22 326 21 m 686 1010 l 650 1010 q 628 960 642 983 q 595 921 614 937 q 544 891 573 902 q 480 880 515 881 q 427 888 450 880 q 388 910 404 895 q 361 952 370 926 q 355 1010 353 977 l 319 1010 q 328 942 317 972 q 359 889 338 911 q 411 854 380 867 q 480 842 441 842 q 553 854 519 842 q 614 889 587 867 q 659 942 640 911 q 686 1010 677 972 z "},"â":{"ha":815,"x_min":75,"x_max":699,"o":"m 581 0 l 623 0 l 623 6 q 623 77 623 42 q 628 148 623 112 l 692 515 q 685 613 699 570 q 639 686 670 656 q 563 732 608 716 q 467 747 519 747 q 368 733 416 747 q 277 691 319 718 q 206 624 236 664 q 163 534 176 585 l 199 532 q 239 609 212 576 q 303 665 267 642 q 381 699 339 688 q 468 711 424 711 q 550 698 512 711 q 613 661 587 685 q 651 600 639 635 q 656 517 663 564 l 637 410 l 458 410 q 380 405 420 409 q 300 390 339 400 q 224 363 260 380 q 159 322 188 347 q 109 263 129 297 q 82 186 89 230 q 89 103 75 140 q 130 41 102 66 q 196 1 157 15 q 277 -14 235 -13 q 368 -4 323 -14 q 452 26 412 7 q 528 74 492 45 q 593 137 564 102 q 583 69 586 102 q 581 0 579 35 m 277 22 q 211 34 243 23 q 157 66 180 45 q 123 116 134 87 q 118 183 111 146 q 144 251 125 222 q 191 300 163 279 q 251 335 218 321 q 320 357 284 349 q 392 369 356 365 q 460 372 428 372 l 631 372 l 600 199 q 536 126 572 159 q 460 70 501 93 q 373 34 419 46 q 277 22 326 21 m 672 864 l 543 1029 l 516 1029 l 339 867 l 338 858 l 382 858 l 528 989 l 627 857 l 671 857 l 672 864 z "},"ä":{"ha":815,"x_min":75,"x_max":699,"o":"m 581 0 l 623 0 l 623 6 q 623 77 623 42 q 628 148 623 112 l 692 515 q 685 613 699 570 q 639 686 670 656 q 563 732 608 716 q 467 747 519 747 q 368 733 416 747 q 277 691 319 718 q 206 624 236 664 q 163 534 176 585 l 199 532 q 239 609 212 576 q 303 665 267 642 q 381 699 339 688 q 468 711 424 711 q 550 698 512 711 q 613 661 587 685 q 651 600 639 635 q 656 517 663 564 l 637 410 l 458 410 q 380 405 420 409 q 300 390 339 400 q 224 363 260 380 q 159 322 188 347 q 109 263 129 297 q 82 186 89 230 q 89 103 75 140 q 130 41 102 66 q 196 1 157 15 q 277 -14 235 -13 q 368 -4 323 -14 q 452 26 412 7 q 528 74 492 45 q 593 137 564 102 q 583 69 586 102 q 581 0 579 35 m 277 22 q 211 34 243 23 q 157 66 180 45 q 123 116 134 87 q 118 183 111 146 q 144 251 125 222 q 191 300 163 279 q 251 335 218 321 q 320 357 284 349 q 392 369 356 365 q 460 372 428 372 l 631 372 l 600 199 q 536 126 572 159 q 460 70 501 93 q 373 34 419 46 q 277 22 326 21 m 329 964 q 337 939 328 951 q 361 926 347 927 q 388 938 375 926 q 404 963 401 949 q 395 989 405 976 q 370 1002 386 1002 q 344 990 357 1002 q 329 964 331 978 m 622 964 q 630 939 620 951 q 654 926 640 927 q 681 938 668 926 q 696 963 694 949 q 688 989 698 977 q 663 1002 677 1002 q 637 990 650 1002 q 622 964 624 978 z "},"à":{"ha":815,"x_min":75,"x_max":699,"o":"m 581 0 l 623 0 l 623 6 q 623 77 623 42 q 628 148 623 112 l 692 515 q 685 613 699 570 q 639 686 670 656 q 563 732 608 716 q 467 747 519 747 q 368 733 416 747 q 277 691 319 718 q 206 624 236 664 q 163 534 176 585 l 199 532 q 239 609 212 576 q 303 665 267 642 q 381 699 339 688 q 468 711 424 711 q 550 698 512 711 q 613 661 587 685 q 651 600 639 635 q 656 517 663 564 l 637 410 l 458 410 q 380 405 420 409 q 300 390 339 400 q 224 363 260 380 q 159 322 188 347 q 109 263 129 297 q 82 186 89 230 q 89 103 75 140 q 130 41 102 66 q 196 1 157 15 q 277 -14 235 -13 q 368 -4 323 -14 q 452 26 412 7 q 528 74 492 45 q 593 137 564 102 q 583 69 586 102 q 581 0 579 35 m 277 22 q 211 34 243 23 q 157 66 180 45 q 123 116 134 87 q 118 183 111 146 q 144 251 125 222 q 191 300 163 279 q 251 335 218 321 q 320 357 284 349 q 392 369 356 365 q 460 372 428 372 l 631 372 l 600 199 q 536 126 572 159 q 460 70 501 93 q 373 34 419 46 q 277 22 326 21 m 529 847 l 436 1029 l 394 1029 l 492 847 l 529 847 z "},"ā":{"ha":815,"x_min":75,"x_max":721,"o":"m 581 0 l 623 0 l 623 6 q 623 77 623 42 q 628 148 623 112 l 692 515 q 685 613 699 570 q 639 686 670 656 q 563 732 608 716 q 467 747 519 747 q 368 733 416 747 q 277 691 319 718 q 206 624 236 664 q 163 534 176 585 l 199 532 q 239 609 212 576 q 303 665 267 642 q 381 699 339 688 q 468 711 424 711 q 550 698 512 711 q 613 661 587 685 q 651 600 639 635 q 656 517 663 564 l 637 410 l 458 410 q 380 405 420 409 q 300 390 339 400 q 224 363 260 380 q 159 322 188 347 q 109 263 129 297 q 82 186 89 230 q 89 103 75 140 q 130 41 102 66 q 196 1 157 15 q 277 -14 235 -13 q 368 -4 323 -14 q 452 26 412 7 q 528 74 492 45 q 593 137 564 102 q 583 69 586 102 q 581 0 579 35 m 277 22 q 211 34 243 23 q 157 66 180 45 q 123 116 134 87 q 118 183 111 146 q 144 251 125 222 q 191 300 163 279 q 251 335 218 321 q 320 357 284 349 q 392 369 356 365 q 460 372 428 372 l 631 372 l 600 199 q 536 126 572 159 q 460 70 501 93 q 373 34 419 46 q 277 22 326 21 m 716 958 l 721 994 l 307 994 l 303 958 l 716 958 z "},"ą":{"ha":815,"x_min":75,"x_max":699,"o":"m 580 14 q 528 -21 555 -1 q 476 -62 500 -40 q 435 -110 452 -83 q 413 -167 417 -136 q 415 -207 410 -189 q 433 -239 420 -226 q 462 -260 444 -252 q 502 -268 479 -268 q 548 -259 526 -268 q 591 -239 570 -251 l 585 -205 q 545 -224 565 -216 q 503 -231 525 -232 q 459 -212 474 -229 q 449 -167 445 -195 q 470 -114 453 -138 q 511 -70 488 -90 q 559 -33 534 -50 q 607 -1 585 -16 l 609 0 l 623 0 l 623 6 q 623 77 623 42 q 628 148 623 112 l 692 515 q 685 613 699 570 q 639 686 670 656 q 563 732 608 716 q 467 747 519 747 q 368 733 416 747 q 277 691 319 718 q 206 624 236 664 q 163 534 176 585 l 199 532 q 239 609 212 576 q 303 665 267 642 q 381 699 339 688 q 468 711 424 711 q 550 698 512 711 q 613 661 587 685 q 651 600 639 635 q 656 517 663 564 l 637 410 l 458 410 q 380 405 420 409 q 300 390 339 400 q 224 363 260 380 q 159 322 188 347 q 109 263 129 297 q 82 186 89 230 q 89 103 75 140 q 130 41 102 66 q 196 1 157 15 q 277 -14 235 -13 q 368 -4 323 -14 q 452 26 412 7 q 528 74 492 45 q 593 137 564 102 q 583 76 587 105 q 580 14 579 47 m 277 22 q 211 34 243 23 q 157 66 180 45 q 123 116 134 87 q 118 183 111 146 q 144 251 125 222 q 191 300 163 279 q 251 335 218 321 q 320 357 284 349 q 392 369 356 365 q 460 372 428 372 l 631 372 l 600 199 q 536 126 572 159 q 460 70 501 93 q 373 34 419 46 q 277 22 326 21 z "},"å":{"ha":815,"x_min":75,"x_max":699,"o":"m 581 0 l 623 0 l 623 6 q 623 77 623 42 q 628 148 623 112 l 692 515 q 685 613 699 570 q 639 686 670 656 q 563 732 608 716 q 467 747 519 747 q 368 733 416 747 q 277 691 319 718 q 206 624 236 664 q 163 534 176 585 l 199 532 q 239 609 212 576 q 303 665 267 642 q 381 699 339 688 q 468 711 424 711 q 550 698 512 711 q 613 661 587 685 q 651 600 639 635 q 656 517 663 564 l 637 410 l 458 410 q 380 405 420 409 q 300 390 339 400 q 224 363 260 380 q 159 322 188 347 q 109 263 129 297 q 82 186 89 230 q 89 103 75 140 q 130 41 102 66 q 196 1 157 15 q 277 -14 235 -13 q 368 -4 323 -14 q 452 26 412 7 q 528 74 492 45 q 593 137 564 102 q 583 69 586 102 q 581 0 579 35 m 277 22 q 211 34 243 23 q 157 66 180 45 q 123 116 134 87 q 118 183 111 146 q 144 251 125 222 q 191 300 163 279 q 251 335 218 321 q 320 357 284 349 q 392 369 356 365 q 460 372 428 372 l 631 372 l 600 199 q 536 126 572 159 q 460 70 501 93 q 373 34 419 46 q 277 22 326 21 m 406 937 q 408 895 403 916 q 425 858 413 874 q 456 832 437 842 q 497 822 474 822 q 542 832 520 822 q 580 857 563 842 q 608 894 597 873 q 623 937 620 915 q 622 980 627 959 q 604 1018 616 1001 q 573 1045 592 1035 q 532 1055 555 1055 q 487 1045 508 1055 q 449 1019 466 1035 q 421 981 432 1002 q 406 937 410 960 m 443 937 q 454 967 446 952 q 474 994 462 982 q 500 1011 486 1004 q 531 1018 515 1018 q 559 1011 547 1018 q 578 992 571 1004 q 587 966 585 981 q 587 937 589 951 q 575 908 583 922 q 555 883 567 894 q 529 866 544 872 q 498 859 514 859 q 471 866 482 859 q 452 884 459 873 q 443 909 445 895 q 443 937 440 923 z "},"ǻ":{"ha":815,"x_min":75,"x_max":705,"o":"m 581 0 l 623 0 l 623 6 q 623 77 623 42 q 628 148 623 112 l 692 515 q 685 613 699 570 q 639 686 670 656 q 563 732 608 716 q 467 747 519 747 q 368 733 416 747 q 277 691 319 718 q 206 624 236 664 q 163 534 176 585 l 199 532 q 239 609 212 576 q 303 665 267 642 q 381 699 339 688 q 468 711 424 711 q 550 698 512 711 q 613 661 587 685 q 651 600 639 635 q 656 517 663 564 l 637 410 l 458 410 q 380 405 420 409 q 300 390 339 400 q 224 363 260 380 q 159 322 188 347 q 109 263 129 297 q 82 186 89 230 q 89 103 75 140 q 130 41 102 66 q 196 1 157 15 q 277 -14 235 -13 q 368 -4 323 -14 q 452 26 412 7 q 528 74 492 45 q 593 137 564 102 q 583 69 586 102 q 581 0 579 35 m 277 22 q 211 34 243 23 q 157 66 180 45 q 123 116 134 87 q 118 183 111 146 q 144 251 125 222 q 191 300 163 279 q 251 335 218 321 q 320 357 284 349 q 392 369 356 365 q 460 372 428 372 l 631 372 l 600 199 q 536 126 572 159 q 460 70 501 93 q 373 34 419 46 q 277 22 326 21 m 646 1161 l 512 1034 l 559 1033 l 705 1161 l 646 1161 m 413 905 q 413 868 410 884 q 424 839 416 851 q 451 815 434 823 q 490 806 469 806 q 528 811 509 805 q 562 830 547 818 q 587 862 576 843 q 600 907 597 882 q 596 944 602 927 q 578 972 590 961 q 554 989 568 983 q 523 996 540 995 q 488 991 505 996 q 457 976 471 985 q 428 945 440 964 q 413 905 416 927 m 493 840 q 471 846 481 841 q 456 860 461 850 q 449 877 451 867 q 450 901 447 888 q 459 926 452 915 q 475 946 465 938 q 494 958 484 954 q 517 962 505 962 q 538 959 528 962 q 554 948 547 956 q 563 930 560 941 q 564 905 566 920 q 557 880 562 891 q 545 861 552 869 q 522 845 535 850 q 493 840 509 840 z "},"ã":{"ha":815,"x_min":75,"x_max":728,"o":"m 581 0 l 623 0 l 623 6 q 623 77 623 42 q 628 148 623 112 l 692 515 q 685 613 699 570 q 639 686 670 656 q 563 732 608 716 q 467 747 519 747 q 368 733 416 747 q 277 691 319 718 q 206 624 236 664 q 163 534 176 585 l 199 532 q 239 609 212 576 q 303 665 267 642 q 381 699 339 688 q 468 711 424 711 q 550 698 512 711 q 613 661 587 685 q 651 600 639 635 q 656 517 663 564 l 637 410 l 458 410 q 380 405 420 409 q 300 390 339 400 q 224 363 260 380 q 159 322 188 347 q 109 263 129 297 q 82 186 89 230 q 89 103 75 140 q 130 41 102 66 q 196 1 157 15 q 277 -14 235 -13 q 368 -4 323 -14 q 452 26 412 7 q 528 74 492 45 q 593 137 564 102 q 583 69 586 102 q 581 0 579 35 m 277 22 q 211 34 243 23 q 157 66 180 45 q 123 116 134 87 q 118 183 111 146 q 144 251 125 222 q 191 300 163 279 q 251 335 218 321 q 320 357 284 349 q 392 369 356 365 q 460 372 428 372 l 631 372 l 600 199 q 536 126 572 159 q 460 70 501 93 q 373 34 419 46 q 277 22 326 21 m 728 1007 l 690 1007 q 677 975 686 991 q 657 945 669 959 q 633 925 646 933 q 606 917 621 917 q 561 932 581 917 q 519 964 541 947 q 478 991 500 979 q 427 1003 457 1003 q 379 993 401 1003 q 342 966 358 983 q 315 928 326 949 q 298 882 304 906 l 335 882 q 349 913 341 899 q 368 940 357 928 q 394 959 379 951 q 428 966 408 966 q 472 952 451 966 q 512 923 493 939 q 551 894 530 907 q 597 882 571 882 q 646 892 625 882 q 684 921 667 903 q 711 961 700 939 q 728 1007 722 983 z "},"ǽ":{"ha":815,"x_min":-9,"x_max":795,"o":"m 518 -14 q 576 -5 549 -14 q 628 17 604 3 q 669 46 649 29 q 706 81 688 62 l 690 111 q 653 78 673 94 q 612 50 633 62 q 567 31 591 38 q 518 24 544 24 q 437 47 467 24 q 393 108 407 71 q 378 188 379 144 q 384 271 377 231 l 405 391 l 770 391 l 789 488 q 793 577 795 532 q 774 661 790 623 q 723 723 757 699 q 636 747 690 747 q 520 708 572 747 q 434 608 468 669 q 395 711 434 675 q 288 747 356 747 q 210 734 246 747 q 146 696 174 720 q 99 638 118 672 q 73 564 80 605 l 109 564 q 131 624 115 597 q 171 671 147 651 q 224 700 195 690 q 288 710 254 711 q 349 698 325 710 q 385 665 372 686 q 399 616 397 644 q 396 556 401 588 l 374 427 l 240 427 q 149 407 191 426 q 77 355 108 387 q 24 281 45 323 q -3 193 4 239 q -4 119 -9 155 q 18 53 1 82 q 64 5 35 23 q 136 -14 93 -14 q 201 -2 170 -14 q 260 28 233 9 q 310 72 287 47 q 351 125 332 97 q 370 72 357 96 q 401 30 382 47 q 452 -2 422 9 q 518 -14 481 -14 m 636 711 q 707 689 682 711 q 745 635 733 668 q 758 564 757 603 q 753 491 758 526 l 743 429 l 409 429 l 411 437 q 438 528 421 480 q 481 616 454 576 q 545 684 507 657 q 636 711 583 711 m 135 22 q 77 37 100 22 q 43 77 55 52 q 30 131 32 101 q 33 190 27 161 q 58 265 40 229 q 103 328 76 300 q 164 372 130 355 q 241 390 199 389 l 367 390 l 326 153 q 292 104 312 127 q 248 62 272 80 q 195 33 223 44 q 135 22 166 22 m 594 1027 l 446 848 l 488 848 l 640 1026 l 594 1027 z "},"ć":{"ha":815,"x_min":101,"x_max":702,"o":"m 345 23 q 265 37 299 23 q 206 76 231 52 q 167 132 182 100 q 145 201 152 164 q 138 276 138 237 q 144 353 138 315 l 150 381 q 172 461 157 421 q 206 538 186 501 q 253 606 227 574 q 313 661 280 637 q 385 697 346 684 q 469 711 424 711 q 555 694 517 711 q 618 648 593 677 q 654 578 643 618 q 663 492 666 538 l 699 492 q 688 593 702 546 q 644 674 673 640 q 569 728 613 708 q 469 747 525 747 q 333 715 393 747 q 228 631 273 683 q 154 514 183 579 q 113 381 125 448 l 108 353 q 102 266 101 310 q 113 182 103 222 q 141 105 123 141 q 189 43 159 70 q 256 2 217 17 q 345 -14 295 -14 q 449 4 400 -14 q 538 52 498 21 q 608 126 578 83 q 652 222 637 170 l 615 222 q 574 140 600 177 q 513 78 548 104 q 435 37 478 52 q 345 23 393 23 m 620 1026 l 472 848 l 513 847 l 666 1025 l 620 1026 z "},"č":{"ha":815,"x_min":101,"x_max":702,"o":"m 345 23 q 265 37 299 23 q 206 76 231 52 q 167 132 182 100 q 145 201 152 164 q 138 276 138 237 q 144 353 138 315 l 150 381 q 172 461 157 421 q 206 538 186 501 q 253 606 227 574 q 313 661 280 637 q 385 697 346 684 q 469 711 424 711 q 555 694 517 711 q 618 648 593 677 q 654 578 643 618 q 663 492 666 538 l 699 492 q 688 593 702 546 q 644 674 673 640 q 569 728 613 708 q 469 747 525 747 q 333 715 393 747 q 228 631 273 683 q 154 514 183 579 q 113 381 125 448 l 108 353 q 102 266 101 310 q 113 182 103 222 q 141 105 123 141 q 189 43 159 70 q 256 2 217 17 q 345 -14 295 -14 q 449 4 400 -14 q 538 52 498 21 q 608 126 578 83 q 652 222 637 170 l 615 222 q 574 140 600 177 q 513 78 548 104 q 435 37 478 52 q 345 23 393 23 m 499 883 l 398 1030 l 361 1029 l 360 1022 l 479 851 l 518 851 l 688 1020 l 689 1029 l 652 1029 l 499 883 z "},"ç":{"ha":815,"x_min":101,"x_max":702,"o":"m 345 23 q 265 37 299 23 q 206 76 231 52 q 167 132 182 100 q 145 201 152 164 q 138 276 138 237 q 144 353 138 315 l 150 381 q 172 461 157 421 q 206 538 186 501 q 253 606 227 574 q 313 661 280 637 q 385 697 346 684 q 469 711 424 711 q 555 694 517 711 q 618 648 593 677 q 654 578 643 618 q 663 492 666 538 l 699 492 q 688 593 702 546 q 644 674 673 640 q 569 728 613 708 q 469 747 525 747 q 333 715 393 747 q 228 631 273 683 q 154 514 183 579 q 113 381 125 448 l 108 353 q 102 266 101 310 q 113 182 103 222 q 141 105 123 141 q 189 43 159 70 q 256 2 217 17 q 345 -14 295 -14 q 449 4 400 -14 q 538 52 498 21 q 608 126 578 83 q 652 222 637 170 l 615 222 q 574 140 600 177 q 513 78 548 104 q 435 37 478 52 q 345 23 393 23 m 358 -6 l 322 -6 l 292 -87 q 332 -94 311 -90 q 371 -107 353 -98 q 398 -132 388 -116 q 402 -172 408 -147 q 377 -218 396 -200 q 334 -246 358 -236 q 281 -262 309 -257 q 229 -268 253 -267 l 229 -301 q 273 -296 250 -300 q 319 -287 296 -293 q 361 -271 340 -281 q 399 -247 382 -261 q 425 -215 414 -233 q 439 -173 435 -197 q 436 -127 443 -147 q 416 -94 430 -108 q 383 -71 403 -80 q 340 -58 363 -62 l 358 -6 z "},"ĉ":{"ha":815,"x_min":101,"x_max":702,"o":"m 345 23 q 265 37 299 23 q 206 76 231 52 q 167 132 182 100 q 145 201 152 164 q 138 276 138 237 q 144 353 138 315 l 150 381 q 172 461 157 421 q 206 538 186 501 q 253 606 227 574 q 313 661 280 637 q 385 697 346 684 q 469 711 424 711 q 555 694 517 711 q 618 648 593 677 q 654 578 643 618 q 663 492 666 538 l 699 492 q 688 593 702 546 q 644 674 673 640 q 569 728 613 708 q 469 747 525 747 q 333 715 393 747 q 228 631 273 683 q 154 514 183 579 q 113 381 125 448 l 108 353 q 102 266 101 310 q 113 182 103 222 q 141 105 123 141 q 189 43 159 70 q 256 2 217 17 q 345 -14 295 -14 q 449 4 400 -14 q 538 52 498 21 q 608 126 578 83 q 652 222 637 170 l 615 222 q 574 140 600 177 q 513 78 548 104 q 435 37 478 52 q 345 23 393 23 m 668 863 l 539 1027 l 512 1027 l 335 866 l 334 857 l 378 857 l 524 988 l 623 855 l 667 856 l 668 863 z "},"ď":{"ha":815,"x_min":53,"x_max":941,"o":"m 62 374 l 60 360 q 53 276 54 319 q 60 191 53 233 q 84 112 68 149 q 127 47 100 75 q 191 3 153 19 q 279 -14 229 -14 q 351 -4 316 -14 q 418 21 385 5 q 478 60 450 37 q 529 110 506 83 l 508 0 l 545 0 l 724 1042 l 687 1042 l 611 608 q 577 665 597 639 q 530 709 556 690 q 472 737 503 727 q 406 747 440 747 q 312 732 355 747 q 234 690 269 717 q 170 627 198 663 q 121 549 142 591 q 84 463 99 508 q 62 374 70 418 m 98 360 l 100 374 q 135 493 111 433 q 197 602 159 553 q 286 680 234 650 q 406 711 338 711 q 478 697 445 711 q 536 661 511 684 q 578 605 562 637 q 601 536 595 573 l 536 173 q 488 112 516 140 q 427 65 460 85 q 355 34 393 45 q 278 23 317 23 q 200 39 233 24 q 145 80 167 54 q 111 139 123 106 q 94 210 98 173 q 90 286 88 248 q 98 360 92 325 m 930 972 l 941 1042 l 905 1042 l 892 970 q 861 881 883 922 q 806 804 838 840 l 829 781 q 867 825 850 802 q 897 873 884 848 q 917 921 909 897 q 930 972 925 945 z "},"đ":{"ha":815,"x_min":90,"x_max":859,"o":"m 853 869 l 859 905 l 737 905 l 761 1042 l 724 1042 l 701 905 l 471 905 l 466 869 l 694 869 l 648 608 q 614 665 635 639 q 567 709 593 690 q 509 737 541 727 q 443 747 477 747 q 349 732 392 747 q 271 690 307 717 q 207 627 235 663 q 158 549 179 591 q 122 463 136 508 q 100 374 107 418 l 97 360 q 91 276 91 319 q 98 191 90 233 q 121 112 105 149 q 164 47 138 75 q 228 3 191 19 q 317 -14 266 -14 q 388 -4 353 -14 q 455 21 422 5 q 515 60 487 37 q 566 110 543 83 l 545 0 l 582 0 l 731 869 l 853 869 m 135 360 l 138 374 q 172 493 149 433 q 234 602 196 553 q 323 680 271 650 q 443 711 375 711 q 515 697 482 711 q 574 661 548 684 q 615 605 599 637 q 638 536 632 573 l 574 173 q 525 112 553 140 q 464 65 497 85 q 392 34 430 45 q 315 23 355 23 q 237 39 270 24 q 182 80 204 54 q 148 139 160 106 q 131 210 136 173 q 127 286 125 248 q 135 360 129 325 z "},"é":{"ha":815,"x_min":88,"x_max":715,"o":"m 363 -14 q 508 17 441 -14 q 627 103 574 48 l 602 123 q 492 49 552 76 q 363 22 433 22 q 249 53 298 23 q 173 129 201 82 q 132 250 138 187 q 143 391 125 313 l 700 391 l 707 434 q 704 549 715 493 q 665 650 694 606 q 587 721 635 694 q 475 747 540 747 q 381 733 425 747 q 298 692 337 718 q 228 631 260 667 q 170 555 195 596 q 128 470 145 515 q 103 381 111 426 l 98 351 q 100 225 88 288 q 140 114 111 163 q 230 22 174 58 q 363 -14 287 -14 m 475 711 q 571 686 530 711 q 637 623 612 662 q 670 535 662 585 q 669 437 679 486 l 667 428 l 150 428 q 199 532 169 481 q 271 623 229 583 q 363 686 311 662 q 475 711 414 711 m 616 1027 l 468 848 l 509 848 l 662 1026 l 616 1027 z "},"ĕ":{"ha":815,"x_min":88,"x_max":715,"o":"m 363 -14 q 508 17 441 -14 q 627 103 574 48 l 602 123 q 492 49 552 76 q 363 22 433 22 q 249 53 298 23 q 173 129 201 82 q 132 250 138 187 q 143 391 125 313 l 700 391 l 707 434 q 704 549 715 493 q 665 650 694 606 q 587 721 635 694 q 475 747 540 747 q 381 733 425 747 q 298 692 337 718 q 228 631 260 667 q 170 555 195 596 q 128 470 145 515 q 103 381 111 426 l 98 351 q 100 225 88 288 q 140 114 111 163 q 230 22 174 58 q 363 -14 287 -14 m 475 711 q 571 686 530 711 q 637 623 612 662 q 670 535 662 585 q 669 437 679 486 l 667 428 l 150 428 q 199 532 169 481 q 271 623 229 583 q 363 686 311 662 q 475 711 414 711 m 700 1009 l 663 1009 q 641 959 655 982 q 609 920 627 937 q 557 891 587 901 q 494 880 528 880 q 441 887 464 880 q 401 909 418 895 q 375 951 384 926 q 368 1010 366 977 l 332 1010 q 341 941 331 972 q 373 888 352 910 q 425 854 394 866 q 494 842 455 842 q 567 854 533 842 q 627 888 601 866 q 672 941 654 910 q 700 1009 691 972 z "},"ě":{"ha":815,"x_min":88,"x_max":715,"o":"m 363 -14 q 508 17 441 -14 q 627 103 574 48 l 602 123 q 492 49 552 76 q 363 22 433 22 q 249 53 298 23 q 173 129 201 82 q 132 250 138 187 q 143 391 125 313 l 700 391 l 707 434 q 704 549 715 493 q 665 650 694 606 q 587 721 635 694 q 475 747 540 747 q 381 733 425 747 q 298 692 337 718 q 228 631 260 667 q 170 555 195 596 q 128 470 145 515 q 103 381 111 426 l 98 351 q 100 225 88 288 q 140 114 111 163 q 230 22 174 58 q 363 -14 287 -14 m 475 711 q 571 686 530 711 q 637 623 612 662 q 670 535 662 585 q 669 437 679 486 l 667 428 l 150 428 q 199 532 169 481 q 271 623 229 583 q 363 686 311 662 q 475 711 414 711 m 495 884 l 394 1031 l 357 1030 l 356 1023 l 475 852 l 514 852 l 684 1021 l 685 1029 l 648 1029 l 495 884 z "},"ê":{"ha":815,"x_min":88,"x_max":715,"o":"m 363 -14 q 508 17 441 -14 q 627 103 574 48 l 602 123 q 492 49 552 76 q 363 22 433 22 q 249 53 298 23 q 173 129 201 82 q 132 250 138 187 q 143 391 125 313 l 700 391 l 707 434 q 704 549 715 493 q 665 650 694 606 q 587 721 635 694 q 475 747 540 747 q 381 733 425 747 q 298 692 337 718 q 228 631 260 667 q 170 555 195 596 q 128 470 145 515 q 103 381 111 426 l 98 351 q 100 225 88 288 q 140 114 111 163 q 230 22 174 58 q 363 -14 287 -14 m 475 711 q 571 686 530 711 q 637 623 612 662 q 670 535 662 585 q 669 437 679 486 l 667 428 l 150 428 q 199 532 169 481 q 271 623 229 583 q 363 686 311 662 q 475 711 414 711 m 665 863 l 536 1028 l 509 1028 l 332 867 l 331 857 l 375 857 l 520 989 l 619 856 l 663 857 l 665 863 z "},"ë":{"ha":815,"x_min":88,"x_max":715,"o":"m 363 -14 q 508 17 441 -14 q 627 103 574 48 l 602 123 q 492 49 552 76 q 363 22 433 22 q 249 53 298 23 q 173 129 201 82 q 132 250 138 187 q 143 391 125 313 l 700 391 l 707 434 q 704 549 715 493 q 665 650 694 606 q 587 721 635 694 q 475 747 540 747 q 381 733 425 747 q 298 692 337 718 q 228 631 260 667 q 170 555 195 596 q 128 470 145 515 q 103 381 111 426 l 98 351 q 100 225 88 288 q 140 114 111 163 q 230 22 174 58 q 363 -14 287 -14 m 475 711 q 571 686 530 711 q 637 623 612 662 q 670 535 662 585 q 669 437 679 486 l 667 428 l 150 428 q 199 532 169 481 q 271 623 229 583 q 363 686 311 662 q 475 711 414 711 m 321 964 q 329 938 319 950 q 353 926 339 926 q 380 937 367 926 q 395 962 393 949 q 387 988 397 975 q 362 1001 378 1001 q 336 989 349 1001 q 321 964 323 977 m 614 964 q 622 938 612 950 q 646 926 632 926 q 673 937 660 926 q 688 962 686 949 q 680 988 690 976 q 655 1001 669 1001 q 629 989 642 1001 q 614 964 616 977 z "},"ė":{"ha":815,"x_min":88,"x_max":715,"o":"m 363 -14 q 508 17 441 -14 q 627 103 574 48 l 602 123 q 492 49 552 76 q 363 22 433 22 q 249 53 298 23 q 173 129 201 82 q 132 250 138 187 q 143 391 125 313 l 700 391 l 707 434 q 704 549 715 493 q 665 650 694 606 q 587 721 635 694 q 475 747 540 747 q 381 733 425 747 q 298 692 337 718 q 228 631 260 667 q 170 555 195 596 q 128 470 145 515 q 103 381 111 426 l 98 351 q 100 225 88 288 q 140 114 111 163 q 230 22 174 58 q 363 -14 287 -14 m 475 711 q 571 686 530 711 q 637 623 612 662 q 670 535 662 585 q 669 437 679 486 l 667 428 l 150 428 q 199 532 169 481 q 271 623 229 583 q 363 686 311 662 q 475 711 414 711 m 469 948 q 477 921 467 932 q 503 909 487 910 q 530 920 517 909 q 546 945 544 931 q 538 973 549 961 q 512 985 528 985 q 485 973 498 985 q 469 948 471 962 z "},"è":{"ha":815,"x_min":88,"x_max":715,"o":"m 363 -14 q 508 17 441 -14 q 627 103 574 48 l 602 123 q 492 49 552 76 q 363 22 433 22 q 249 53 298 23 q 173 129 201 82 q 132 250 138 187 q 143 391 125 313 l 700 391 l 707 434 q 704 549 715 493 q 665 650 694 606 q 587 721 635 694 q 475 747 540 747 q 381 733 425 747 q 298 692 337 718 q 228 631 260 667 q 170 555 195 596 q 128 470 145 515 q 103 381 111 426 l 98 351 q 100 225 88 288 q 140 114 111 163 q 230 22 174 58 q 363 -14 287 -14 m 475 711 q 571 686 530 711 q 637 623 612 662 q 670 535 662 585 q 669 437 679 486 l 667 428 l 150 428 q 199 532 169 481 q 271 623 229 583 q 363 686 311 662 q 475 711 414 711 m 521 846 l 428 1028 l 386 1028 l 484 846 l 521 846 z "},"ē":{"ha":815,"x_min":88,"x_max":715,"o":"m 363 -14 q 508 17 441 -14 q 627 103 574 48 l 602 123 q 492 49 552 76 q 363 22 433 22 q 249 53 298 23 q 173 129 201 82 q 132 250 138 187 q 143 391 125 313 l 700 391 l 707 434 q 704 549 715 493 q 665 650 694 606 q 587 721 635 694 q 475 747 540 747 q 381 733 425 747 q 298 692 337 718 q 228 631 260 667 q 170 555 195 596 q 128 470 145 515 q 103 381 111 426 l 98 351 q 100 225 88 288 q 140 114 111 163 q 230 22 174 58 q 363 -14 287 -14 m 475 711 q 571 686 530 711 q 637 623 612 662 q 670 535 662 585 q 669 437 679 486 l 667 428 l 150 428 q 199 532 169 481 q 271 623 229 583 q 363 686 311 662 q 475 711 414 711 m 708 958 l 713 994 l 299 994 l 295 958 l 708 958 z "},"ŋ":{"ha":815,"x_min":77,"x_max":677,"o":"m 77 0 l 113 0 l 192 452 q 232 549 205 503 q 298 632 259 596 q 384 689 336 668 q 487 711 432 711 q 567 691 536 711 q 616 638 599 671 q 639 540 638 594 q 632 433 640 486 l 546 -60 q 524 -132 538 -96 q 486 -196 509 -168 q 430 -242 462 -224 q 357 -260 398 -260 q 319 -257 338 -261 q 281 -248 300 -254 l 269 -282 q 312 -292 290 -288 q 357 -296 334 -296 q 445 -275 406 -296 q 511 -222 483 -255 q 557 -146 539 -189 q 583 -60 575 -104 l 668 432 q 674 552 677 492 q 647 656 671 612 q 586 723 625 699 q 486 747 547 747 q 399 734 440 747 q 324 698 359 721 q 261 642 290 674 q 210 571 232 610 l 237 734 l 203 734 l 77 0 z "},"ę":{"ha":815,"x_min":87,"x_max":715,"o":"m 627 103 l 602 123 q 492 49 552 76 q 363 22 433 22 q 250 53 298 23 q 173 129 202 82 q 134 234 144 176 q 135 351 125 293 q 138 366 137 361 q 141 381 139 371 l 143 391 l 700 391 l 707 434 q 704 549 715 493 q 665 650 694 606 q 587 721 635 694 q 475 747 540 747 q 381 733 425 747 q 298 692 337 718 q 228 631 260 667 q 170 555 195 596 q 128 470 145 515 q 103 381 111 426 l 98 351 q 100 222 87 287 q 143 109 113 158 q 232 21 176 56 q 363 -14 288 -14 q 399 -12 382 -14 q 434 -6 416 -9 q 376 -63 401 -32 q 346 -133 351 -94 q 348 -173 342 -155 q 366 -205 353 -192 q 395 -226 377 -218 q 435 -234 412 -234 q 481 -225 459 -234 q 524 -205 503 -217 l 517 -172 q 478 -190 498 -182 q 435 -197 458 -198 q 392 -178 407 -195 q 382 -133 378 -161 q 403 -80 386 -104 q 444 -36 420 -56 q 492 1 467 -16 q 540 33 518 18 q 585 64 564 46 q 627 103 606 82 m 475 711 q 571 686 530 711 q 637 623 612 662 q 670 535 662 585 q 669 437 679 486 l 667 428 l 150 428 q 199 532 169 481 q 271 623 229 583 q 363 686 311 662 q 475 711 414 711 z "},"ğ":{"ha":815,"x_min":60,"x_max":720,"o":"m 111 374 l 109 360 q 102 276 102 319 q 109 191 102 233 q 133 112 117 149 q 176 47 149 75 q 240 3 202 19 q 328 -14 277 -14 q 399 -5 364 -14 q 466 20 434 4 q 526 59 498 37 q 577 109 554 81 l 557 10 q 523 -92 547 -43 q 463 -178 498 -140 q 379 -237 427 -215 q 273 -260 332 -260 q 166 -229 212 -260 q 87 -148 120 -198 l 60 -171 q 151 -262 97 -229 q 275 -296 205 -296 q 394 -270 340 -296 q 489 -203 448 -245 q 556 -105 530 -161 q 595 10 583 -50 l 720 734 l 682 734 l 659 608 q 625 665 646 640 q 578 709 604 691 q 520 738 551 728 q 454 747 489 747 q 361 732 404 747 q 283 690 318 717 q 219 627 247 663 q 170 549 191 591 q 133 463 148 508 q 111 374 119 418 m 146 360 l 149 374 q 183 493 159 433 q 245 602 207 553 q 334 680 282 650 q 454 711 387 711 q 528 697 494 711 q 586 659 561 683 q 627 602 610 635 q 648 531 643 569 l 585 178 q 538 115 566 144 q 477 66 510 87 q 405 34 443 45 q 327 23 367 23 q 249 39 281 24 q 194 80 216 54 q 159 139 172 106 q 142 210 146 173 q 138 286 137 248 q 146 360 140 325 m 705 1008 l 668 1008 q 646 959 660 981 q 614 920 632 936 q 562 890 591 901 q 498 879 533 880 q 446 886 469 879 q 406 909 422 894 q 380 950 389 925 q 373 1009 371 976 l 337 1009 q 346 940 336 971 q 378 888 357 909 q 429 853 399 865 q 498 841 460 841 q 572 853 538 841 q 632 888 606 865 q 677 940 659 909 q 705 1008 696 971 z "},"ĝ":{"ha":815,"x_min":60,"x_max":720,"o":"m 111 374 l 109 360 q 102 276 102 319 q 109 191 102 233 q 133 112 117 149 q 176 47 149 75 q 240 3 202 19 q 328 -14 277 -14 q 399 -5 364 -14 q 466 20 434 4 q 526 59 498 37 q 577 109 554 81 l 557 10 q 523 -92 547 -43 q 463 -178 498 -140 q 379 -237 427 -215 q 273 -260 332 -260 q 166 -229 212 -260 q 87 -148 120 -198 l 60 -171 q 151 -262 97 -229 q 275 -296 205 -296 q 394 -270 340 -296 q 489 -203 448 -245 q 556 -105 530 -161 q 595 10 583 -50 l 720 734 l 682 734 l 659 608 q 625 665 646 640 q 578 709 604 691 q 520 738 551 728 q 454 747 489 747 q 361 732 404 747 q 283 690 318 717 q 219 627 247 663 q 170 549 191 591 q 133 463 148 508 q 111 374 119 418 m 146 360 l 149 374 q 183 493 159 433 q 245 602 207 553 q 334 680 282 650 q 454 711 387 711 q 528 697 494 711 q 586 659 561 683 q 627 602 610 635 q 648 531 643 569 l 585 178 q 538 115 566 144 q 477 66 510 87 q 405 34 443 45 q 327 23 367 23 q 249 39 281 24 q 194 80 216 54 q 159 139 172 106 q 142 210 146 173 q 138 286 137 248 q 146 360 140 325 m 669 863 l 540 1027 l 513 1027 l 336 866 l 335 857 l 379 857 l 524 988 l 623 855 l 667 856 l 669 863 z "},"ģ":{"ha":815,"x_min":60,"x_max":720,"o":"m 111 374 l 109 360 q 102 276 102 319 q 109 191 102 233 q 133 112 117 149 q 176 47 149 75 q 240 3 202 19 q 328 -14 277 -14 q 399 -5 364 -14 q 466 20 434 4 q 526 59 498 37 q 577 109 554 81 l 557 10 q 523 -92 547 -43 q 463 -178 498 -140 q 379 -237 427 -215 q 273 -260 332 -260 q 166 -229 212 -260 q 87 -148 120 -198 l 60 -171 q 151 -262 97 -229 q 275 -296 205 -296 q 394 -270 340 -296 q 489 -203 448 -245 q 556 -105 530 -161 q 595 10 583 -50 l 720 734 l 682 734 l 659 608 q 625 665 646 640 q 578 709 604 691 q 520 738 551 728 q 454 747 489 747 q 361 732 404 747 q 283 690 318 717 q 219 627 247 663 q 170 549 191 591 q 133 463 148 508 q 111 374 119 418 m 146 360 l 149 374 q 183 493 159 433 q 245 602 207 553 q 334 680 282 650 q 454 711 387 711 q 528 697 494 711 q 586 659 561 683 q 627 602 610 635 q 648 531 643 569 l 585 178 q 538 115 566 144 q 477 66 510 87 q 405 34 443 45 q 327 23 367 23 q 249 39 281 24 q 194 80 216 54 q 159 139 172 106 q 142 210 146 173 q 138 286 137 248 q 146 360 140 325 m 474 951 l 460 864 l 496 864 l 512 954 q 533 1012 519 985 q 564 1066 547 1040 l 534 1078 q 515 1048 524 1063 q 498 1019 505 1034 q 484 986 490 1003 q 474 951 478 969 z "},"ħ":{"ha":815,"x_min":80,"x_max":710,"o":"m 471 869 l 477 905 l 272 905 l 296 1042 l 260 1042 l 236 905 l 90 905 l 84 869 l 230 869 l 80 0 l 117 0 l 199 476 q 245 565 214 522 q 319 640 277 607 q 410 691 361 672 q 507 711 458 711 q 594 692 560 712 q 647 640 629 672 q 669 563 665 606 q 665 475 673 520 l 583 0 l 621 0 l 702 475 q 704 578 710 528 q 674 665 697 627 q 609 725 650 703 q 508 747 568 747 q 416 732 460 747 q 336 691 373 717 q 266 631 298 665 q 210 557 235 596 l 266 869 l 471 869 z "},"ĥ":{"ha":815,"x_min":70,"x_max":700,"o":"m 200 557 l 286 1042 l 250 1042 l 70 0 l 107 0 l 189 476 q 235 565 203 522 q 309 640 267 607 q 400 691 351 672 q 496 711 448 711 q 584 692 550 712 q 637 640 618 672 q 659 563 655 606 q 655 475 663 520 l 573 0 l 610 0 l 692 475 q 693 578 700 528 q 664 665 687 627 q 599 725 640 703 q 498 747 558 747 q 406 732 450 747 q 326 691 363 717 q 256 631 288 665 q 200 557 224 596 m 446 1080 l 317 1244 l 290 1244 l 113 1083 l 112 1074 l 156 1074 l 301 1205 l 400 1072 l 444 1073 l 446 1080 z "},"í":{"ha":815,"x_min":87,"x_max":686,"o":"m 213 734 l 208 697 l 469 697 l 353 37 l 92 37 l 87 0 l 637 0 l 642 37 l 391 37 l 511 734 l 213 734 m 640 1054 l 492 876 l 534 875 l 686 1053 l 640 1054 z "},"ĭ":{"ha":815,"x_min":87,"x_max":711,"o":"m 213 734 l 208 697 l 469 697 l 353 37 l 92 37 l 87 0 l 637 0 l 642 37 l 391 37 l 511 734 l 213 734 m 711 1037 l 675 1037 q 653 987 667 1010 q 621 948 639 964 q 569 919 598 929 q 505 907 540 908 q 452 915 475 907 q 413 937 429 922 q 387 979 395 954 q 380 1038 378 1004 l 344 1038 q 353 969 342 1000 q 385 916 363 938 q 436 882 406 894 q 505 869 467 869 q 578 882 545 869 q 639 916 612 894 q 684 969 665 938 q 711 1037 703 1000 z "},"î":{"ha":815,"x_min":87,"x_max":677,"o":"m 213 734 l 208 697 l 469 697 l 353 37 l 92 37 l 87 0 l 637 0 l 642 37 l 391 37 l 511 734 l 213 734 m 677 890 l 549 1055 l 522 1055 l 345 894 l 344 884 l 388 884 l 533 1016 l 632 883 l 676 884 l 677 890 z "},"ï":{"ha":815,"x_min":87,"x_max":714,"o":"m 213 734 l 208 697 l 469 697 l 353 37 l 92 37 l 87 0 l 637 0 l 642 37 l 391 37 l 511 734 l 213 734 m 345 991 q 354 965 344 977 q 378 953 363 954 q 405 964 391 953 q 420 989 418 976 q 412 1015 421 1002 q 387 1028 402 1028 q 360 1016 373 1028 q 345 991 347 1004 m 638 991 q 646 965 636 977 q 671 953 656 954 q 697 964 684 953 q 713 989 711 976 q 704 1016 714 1003 q 680 1028 694 1028 q 653 1016 666 1028 q 638 991 640 1004 z "},"ì":{"ha":815,"x_min":87,"x_max":642,"o":"m 213 734 l 208 697 l 469 697 l 353 37 l 92 37 l 87 0 l 637 0 l 642 37 l 391 37 l 511 734 l 213 734 m 545 873 l 452 1055 l 410 1055 l 508 873 l 545 873 z "},"ī":{"ha":815,"x_min":87,"x_max":737,"o":"m 213 734 l 208 697 l 469 697 l 353 37 l 92 37 l 87 0 l 637 0 l 642 37 l 391 37 l 511 734 l 213 734 m 732 985 l 737 1021 l 323 1021 l 319 985 l 732 985 z "},"į":{"ha":815,"x_min":87,"x_max":642,"o":"m 213 734 l 208 697 l 469 697 l 353 37 l 92 37 l 87 0 l 335 0 q 289 -33 313 -15 q 244 -71 264 -50 q 209 -115 224 -91 q 191 -167 195 -139 q 193 -207 187 -189 q 210 -239 198 -226 q 239 -260 222 -252 q 279 -268 257 -268 q 326 -259 304 -268 q 369 -239 348 -251 l 362 -205 q 322 -224 342 -216 q 280 -231 302 -232 q 237 -212 252 -229 q 227 -167 222 -195 q 248 -114 231 -138 q 288 -70 265 -90 q 337 -33 311 -50 q 385 -1 363 -16 l 382 0 l 637 0 l 642 37 l 391 37 l 511 734 l 213 734 m 481 943 q 481 924 479 932 q 488 909 483 916 q 501 899 493 903 q 520 895 509 895 q 541 898 532 894 q 558 909 551 902 q 569 924 564 916 q 574 942 573 932 q 574 962 576 953 q 568 978 572 971 q 554 989 562 985 q 534 993 545 993 q 515 989 524 993 q 499 981 506 986 q 487 964 492 974 q 481 943 482 955 z "},"ĩ":{"ha":815,"x_min":87,"x_max":744,"o":"m 213 734 l 208 697 l 469 697 l 353 37 l 92 37 l 87 0 l 637 0 l 642 37 l 391 37 l 511 734 l 213 734 m 744 1034 l 707 1034 q 693 1002 702 1019 q 673 972 685 986 q 650 952 663 960 q 623 944 637 944 q 577 959 597 944 q 536 991 557 974 q 495 1018 516 1006 q 444 1030 473 1030 q 396 1020 417 1030 q 358 994 374 1010 q 331 955 342 977 q 314 909 320 933 l 351 909 q 365 941 357 926 q 385 967 373 956 q 410 986 395 979 q 444 993 425 993 q 488 979 467 993 q 528 950 509 966 q 567 921 547 934 q 614 909 587 909 q 662 920 641 909 q 700 948 684 930 q 727 988 716 966 q 744 1034 738 1010 z "},"ĵ":{"ha":815,"x_min":3,"x_max":739,"o":"m 234 734 l 229 697 l 531 697 l 410 4 q 378 -98 400 -50 q 321 -181 355 -145 q 241 -238 287 -217 q 136 -260 195 -260 q 73 -259 104 -261 q 11 -253 42 -257 l 3 -285 q 71 -294 37 -290 q 139 -296 104 -297 q 256 -271 204 -296 q 348 -205 309 -246 q 412 -110 387 -164 q 448 4 437 -56 l 574 734 l 234 734 m 739 921 l 610 1086 l 583 1086 l 406 924 l 405 915 l 449 915 l 594 1046 l 693 913 l 737 914 l 739 921 z "},"ķ":{"ha":815,"x_min":99,"x_max":753,"o":"m 319 397 l 599 0 l 645 0 l 348 420 l 753 734 l 694 734 l 297 426 l 195 346 l 315 1042 l 278 1042 l 99 0 l 136 0 l 188 301 l 319 397 m 278 -41 l 287 11 l 250 11 l 241 -43 q 215 -117 233 -83 q 171 -182 197 -151 l 194 -205 q 249 -129 228 -170 q 278 -41 270 -87 z "},"ĺ":{"ha":815,"x_min":87,"x_max":703,"o":"m 267 1042 l 261 1005 l 524 1005 l 356 37 l 92 37 l 87 0 l 637 0 l 642 37 l 393 37 l 568 1042 l 267 1042 m 657 1291 l 509 1113 l 551 1112 l 703 1291 l 657 1291 z "},"ľ":{"ha":815,"x_min":39,"x_max":760,"o":"m 219 1042 l 214 1005 l 477 1005 l 309 37 l 45 37 l 39 0 l 590 0 l 595 37 l 346 37 l 520 1042 l 219 1042 m 749 973 l 760 1043 l 724 1043 l 711 972 q 680 883 702 924 q 625 805 657 842 l 648 782 q 686 826 669 803 q 716 875 703 850 q 736 922 728 898 q 749 973 744 947 z "},"ļ":{"ha":815,"x_min":87,"x_max":642,"o":"m 267 1042 l 261 1005 l 524 1005 l 356 37 l 92 37 l 87 0 l 637 0 l 642 37 l 393 37 l 568 1042 l 267 1042 m 369 -111 l 378 -59 l 341 -59 l 332 -113 q 306 -186 323 -153 q 262 -252 288 -220 l 285 -275 q 340 -198 319 -239 q 369 -111 361 -157 z "},"ŀ":{"ha":815,"x_min":39,"x_max":615,"o":"m 219 1042 l 214 1005 l 477 1005 l 309 37 l 45 37 l 39 0 l 590 0 l 595 37 l 346 37 l 520 1042 l 219 1042 m 536 562 q 543 535 533 546 q 569 523 553 524 q 597 534 583 523 q 612 559 610 545 q 605 586 615 574 q 578 598 594 598 q 551 587 564 598 q 536 562 538 575 z "},"ł":{"ha":815,"x_min":87,"x_max":756,"o":"m 267 1042 l 261 1005 l 524 1005 l 448 563 l 176 504 l 167 465 l 441 524 l 356 37 l 92 37 l 87 0 l 637 0 l 642 37 l 393 37 l 479 532 l 747 591 l 756 630 l 486 571 l 568 1042 l 267 1042 z "},"ń":{"ha":815,"x_min":69,"x_max":697,"o":"m 69 0 l 106 0 l 189 476 q 234 565 203 522 q 308 640 266 607 q 398 691 350 672 q 495 711 447 711 q 582 692 548 712 q 635 640 616 672 q 657 563 653 606 q 653 475 661 520 l 571 0 l 608 0 l 689 475 q 691 577 697 528 q 662 665 685 627 q 598 725 639 703 q 496 747 557 747 q 405 732 448 747 q 325 691 362 717 q 255 631 287 665 q 199 557 224 597 l 233 734 l 195 734 l 69 0 m 600 1026 l 452 848 l 494 847 l 646 1025 l 600 1026 z "},"ň":{"ha":815,"x_min":69,"x_max":697,"o":"m 69 0 l 106 0 l 189 476 q 234 565 203 522 q 308 640 266 607 q 398 691 350 672 q 495 711 447 711 q 582 692 548 712 q 635 640 616 672 q 657 563 653 606 q 653 475 661 520 l 571 0 l 608 0 l 689 475 q 691 577 697 528 q 662 665 685 627 q 598 725 639 703 q 496 747 557 747 q 405 732 448 747 q 325 691 362 717 q 255 631 287 665 q 199 557 224 597 l 233 734 l 195 734 l 69 0 m 480 883 l 379 1030 l 342 1029 l 341 1022 l 460 851 l 499 851 l 669 1020 l 670 1029 l 633 1029 l 480 883 z "},"ņ":{"ha":815,"x_min":69,"x_max":697,"o":"m 69 0 l 106 0 l 189 476 q 234 565 203 522 q 308 640 266 607 q 398 691 350 672 q 495 711 447 711 q 582 692 548 712 q 635 640 616 672 q 657 563 653 606 q 653 475 661 520 l 571 0 l 608 0 l 689 475 q 691 577 697 528 q 662 665 685 627 q 598 725 639 703 q 496 747 557 747 q 405 732 448 747 q 325 691 362 717 q 255 631 287 665 q 199 557 224 597 l 233 734 l 195 734 l 69 0 m 334 -112 l 342 -60 l 306 -60 l 296 -113 q 270 -187 288 -153 q 227 -253 252 -221 l 250 -276 q 304 -199 283 -240 q 334 -112 326 -158 z "},"ñ":{"ha":815,"x_min":69,"x_max":704,"o":"m 69 0 l 106 0 l 189 476 q 234 565 203 522 q 308 640 266 607 q 398 691 350 672 q 495 711 447 711 q 582 692 548 712 q 635 640 616 672 q 657 563 653 606 q 653 475 661 520 l 571 0 l 608 0 l 689 475 q 691 577 697 528 q 662 665 685 627 q 598 725 639 703 q 496 747 557 747 q 405 732 448 747 q 325 691 362 717 q 255 631 287 665 q 199 557 224 597 l 233 734 l 195 734 l 69 0 m 704 1006 l 667 1006 q 653 974 662 990 q 633 944 645 958 q 610 924 623 932 q 583 916 597 916 q 537 930 557 916 q 496 962 517 945 q 455 990 476 978 q 404 1002 433 1002 q 356 992 377 1002 q 318 965 334 982 q 291 926 302 948 q 274 881 280 905 l 311 881 q 325 912 317 897 q 345 939 333 927 q 370 957 355 950 q 404 964 385 964 q 448 951 427 964 q 488 922 469 937 q 527 893 507 905 q 574 880 547 880 q 622 891 601 880 q 660 920 644 902 q 687 960 676 937 q 704 1006 698 982 z "},"ó":{"ha":815,"x_min":76,"x_max":719,"o":"m 87 381 l 83 353 q 78 265 76 309 q 92 180 81 221 q 124 104 104 140 q 176 43 145 68 q 245 1 205 16 q 336 -14 286 -14 q 474 18 411 -14 q 585 101 536 50 q 664 218 632 153 q 707 353 695 284 l 712 381 q 716 469 719 425 q 703 553 714 513 q 671 630 692 594 q 621 692 650 665 q 550 732 590 718 q 460 747 510 747 q 322 716 385 747 q 212 633 259 684 q 132 515 163 581 q 87 381 100 450 m 119 353 l 125 381 q 166 500 137 441 q 238 606 195 559 q 337 682 281 653 q 460 711 393 711 q 555 689 515 711 q 624 632 596 667 q 674 516 662 585 q 675 381 686 448 l 670 353 q 629 233 658 292 q 558 127 601 174 q 459 52 515 81 q 336 23 403 23 q 223 53 269 23 q 152 131 178 83 q 118 237 125 178 q 119 353 110 296 m 606 1026 l 458 848 l 500 847 l 652 1025 l 606 1026 z "},"ŏ":{"ha":815,"x_min":76,"x_max":719,"o":"m 87 381 l 83 353 q 78 265 76 309 q 92 180 81 221 q 124 104 104 140 q 176 43 145 68 q 245 1 205 16 q 336 -14 286 -14 q 474 18 411 -14 q 585 101 536 50 q 664 218 632 153 q 707 353 695 284 l 712 381 q 716 469 719 425 q 703 553 714 513 q 671 630 692 594 q 621 692 650 665 q 550 732 590 718 q 460 747 510 747 q 322 716 385 747 q 212 633 259 684 q 132 515 163 581 q 87 381 100 450 m 119 353 l 125 381 q 166 500 137 441 q 238 606 195 559 q 337 682 281 653 q 460 711 393 711 q 555 689 515 711 q 624 632 596 667 q 674 516 662 585 q 675 381 686 448 l 670 353 q 629 233 658 292 q 558 127 601 174 q 459 52 515 81 q 336 23 403 23 q 223 53 269 23 q 152 131 178 83 q 118 237 125 178 q 119 353 110 296 m 690 1008 l 654 1008 q 632 959 646 981 q 600 920 618 936 q 548 890 577 901 q 484 879 519 880 q 431 886 454 879 q 392 909 408 894 q 366 950 374 925 q 359 1009 357 976 l 323 1009 q 332 940 321 971 q 363 888 342 909 q 415 853 385 865 q 484 841 446 841 q 557 853 524 841 q 618 888 591 865 q 663 940 644 909 q 690 1008 682 971 z "},"ô":{"ha":815,"x_min":76,"x_max":719,"o":"m 87 381 l 83 353 q 78 265 76 309 q 92 180 81 221 q 124 104 104 140 q 176 43 145 68 q 245 1 205 16 q 336 -14 286 -14 q 474 18 411 -14 q 585 101 536 50 q 664 218 632 153 q 707 353 695 284 l 712 381 q 716 469 719 425 q 703 553 714 513 q 671 630 692 594 q 621 692 650 665 q 550 732 590 718 q 460 747 510 747 q 322 716 385 747 q 212 633 259 684 q 132 515 163 581 q 87 381 100 450 m 119 353 l 125 381 q 166 500 137 441 q 238 606 195 559 q 337 682 281 653 q 460 711 393 711 q 555 689 515 711 q 624 632 596 667 q 674 516 662 585 q 675 381 686 448 l 670 353 q 629 233 658 292 q 558 127 601 174 q 459 52 515 81 q 336 23 403 23 q 223 53 269 23 q 152 131 178 83 q 118 237 125 178 q 119 353 110 296 m 655 863 l 526 1027 l 499 1027 l 322 866 l 321 857 l 366 857 l 511 988 l 610 855 l 654 856 l 655 863 z "},"ö":{"ha":815,"x_min":76,"x_max":719,"o":"m 87 381 l 83 353 q 78 265 76 309 q 92 180 81 221 q 124 104 104 140 q 176 43 145 68 q 245 1 205 16 q 336 -14 286 -14 q 474 18 411 -14 q 585 101 536 50 q 664 218 632 153 q 707 353 695 284 l 712 381 q 716 469 719 425 q 703 553 714 513 q 671 630 692 594 q 621 692 650 665 q 550 732 590 718 q 460 747 510 747 q 322 716 385 747 q 212 633 259 684 q 132 515 163 581 q 87 381 100 450 m 119 353 l 125 381 q 166 500 137 441 q 238 606 195 559 q 337 682 281 653 q 460 711 393 711 q 555 689 515 711 q 624 632 596 667 q 674 516 662 585 q 675 381 686 448 l 670 353 q 629 233 658 292 q 558 127 601 174 q 459 52 515 81 q 336 23 403 23 q 223 53 269 23 q 152 131 178 83 q 118 237 125 178 q 119 353 110 296 m 311 963 q 320 938 310 949 q 344 925 330 926 q 371 937 357 925 q 386 962 384 948 q 378 987 387 975 q 353 1000 368 1000 q 326 988 339 1000 q 311 963 313 977 m 604 963 q 612 938 602 949 q 637 925 623 926 q 664 937 650 925 q 679 962 677 948 q 670 988 680 975 q 646 1000 660 1000 q 619 988 632 1000 q 604 963 606 977 z "},"ò":{"ha":815,"x_min":76,"x_max":719,"o":"m 87 381 l 83 353 q 78 265 76 309 q 92 180 81 221 q 124 104 104 140 q 176 43 145 68 q 245 1 205 16 q 336 -14 286 -14 q 474 18 411 -14 q 585 101 536 50 q 664 218 632 153 q 707 353 695 284 l 712 381 q 716 469 719 425 q 703 553 714 513 q 671 630 692 594 q 621 692 650 665 q 550 732 590 718 q 460 747 510 747 q 322 716 385 747 q 212 633 259 684 q 132 515 163 581 q 87 381 100 450 m 119 353 l 125 381 q 166 500 137 441 q 238 606 195 559 q 337 682 281 653 q 460 711 393 711 q 555 689 515 711 q 624 632 596 667 q 674 516 662 585 q 675 381 686 448 l 670 353 q 629 233 658 292 q 558 127 601 174 q 459 52 515 81 q 336 23 403 23 q 223 53 269 23 q 152 131 178 83 q 118 237 125 178 q 119 353 110 296 m 511 846 l 418 1027 l 376 1027 l 474 846 l 511 846 z "},"ơ":{"ha":815,"x_min":58,"x_max":856,"o":"m 766 696 q 718 662 747 676 q 642 646 688 648 q 561 720 610 692 q 442 747 511 747 q 341 731 389 747 q 254 686 294 715 q 195 634 222 663 q 145 570 167 605 q 98 479 117 528 q 70 381 79 431 l 65 353 q 61 265 58 309 q 75 180 63 221 q 107 104 86 140 q 158 43 127 68 q 228 1 188 16 q 318 -14 268 -14 q 456 18 393 -14 q 567 101 519 50 q 646 218 614 153 q 690 353 677 284 l 694 381 q 696 500 704 441 q 663 611 688 560 q 738 632 706 616 q 794 673 770 648 q 832 733 817 699 q 856 810 847 768 l 819 810 q 799 746 811 774 q 766 696 786 717 m 658 381 l 652 353 q 612 233 640 292 q 541 127 583 174 q 441 52 497 81 q 318 23 385 23 q 205 53 251 23 q 134 131 160 83 q 100 237 108 178 q 102 353 92 296 l 107 381 q 148 500 119 441 q 220 606 177 559 q 319 682 263 653 q 442 711 376 711 q 521 697 486 711 q 583 659 556 683 q 626 603 608 635 q 652 534 643 570 q 663 458 661 497 q 658 381 664 419 z "},"ő":{"ha":815,"x_min":76,"x_max":780,"o":"m 87 381 l 83 353 q 78 265 76 309 q 92 180 81 221 q 124 104 104 140 q 176 43 145 68 q 245 1 205 16 q 336 -14 286 -14 q 474 18 411 -14 q 585 101 536 50 q 664 218 632 153 q 707 353 695 284 l 712 381 q 716 469 719 425 q 703 553 714 513 q 671 630 692 594 q 621 692 650 665 q 550 732 590 718 q 460 747 510 747 q 322 716 385 747 q 212 633 259 684 q 132 515 163 581 q 87 381 100 450 m 119 353 l 125 381 q 166 500 137 441 q 238 606 195 559 q 337 682 281 653 q 460 711 393 711 q 555 689 515 711 q 624 632 596 667 q 674 516 662 585 q 675 381 686 448 l 670 353 q 629 233 658 292 q 558 127 601 174 q 459 52 515 81 q 336 23 403 23 q 223 53 269 23 q 152 131 178 83 q 118 237 125 178 q 119 353 110 296 m 720 1040 l 497 836 l 549 835 l 780 1040 l 720 1040 m 531 1040 l 338 836 l 387 835 l 587 1040 l 531 1040 z "},"ō":{"ha":815,"x_min":76,"x_max":719,"o":"m 87 381 l 83 353 q 78 265 76 309 q 92 180 81 221 q 124 104 104 140 q 176 43 145 68 q 245 1 205 16 q 336 -14 286 -14 q 474 18 411 -14 q 585 101 536 50 q 664 218 632 153 q 707 353 695 284 l 712 381 q 716 469 719 425 q 703 553 714 513 q 671 630 692 594 q 621 692 650 665 q 550 732 590 718 q 460 747 510 747 q 322 716 385 747 q 212 633 259 684 q 132 515 163 581 q 87 381 100 450 m 119 353 l 125 381 q 166 500 137 441 q 238 606 195 559 q 337 682 281 653 q 460 711 393 711 q 555 689 515 711 q 624 632 596 667 q 674 516 662 585 q 675 381 686 448 l 670 353 q 629 233 658 292 q 558 127 601 174 q 459 52 515 81 q 336 23 403 23 q 223 53 269 23 q 152 131 178 83 q 118 237 125 178 q 119 353 110 296 m 699 957 l 703 993 l 290 993 l 286 957 l 699 957 z "},"ø":{"ha":815,"x_min":49,"x_max":719,"o":"m 87 381 l 83 353 q 78 273 77 313 q 88 196 79 233 q 113 125 96 159 q 153 64 129 92 l 49 -98 l 93 -98 l 180 38 q 249 0 210 14 q 336 -14 287 -14 q 474 18 411 -14 q 585 101 536 50 q 664 218 632 153 q 707 353 695 284 l 712 381 q 716 473 719 427 q 701 562 713 519 q 664 640 688 604 q 607 701 641 676 l 688 826 l 644 826 l 576 720 q 523 740 551 733 q 460 747 494 747 q 322 716 385 747 q 212 633 259 684 q 132 515 163 581 q 87 381 100 450 m 119 353 l 125 381 q 166 500 137 441 q 238 606 195 559 q 337 682 281 653 q 460 711 393 711 q 512 705 488 711 q 556 689 536 699 l 174 97 q 141 152 154 121 q 121 216 127 182 q 114 284 115 249 q 119 353 114 319 m 675 381 l 670 353 q 629 233 658 292 q 558 127 601 174 q 459 52 515 81 q 336 23 403 23 q 260 36 293 23 q 201 70 227 48 l 587 669 q 636 613 616 646 q 667 543 656 581 q 680 463 678 504 q 675 381 682 421 z "},"ǿ":{"ha":815,"x_min":49,"x_max":719,"o":"m 87 381 l 83 353 q 78 273 77 313 q 88 196 79 233 q 113 125 96 159 q 153 64 129 92 l 49 -98 l 93 -98 l 180 38 q 249 0 210 14 q 336 -14 287 -14 q 474 18 411 -14 q 585 101 536 50 q 664 218 632 153 q 707 353 695 284 l 712 381 q 716 473 719 427 q 701 562 713 519 q 664 640 688 604 q 607 701 641 676 l 688 826 l 644 826 l 576 720 q 523 740 551 733 q 460 747 494 747 q 322 716 385 747 q 212 633 259 684 q 132 515 163 581 q 87 381 100 450 m 119 353 l 125 381 q 166 500 137 441 q 238 606 195 559 q 337 682 281 653 q 460 711 393 711 q 512 705 488 711 q 556 689 536 699 l 174 97 q 141 152 154 121 q 121 216 127 182 q 114 284 115 249 q 119 353 114 319 m 675 381 l 670 353 q 629 233 658 292 q 558 127 601 174 q 459 52 515 81 q 336 23 403 23 q 260 36 293 23 q 201 70 227 48 l 587 669 q 636 613 616 646 q 667 543 656 581 q 680 463 678 504 q 675 381 682 421 m 601 1025 l 453 847 l 494 846 l 647 1025 l 601 1025 z "},"õ":{"ha":815,"x_min":76,"x_max":719,"o":"m 87 381 l 83 353 q 78 265 76 309 q 92 180 81 221 q 124 104 104 140 q 176 43 145 68 q 245 1 205 16 q 336 -14 286 -14 q 474 18 411 -14 q 585 101 536 50 q 664 218 632 153 q 707 353 695 284 l 712 381 q 716 469 719 425 q 703 553 714 513 q 671 630 692 594 q 621 692 650 665 q 550 732 590 718 q 460 747 510 747 q 322 716 385 747 q 212 633 259 684 q 132 515 163 581 q 87 381 100 450 m 119 353 l 125 381 q 166 500 137 441 q 238 606 195 559 q 337 682 281 653 q 460 711 393 711 q 555 689 515 711 q 624 632 596 667 q 674 516 662 585 q 675 381 686 448 l 670 353 q 629 233 658 292 q 558 127 601 174 q 459 52 515 81 q 336 23 403 23 q 223 53 269 23 q 152 131 178 83 q 118 237 125 178 q 119 353 110 296 m 710 1006 l 673 1006 q 660 974 668 990 q 640 944 651 958 q 616 924 629 932 q 589 916 603 916 q 543 930 563 916 q 502 962 523 945 q 461 990 482 978 q 410 1002 439 1002 q 362 992 383 1002 q 324 965 340 982 q 297 926 308 948 q 280 881 286 905 l 317 881 q 331 912 323 897 q 351 939 339 927 q 376 957 361 950 q 410 964 391 964 q 454 951 433 964 q 494 922 475 937 q 533 893 513 905 q 580 880 553 880 q 628 891 607 880 q 666 920 650 902 q 693 960 682 937 q 710 1006 704 982 z "},"ŕ":{"ha":815,"x_min":186,"x_max":765,"o":"m 671 747 q 566 735 617 747 q 471 699 515 723 q 388 640 426 675 q 319 559 349 605 l 330 606 l 349 734 l 313 734 l 186 0 l 228 0 l 307 469 q 362 572 324 527 q 449 648 399 617 q 556 695 498 680 q 671 711 614 711 q 714 709 692 711 q 757 703 735 706 l 765 736 q 719 744 742 741 q 671 747 695 747 m 583 1026 l 435 848 l 477 847 l 629 1025 l 583 1026 z "},"ř":{"ha":815,"x_min":186,"x_max":765,"o":"m 671 747 q 566 735 617 747 q 471 699 515 723 q 388 640 426 675 q 319 559 349 605 l 330 606 l 349 734 l 313 734 l 186 0 l 228 0 l 307 469 q 362 572 324 527 q 449 648 399 617 q 556 695 498 680 q 671 711 614 711 q 714 709 692 711 q 757 703 735 706 l 765 736 q 719 744 742 741 q 671 747 695 747 m 476 883 l 375 1030 l 338 1029 l 337 1022 l 456 851 l 495 851 l 665 1020 l 666 1029 l 629 1029 l 476 883 z "},"ŗ":{"ha":815,"x_min":98,"x_max":765,"o":"m 671 747 q 566 735 617 747 q 471 699 515 723 q 388 640 426 675 q 319 559 349 605 l 330 606 l 349 734 l 313 734 l 186 0 l 228 0 l 307 469 q 362 572 324 527 q 449 648 399 617 q 556 695 498 680 q 671 711 614 711 q 714 709 692 711 q 757 703 735 706 l 765 736 q 719 744 742 741 q 671 747 695 747 m 205 -106 l 214 -54 l 178 -54 l 168 -107 q 142 -181 160 -147 q 98 -247 124 -215 l 121 -270 q 176 -193 155 -234 q 205 -106 197 -152 z "},"ś":{"ha":815,"x_min":98,"x_max":718,"o":"m 624 180 q 588 107 615 137 q 522 59 560 77 q 441 32 484 40 q 361 23 399 23 q 280 31 320 23 q 208 58 240 39 q 156 108 176 77 q 136 186 136 140 l 99 186 q 121 94 98 132 q 182 32 144 56 q 266 -3 219 7 q 361 -14 313 -14 q 457 -3 407 -14 q 549 31 507 7 q 622 91 592 54 q 661 179 652 127 q 647 271 669 231 q 578 338 624 312 q 502 372 541 360 q 427 393 464 384 q 380 404 406 398 q 330 420 355 410 q 282 441 304 429 q 244 471 260 453 q 222 510 229 488 q 220 564 215 533 q 255 632 229 604 q 317 678 281 661 q 392 703 352 695 q 469 711 433 711 q 548 701 509 711 q 618 670 587 691 q 665 616 648 649 q 679 538 682 583 l 716 538 q 698 632 718 593 q 644 697 678 671 q 563 735 609 723 q 468 747 517 747 q 377 737 424 747 q 290 704 330 726 q 220 646 249 682 q 184 562 191 611 q 186 501 178 528 q 212 454 195 474 q 253 418 229 433 q 305 393 277 404 q 361 375 332 382 q 417 361 391 367 q 488 340 449 353 q 559 309 527 328 q 615 254 597 285 q 624 180 633 224 m 621 1026 l 473 848 l 514 847 l 667 1025 l 621 1026 z "},"š":{"ha":815,"x_min":98,"x_max":718,"o":"m 624 180 q 588 107 615 137 q 522 59 560 77 q 441 32 484 40 q 361 23 399 23 q 280 31 320 23 q 208 58 240 39 q 156 108 176 77 q 136 186 136 140 l 99 186 q 121 94 98 132 q 182 32 144 56 q 266 -3 219 7 q 361 -14 313 -14 q 457 -3 407 -14 q 549 31 507 7 q 622 91 592 54 q 661 179 652 127 q 647 271 669 231 q 578 338 624 312 q 502 372 541 360 q 427 393 464 384 q 380 404 406 398 q 330 420 355 410 q 282 441 304 429 q 244 471 260 453 q 222 510 229 488 q 220 564 215 533 q 255 632 229 604 q 317 678 281 661 q 392 703 352 695 q 469 711 433 711 q 548 701 509 711 q 618 670 587 691 q 665 616 648 649 q 679 538 682 583 l 716 538 q 698 632 718 593 q 644 697 678 671 q 563 735 609 723 q 468 747 517 747 q 377 737 424 747 q 290 704 330 726 q 220 646 249 682 q 184 562 191 611 q 186 501 178 528 q 212 454 195 474 q 253 418 229 433 q 305 393 277 404 q 361 375 332 382 q 417 361 391 367 q 488 340 449 353 q 559 309 527 328 q 615 254 597 285 q 624 180 633 224 m 500 883 l 399 1030 l 361 1029 l 361 1022 l 479 851 l 519 851 l 689 1020 l 690 1029 l 653 1029 l 500 883 z "},"ş":{"ha":815,"x_min":98,"x_max":718,"o":"m 624 180 q 588 107 615 137 q 522 59 560 77 q 441 32 484 40 q 361 23 399 23 q 280 31 320 23 q 208 58 240 39 q 156 108 176 77 q 136 186 136 140 l 99 186 q 121 94 98 132 q 182 32 144 56 q 266 -3 219 7 q 361 -14 313 -14 q 457 -3 407 -14 q 549 31 507 7 q 622 91 592 54 q 661 179 652 127 q 647 271 669 231 q 578 338 624 312 q 502 372 541 360 q 427 393 464 384 q 380 404 406 398 q 330 420 355 410 q 282 441 304 429 q 244 471 260 453 q 222 510 229 488 q 220 564 215 533 q 255 632 229 604 q 317 678 281 661 q 392 703 352 695 q 469 711 433 711 q 548 701 509 711 q 618 670 587 691 q 665 616 648 649 q 679 538 682 583 l 716 538 q 698 632 718 593 q 644 697 678 671 q 563 735 609 723 q 468 747 517 747 q 377 737 424 747 q 290 704 330 726 q 220 646 249 682 q 184 562 191 611 q 186 501 178 528 q 212 454 195 474 q 253 418 229 433 q 305 393 277 404 q 361 375 332 382 q 417 361 391 367 q 488 340 449 353 q 559 309 527 328 q 615 254 597 285 q 624 180 633 224 m 368 -3 l 332 -3 l 302 -84 q 341 -91 320 -87 q 380 -104 363 -95 q 407 -128 397 -113 q 412 -169 417 -144 q 387 -215 406 -197 q 343 -243 368 -233 q 290 -258 318 -254 q 239 -264 262 -263 l 238 -298 q 282 -293 259 -296 q 329 -283 306 -290 q 371 -268 350 -278 q 408 -243 391 -258 q 434 -212 424 -230 q 448 -170 445 -193 q 446 -124 452 -144 q 426 -90 439 -104 q 393 -68 412 -77 q 350 -55 373 -59 l 368 -3 z "},"ŝ":{"ha":815,"x_min":98,"x_max":718,"o":"m 624 180 q 588 107 615 137 q 522 59 560 77 q 441 32 484 40 q 361 23 399 23 q 280 31 320 23 q 208 58 240 39 q 156 108 176 77 q 136 186 136 140 l 99 186 q 121 94 98 132 q 182 32 144 56 q 266 -3 219 7 q 361 -14 313 -14 q 457 -3 407 -14 q 549 31 507 7 q 622 91 592 54 q 661 179 652 127 q 647 271 669 231 q 578 338 624 312 q 502 372 541 360 q 427 393 464 384 q 380 404 406 398 q 330 420 355 410 q 282 441 304 429 q 244 471 260 453 q 222 510 229 488 q 220 564 215 533 q 255 632 229 604 q 317 678 281 661 q 392 703 352 695 q 469 711 433 711 q 548 701 509 711 q 618 670 587 691 q 665 616 648 649 q 679 538 682 583 l 716 538 q 698 632 718 593 q 644 697 678 671 q 563 735 609 723 q 468 747 517 747 q 377 737 424 747 q 290 704 330 726 q 220 646 249 682 q 184 562 191 611 q 186 501 178 528 q 212 454 195 474 q 253 418 229 433 q 305 393 277 404 q 361 375 332 382 q 417 361 391 367 q 488 340 449 353 q 559 309 527 328 q 615 254 597 285 q 624 180 633 224 m 669 863 l 540 1027 l 513 1027 l 336 866 l 335 857 l 379 857 l 524 988 l 623 855 l 667 856 l 669 863 z "},"ŧ":{"ha":815,"x_min":180,"x_max":690,"o":"m 570 430 l 576 467 l 387 467 l 427 696 l 684 696 l 690 734 l 433 734 l 468 932 l 429 932 l 395 734 l 185 734 l 180 696 l 389 696 l 349 467 l 189 467 l 183 430 l 342 430 l 298 176 q 303 91 292 127 q 341 33 315 56 q 405 -2 367 9 q 488 -14 442 -13 q 516 -14 502 -14 q 545 -12 531 -14 q 570 -10 558 -12 q 595 -6 583 -8 l 593 29 q 539 24 566 26 q 484 23 512 22 q 418 33 448 24 q 368 61 388 42 q 339 108 348 79 q 336 176 330 136 l 380 430 l 570 430 z "},"ť":{"ha":815,"x_min":170,"x_max":751,"o":"m 458 932 l 419 932 l 385 734 l 175 734 l 170 696 l 378 696 l 288 176 q 293 91 281 127 q 331 33 305 56 q 394 -2 357 9 q 477 -14 432 -13 q 531 -13 505 -14 q 585 -6 558 -11 l 583 29 q 529 24 555 26 q 474 23 502 22 q 408 33 437 24 q 358 61 378 42 q 329 108 338 79 q 326 176 320 136 l 417 696 l 674 696 l 680 734 l 423 734 l 458 932 m 740 987 l 751 1057 l 715 1057 l 702 986 q 670 897 692 938 q 615 819 648 856 l 638 796 q 676 841 659 817 q 707 889 694 864 q 726 937 718 912 q 740 987 734 961 z "},"ú":{"ha":815,"x_min":110,"x_max":728,"o":"m 313 -14 q 470 24 399 -14 q 589 131 541 62 l 564 0 l 602 0 l 728 734 l 690 734 l 603 226 q 559 141 589 179 q 490 77 530 104 q 404 37 450 51 q 311 23 358 23 q 224 45 258 24 q 172 100 191 66 q 150 178 154 134 q 154 267 146 222 l 235 734 l 198 734 l 118 268 q 116 163 110 214 q 146 73 122 113 q 210 10 169 34 q 313 -14 252 -14 m 584 1027 l 436 849 l 477 848 l 630 1027 l 584 1027 z "},"ŭ":{"ha":815,"x_min":110,"x_max":728,"o":"m 313 -14 q 470 24 399 -14 q 589 131 541 62 l 564 0 l 602 0 l 728 734 l 690 734 l 603 226 q 559 141 589 179 q 490 77 530 104 q 404 37 450 51 q 311 23 358 23 q 224 45 258 24 q 172 100 191 66 q 150 178 154 134 q 154 267 146 222 l 235 734 l 198 734 l 118 268 q 116 163 110 214 q 146 73 122 113 q 210 10 169 34 q 313 -14 252 -14 m 669 1010 l 632 1010 q 610 961 624 983 q 578 922 596 938 q 526 892 555 903 q 463 881 497 882 q 410 888 433 881 q 370 911 387 896 q 344 952 353 927 q 337 1011 335 978 l 301 1011 q 310 942 300 973 q 342 890 321 911 q 393 855 363 867 q 463 843 424 843 q 536 855 502 843 q 596 890 570 867 q 641 942 623 911 q 669 1010 660 973 z "},"û":{"ha":815,"x_min":110,"x_max":728,"o":"m 313 -14 q 470 24 399 -14 q 589 131 541 62 l 564 0 l 602 0 l 728 734 l 690 734 l 603 226 q 559 141 589 179 q 490 77 530 104 q 404 37 450 51 q 311 23 358 23 q 224 45 258 24 q 172 100 191 66 q 150 178 154 134 q 154 267 146 222 l 235 734 l 198 734 l 118 268 q 116 163 110 214 q 146 73 122 113 q 210 10 169 34 q 313 -14 252 -14 m 633 864 l 504 1029 l 477 1029 l 300 867 l 299 858 l 343 858 l 488 989 l 587 857 l 631 857 l 633 864 z "},"ü":{"ha":815,"x_min":110,"x_max":728,"o":"m 313 -14 q 470 24 399 -14 q 589 131 541 62 l 564 0 l 602 0 l 728 734 l 690 734 l 603 226 q 559 141 589 179 q 490 77 530 104 q 404 37 450 51 q 311 23 358 23 q 224 45 258 24 q 172 100 191 66 q 150 178 154 134 q 154 267 146 222 l 235 734 l 198 734 l 118 268 q 116 163 110 214 q 146 73 122 113 q 210 10 169 34 q 313 -14 252 -14 m 290 964 q 298 939 288 951 q 322 926 308 927 q 349 938 336 926 q 364 963 362 949 q 356 989 366 976 q 331 1002 347 1002 q 304 990 317 1002 q 290 964 292 978 m 583 964 q 591 939 581 951 q 615 926 601 927 q 642 938 629 926 q 657 963 655 949 q 648 989 659 977 q 624 1002 638 1002 q 597 990 610 1002 q 583 964 585 978 z "},"ù":{"ha":815,"x_min":110,"x_max":728,"o":"m 313 -14 q 470 24 399 -14 q 589 131 541 62 l 564 0 l 602 0 l 728 734 l 690 734 l 603 226 q 559 141 589 179 q 490 77 530 104 q 404 37 450 51 q 311 23 358 23 q 224 45 258 24 q 172 100 191 66 q 150 178 154 134 q 154 267 146 222 l 235 734 l 198 734 l 118 268 q 116 163 110 214 q 146 73 122 113 q 210 10 169 34 q 313 -14 252 -14 m 489 847 l 396 1029 l 354 1029 l 452 847 l 489 847 z "},"ư":{"ha":815,"x_min":113,"x_max":904,"o":"m 564 0 l 602 0 l 705 606 q 839 668 792 616 q 904 806 886 720 l 867 807 q 846 745 859 772 q 815 696 833 717 q 771 662 797 675 q 712 644 746 648 l 728 734 l 690 734 l 603 226 q 559 141 589 179 q 490 77 530 104 q 404 37 450 51 q 311 23 358 23 q 224 45 258 24 q 172 100 191 66 q 150 178 154 134 q 154 267 146 222 l 235 734 l 198 734 l 118 268 q 114 196 113 231 q 123 128 115 160 q 144 76 130 100 q 179 32 159 51 q 236 -1 203 11 q 313 -14 269 -14 q 415 1 366 -14 q 503 44 463 16 q 549 83 528 61 q 589 131 571 105 l 564 0 z "},"ű":{"ha":815,"x_min":110,"x_max":758,"o":"m 313 -14 q 470 24 399 -14 q 589 131 541 62 l 564 0 l 602 0 l 728 734 l 690 734 l 603 226 q 559 141 589 179 q 490 77 530 104 q 404 37 450 51 q 311 23 358 23 q 224 45 258 24 q 172 100 191 66 q 150 178 154 134 q 154 267 146 222 l 235 734 l 198 734 l 118 268 q 116 163 110 214 q 146 73 122 113 q 210 10 169 34 q 313 -14 252 -14 m 697 1041 l 475 837 l 526 836 l 758 1041 l 697 1041 m 509 1041 l 316 837 l 365 836 l 565 1041 l 509 1041 z "},"ū":{"ha":815,"x_min":110,"x_max":728,"o":"m 313 -14 q 470 24 399 -14 q 589 131 541 62 l 564 0 l 602 0 l 728 734 l 690 734 l 603 226 q 559 141 589 179 q 490 77 530 104 q 404 37 450 51 q 311 23 358 23 q 224 45 258 24 q 172 100 191 66 q 150 178 154 134 q 154 267 146 222 l 235 734 l 198 734 l 118 268 q 116 163 110 214 q 146 73 122 113 q 210 10 169 34 q 313 -14 252 -14 m 677 959 l 682 995 l 268 995 l 264 959 l 677 959 z "},"ų":{"ha":815,"x_min":110,"x_max":728,"o":"m 598 0 l 602 0 l 728 734 l 690 734 l 603 226 q 559 141 589 179 q 490 77 530 104 q 404 37 450 51 q 311 23 358 23 q 224 45 258 24 q 172 100 191 66 q 150 178 154 134 q 154 267 146 222 l 235 734 l 198 734 l 118 268 q 116 163 110 214 q 146 73 122 113 q 210 10 169 34 q 313 -14 252 -14 q 416 2 368 -14 q 506 46 465 17 q 551 84 530 63 q 589 131 572 106 l 565 9 q 516 -25 542 -7 q 467 -64 490 -43 q 428 -111 444 -85 q 407 -167 411 -136 q 409 -207 404 -189 q 427 -239 414 -226 q 456 -260 438 -252 q 496 -268 473 -268 q 542 -259 520 -268 q 585 -239 564 -251 l 578 -205 q 539 -224 559 -216 q 496 -231 519 -232 q 453 -212 468 -229 q 443 -167 439 -195 q 464 -114 447 -138 q 505 -70 481 -90 q 553 -33 528 -50 q 601 -1 579 -16 l 598 0 z "},"ů":{"ha":815,"x_min":110,"x_max":728,"o":"m 313 -14 q 470 24 399 -14 q 589 131 541 62 l 564 0 l 602 0 l 728 734 l 690 734 l 603 226 q 559 141 589 179 q 490 77 530 104 q 404 37 450 51 q 311 23 358 23 q 224 45 258 24 q 172 100 191 66 q 150 178 154 134 q 154 267 146 222 l 235 734 l 198 734 l 118 268 q 116 163 110 214 q 146 73 122 113 q 210 10 169 34 q 313 -14 252 -14 m 367 937 q 369 895 363 916 q 386 858 374 874 q 416 832 398 842 q 458 822 435 822 q 502 832 481 822 q 541 857 524 842 q 569 894 557 873 q 584 937 581 915 q 582 980 587 959 q 565 1018 577 1001 q 534 1045 553 1035 q 492 1055 515 1055 q 448 1045 469 1055 q 410 1019 427 1035 q 381 981 393 1002 q 367 937 370 960 m 404 937 q 414 967 406 952 q 435 994 422 982 q 461 1011 446 1004 q 492 1018 475 1018 q 520 1011 508 1018 q 539 992 532 1004 q 548 966 546 981 q 547 937 550 951 q 536 908 544 922 q 516 883 528 894 q 490 866 505 872 q 458 859 475 859 q 431 866 443 859 q 413 884 420 873 q 403 909 406 895 q 404 937 401 923 z "},"ũ":{"ha":815,"x_min":110,"x_max":728,"o":"m 313 -14 q 470 24 399 -14 q 589 131 541 62 l 564 0 l 602 0 l 728 734 l 690 734 l 603 226 q 559 141 589 179 q 490 77 530 104 q 404 37 450 51 q 311 23 358 23 q 224 45 258 24 q 172 100 191 66 q 150 178 154 134 q 154 267 146 222 l 235 734 l 198 734 l 118 268 q 116 163 110 214 q 146 73 122 113 q 210 10 169 34 q 313 -14 252 -14 m 696 1008 l 659 1008 q 646 976 654 992 q 626 946 637 960 q 602 926 615 934 q 575 918 589 918 q 529 932 549 918 q 488 964 509 947 q 447 992 469 980 q 396 1004 426 1004 q 348 994 370 1004 q 311 967 327 984 q 283 928 294 950 q 267 883 273 907 l 304 883 q 318 914 310 899 q 337 941 326 929 q 362 959 348 952 q 397 966 377 966 q 441 953 420 966 q 481 924 462 939 q 519 895 499 907 q 566 882 540 882 q 615 893 593 882 q 652 922 636 904 q 680 962 669 939 q 696 1008 690 984 z "},"ẃ":{"ha":815,"x_min":106,"x_max":826,"o":"m 144 0 l 178 0 l 410 549 l 456 665 l 458 555 l 503 0 l 536 0 l 826 733 l 787 733 l 582 216 l 528 71 l 520 209 l 482 734 l 448 734 l 233 215 l 172 71 l 170 209 l 144 734 l 106 734 l 144 0 m 611 1027 l 463 849 l 505 848 l 657 1027 l 611 1027 z "},"ŵ":{"ha":815,"x_min":106,"x_max":826,"o":"m 144 0 l 178 0 l 410 549 l 456 665 l 458 555 l 503 0 l 536 0 l 826 733 l 787 733 l 582 216 l 528 71 l 520 209 l 482 734 l 448 734 l 233 215 l 172 71 l 170 209 l 144 734 l 106 734 l 144 0 m 660 864 l 531 1029 l 504 1029 l 327 867 l 326 858 l 370 858 l 515 989 l 614 857 l 659 857 l 660 864 z "},"ẅ":{"ha":815,"x_min":106,"x_max":826,"o":"m 144 0 l 178 0 l 410 549 l 456 665 l 458 555 l 503 0 l 536 0 l 826 733 l 787 733 l 582 216 l 528 71 l 520 209 l 482 734 l 448 734 l 233 215 l 172 71 l 170 209 l 144 734 l 106 734 l 144 0 m 316 964 q 325 939 315 951 q 349 926 334 927 q 375 938 362 926 q 391 963 389 949 q 382 989 392 976 q 357 1002 373 1002 q 331 990 344 1002 q 316 964 318 978 m 609 964 q 617 939 607 951 q 642 926 627 927 q 668 938 655 926 q 684 963 682 949 q 675 989 685 977 q 650 1002 665 1002 q 624 990 637 1002 q 609 964 611 978 z "},"ẁ":{"ha":815,"x_min":106,"x_max":826,"o":"m 144 0 l 178 0 l 410 549 l 456 665 l 458 555 l 503 0 l 536 0 l 826 733 l 787 733 l 582 216 l 528 71 l 520 209 l 482 734 l 448 734 l 233 215 l 172 71 l 170 209 l 144 734 l 106 734 l 144 0 m 516 847 l 423 1029 l 381 1029 l 479 847 l 516 847 z "},"ý":{"ha":815,"x_min":-22,"x_max":808,"o":"m 346 50 l 153 734 l 111 734 l 319 5 l 248 -115 q 208 -171 230 -144 q 159 -217 185 -197 q 101 -249 132 -237 q 33 -260 69 -260 q 7 -258 20 -260 q -19 -254 -6 -256 l -22 -289 q 8 -294 -7 -292 q 38 -296 22 -296 q 118 -282 81 -296 q 184 -243 154 -267 q 240 -188 215 -220 q 287 -122 266 -157 l 808 733 l 763 733 l 358 71 l 346 50 m 614 1027 l 467 849 l 508 848 l 661 1027 l 614 1027 z "},"ŷ":{"ha":815,"x_min":-22,"x_max":808,"o":"m 346 50 l 153 734 l 111 734 l 319 5 l 248 -115 q 208 -171 230 -144 q 159 -217 185 -197 q 101 -249 132 -237 q 33 -260 69 -260 q 7 -258 20 -260 q -19 -254 -6 -256 l -22 -289 q 8 -294 -7 -292 q 38 -296 22 -296 q 118 -282 81 -296 q 184 -243 154 -267 q 240 -188 215 -220 q 287 -122 266 -157 l 808 733 l 763 733 l 358 71 l 346 50 m 663 864 l 534 1029 l 507 1029 l 330 867 l 330 858 l 374 858 l 519 989 l 618 857 l 662 857 l 663 864 z "},"ÿ":{"ha":815,"x_min":-22,"x_max":808,"o":"m 346 50 l 153 734 l 111 734 l 319 5 l 248 -115 q 208 -171 230 -144 q 159 -217 185 -197 q 101 -249 132 -237 q 33 -260 69 -260 q 7 -258 20 -260 q -19 -254 -6 -256 l -22 -289 q 8 -294 -7 -292 q 38 -296 22 -296 q 118 -282 81 -296 q 184 -243 154 -267 q 240 -188 215 -220 q 287 -122 266 -157 l 808 733 l 763 733 l 358 71 l 346 50 m 319 964 q 328 939 318 951 q 352 926 338 927 q 379 938 366 926 q 394 963 392 949 q 386 989 395 976 q 361 1002 376 1002 q 334 990 347 1002 q 319 964 321 978 m 612 964 q 621 939 610 951 q 645 926 631 927 q 672 938 659 926 q 687 963 685 949 q 678 989 688 977 q 654 1002 668 1002 q 627 990 640 1002 q 612 964 614 978 z "},"ỳ":{"ha":815,"x_min":-22,"x_max":808,"o":"m 346 50 l 153 734 l 111 734 l 319 5 l 248 -115 q 208 -171 230 -144 q 159 -217 185 -197 q 101 -249 132 -237 q 33 -260 69 -260 q 7 -258 20 -260 q -19 -254 -6 -256 l -22 -289 q 8 -294 -7 -292 q 38 -296 22 -296 q 118 -282 81 -296 q 184 -243 154 -267 q 240 -188 215 -220 q 287 -122 266 -157 l 808 733 l 763 733 l 358 71 l 346 50 m 519 847 l 427 1029 l 385 1029 l 482 847 l 519 847 z "},"ź":{"ha":815,"x_min":27,"x_max":737,"o":"m 87 37 l 732 701 l 737 733 l 164 734 l 159 696 l 677 696 l 32 30 l 27 0 l 669 0 l 673 37 l 87 37 m 616 1027 l 468 849 l 509 848 l 662 1027 l 616 1027 z "},"ž":{"ha":815,"x_min":27,"x_max":737,"o":"m 87 37 l 732 701 l 737 733 l 164 734 l 159 696 l 677 696 l 32 30 l 27 0 l 669 0 l 673 37 l 87 37 m 495 885 l 394 1032 l 357 1031 l 356 1024 l 475 853 l 514 853 l 684 1022 l 685 1031 l 648 1031 l 495 885 z "},"ż":{"ha":815,"x_min":27,"x_max":737,"o":"m 87 37 l 732 701 l 737 733 l 164 734 l 159 696 l 677 696 l 32 30 l 27 0 l 669 0 l 673 37 l 87 37 m 469 949 q 477 922 467 933 q 503 910 487 911 q 530 921 517 910 q 546 946 544 932 q 538 974 549 962 q 512 985 528 985 q 485 974 498 985 q 469 949 471 962 z "},"`":{"ha":815,"x_min":420,"x_max":555,"o":"m 555 847 l 462 1029 l 420 1029 l 517 847 l 555 847 z "},"´":{"ha":815,"x_min":391,"x_max":585,"o":"m 538 1027 l 391 849 l 432 848 l 585 1027 l 538 1027 z "},"ˆ":{"ha":815,"x_min":332,"x_max":666,"o":"m 666 864 l 537 1029 l 510 1029 l 333 867 l 332 858 l 376 858 l 522 989 l 621 857 l 665 857 l 666 864 z "},"˜":{"ha":815,"x_min":175,"x_max":605,"o":"m 605 998 l 568 998 q 554 966 563 982 q 534 936 546 949 q 511 916 524 924 q 484 907 498 907 q 438 922 458 907 q 397 954 418 937 q 356 982 377 970 q 304 994 334 994 q 257 984 278 994 q 219 957 235 974 q 192 918 203 940 q 175 873 181 897 l 212 873 q 226 904 218 889 q 245 930 234 919 q 271 949 256 942 q 305 956 286 956 q 349 943 328 956 q 389 913 370 929 q 428 885 408 897 q 475 872 448 872 q 523 883 502 872 q 561 911 545 894 q 588 951 577 929 q 605 998 599 974 z "},"¯":{"ha":815,"x_min":283,"x_max":701,"o":"m 696 951 l 701 987 l 288 987 l 283 951 l 696 951 z "},"ˉ":{"ha":815,"x_min":283,"x_max":701,"o":"m 696 951 l 701 987 l 288 987 l 283 951 l 696 951 z "}}}
